M48
; DRILL file {KiCad 5.1.6+dfsg1-1} date Tue Dec  1 22:33:43 2020
; FORMAT={-:-/ absolute / inch / decimal}
; #@! TF.CreationDate,2020-12-01T22:33:43+01:00
; #@! TF.GenerationSoftware,Kicad,Pcbnew,5.1.6+dfsg1-1
FMAT,2
INCH
T1C0.0157
T2C0.0354
T3C0.0394
T4C0.0433
T5C0.1260
%
G90
G05
T1
X0.1772Y-1.6535
X0.6299Y-0.4921
X0.8661Y-0.4921
X1.0827Y-0.6693
X1.1024Y-0.4921
X1.1179Y-1.3354
X1.2884Y-2.3425
X1.7323Y-0.9967
X1.811Y-0.9055
T2
X1.0024Y-0.1969
X1.1024Y-0.1969
X0.7661Y-0.1969
X0.8661Y-0.1969
X0.5299Y-0.1969
X0.6299Y-0.1969
T3
X0.1799Y-1.7803
X0.1799Y-1.8803
X0.1799Y-1.9803
X0.1799Y-2.0803
X0.1799Y-2.1803
X0.1799Y-2.2803
X0.1799Y-2.3803
X0.1799Y-2.4803
X1.0799Y-1.7803
X1.0799Y-1.8803
X1.0799Y-1.9803
X1.0799Y-2.0803
X1.0799Y-2.1803
X1.0799Y-2.2803
X1.0799Y-2.3803
X1.0799Y-2.4803
X1.2874Y-1.2453
X1.2874Y-1.3453
X1.2874Y-1.4453
X1.2874Y-1.5453
X1.2874Y-1.6453
X1.2874Y-1.7453
X1.2874Y-1.8453
X1.2874Y-1.9453
X1.3874Y-1.2453
X1.3874Y-1.3453
X1.3874Y-1.4453
X1.3874Y-1.5453
X1.3874Y-1.6453
X1.3874Y-1.7453
X1.3874Y-1.8453
X1.3874Y-1.9453
X1.0827Y-0.7681
X1.0827Y-0.8681
X1.0827Y-0.9681
X1.0827Y-1.0681
X1.7988Y-0.4528
X1.8988Y-0.4528
X1.9988Y-0.4528
X2.0988Y-0.4528
X0.4406Y-1.4102
X0.5406Y-1.4102
X0.6406Y-1.4102
X0.7406Y-1.4102
T4
X1.2795Y-0.1378
X1.2795Y-0.315
X1.5354Y-0.1378
X1.5354Y-0.315
T5
X2.3622Y-0.1969
X0.1969Y-2.9921
X0.1969Y-0.1969
X2.3622Y-2.9921
T0
M30
