G04 #@! TF.GenerationSoftware,KiCad,Pcbnew,5.1.6+dfsg1-1*
G04 #@! TF.CreationDate,2020-12-01T22:33:45+01:00*
G04 #@! TF.ProjectId,sensorbox,73656e73-6f72-4626-9f78-2e6b69636164,rev?*
G04 #@! TF.SameCoordinates,Original*
G04 #@! TF.FileFunction,Soldermask,Top*
G04 #@! TF.FilePolarity,Negative*
%FSLAX46Y46*%
G04 Gerber Fmt 4.6, Leading zero omitted, Abs format (unit mm)*
G04 Created by KiCad (PCBNEW 5.1.6+dfsg1-1) date 2020-12-01 22:33:45*
%MOMM*%
%LPD*%
G01*
G04 APERTURE LIST*
%ADD10C,0.100000*%
G04 APERTURE END LIST*
D10*
G36*
X5634239Y-72811467D02*
G01*
X5948282Y-72873934D01*
X6539926Y-73119001D01*
X7072392Y-73474784D01*
X7525216Y-73927608D01*
X7880999Y-74460074D01*
X8126066Y-75051718D01*
X8251000Y-75679804D01*
X8251000Y-76320196D01*
X8126066Y-76948282D01*
X7880999Y-77539926D01*
X7525216Y-78072392D01*
X7072392Y-78525216D01*
X6539926Y-78880999D01*
X5948282Y-79126066D01*
X5634239Y-79188533D01*
X5320197Y-79251000D01*
X4679803Y-79251000D01*
X4365761Y-79188533D01*
X4051718Y-79126066D01*
X3460074Y-78880999D01*
X2927608Y-78525216D01*
X2474784Y-78072392D01*
X2119001Y-77539926D01*
X1873934Y-76948282D01*
X1749000Y-76320196D01*
X1749000Y-75679804D01*
X1873934Y-75051718D01*
X2119001Y-74460074D01*
X2474784Y-73927608D01*
X2927608Y-73474784D01*
X3460074Y-73119001D01*
X4051718Y-72873934D01*
X4365761Y-72811467D01*
X4679803Y-72749000D01*
X5320197Y-72749000D01*
X5634239Y-72811467D01*
G37*
G36*
X60634239Y-72811467D02*
G01*
X60948282Y-72873934D01*
X61539926Y-73119001D01*
X62072392Y-73474784D01*
X62525216Y-73927608D01*
X62880999Y-74460074D01*
X63126066Y-75051718D01*
X63251000Y-75679804D01*
X63251000Y-76320196D01*
X63126066Y-76948282D01*
X62880999Y-77539926D01*
X62525216Y-78072392D01*
X62072392Y-78525216D01*
X61539926Y-78880999D01*
X60948282Y-79126066D01*
X60634239Y-79188533D01*
X60320197Y-79251000D01*
X59679803Y-79251000D01*
X59365761Y-79188533D01*
X59051718Y-79126066D01*
X58460074Y-78880999D01*
X57927608Y-78525216D01*
X57474784Y-78072392D01*
X57119001Y-77539926D01*
X56873934Y-76948282D01*
X56749000Y-76320196D01*
X56749000Y-75679804D01*
X56873934Y-75051718D01*
X57119001Y-74460074D01*
X57474784Y-73927608D01*
X57927608Y-73474784D01*
X58460074Y-73119001D01*
X59051718Y-72873934D01*
X59365761Y-72811467D01*
X59679803Y-72749000D01*
X60320197Y-72749000D01*
X60634239Y-72811467D01*
G37*
G36*
X27543512Y-62103927D02*
G01*
X27692812Y-62133624D01*
X27856784Y-62201544D01*
X28004354Y-62300147D01*
X28129853Y-62425646D01*
X28228456Y-62573216D01*
X28296376Y-62737188D01*
X28331000Y-62911259D01*
X28331000Y-63088741D01*
X28296376Y-63262812D01*
X28228456Y-63426784D01*
X28129853Y-63574354D01*
X28004354Y-63699853D01*
X27856784Y-63798456D01*
X27692812Y-63866376D01*
X27543512Y-63896073D01*
X27518742Y-63901000D01*
X27341258Y-63901000D01*
X27316488Y-63896073D01*
X27167188Y-63866376D01*
X27003216Y-63798456D01*
X26855646Y-63699853D01*
X26730147Y-63574354D01*
X26631544Y-63426784D01*
X26563624Y-63262812D01*
X26529000Y-63088741D01*
X26529000Y-62911259D01*
X26563624Y-62737188D01*
X26631544Y-62573216D01*
X26730147Y-62425646D01*
X26855646Y-62300147D01*
X27003216Y-62201544D01*
X27167188Y-62133624D01*
X27316488Y-62103927D01*
X27341258Y-62099000D01*
X27518742Y-62099000D01*
X27543512Y-62103927D01*
G37*
G36*
X4683512Y-62103927D02*
G01*
X4832812Y-62133624D01*
X4996784Y-62201544D01*
X5144354Y-62300147D01*
X5269853Y-62425646D01*
X5368456Y-62573216D01*
X5436376Y-62737188D01*
X5471000Y-62911259D01*
X5471000Y-63088741D01*
X5436376Y-63262812D01*
X5368456Y-63426784D01*
X5269853Y-63574354D01*
X5144354Y-63699853D01*
X4996784Y-63798456D01*
X4832812Y-63866376D01*
X4683512Y-63896073D01*
X4658742Y-63901000D01*
X4481258Y-63901000D01*
X4456488Y-63896073D01*
X4307188Y-63866376D01*
X4143216Y-63798456D01*
X3995646Y-63699853D01*
X3870147Y-63574354D01*
X3771544Y-63426784D01*
X3703624Y-63262812D01*
X3669000Y-63088741D01*
X3669000Y-62911259D01*
X3703624Y-62737188D01*
X3771544Y-62573216D01*
X3870147Y-62425646D01*
X3995646Y-62300147D01*
X4143216Y-62201544D01*
X4307188Y-62133624D01*
X4456488Y-62103927D01*
X4481258Y-62099000D01*
X4658742Y-62099000D01*
X4683512Y-62103927D01*
G37*
G36*
X27543512Y-59563927D02*
G01*
X27692812Y-59593624D01*
X27856784Y-59661544D01*
X28004354Y-59760147D01*
X28129853Y-59885646D01*
X28228456Y-60033216D01*
X28296376Y-60197188D01*
X28331000Y-60371259D01*
X28331000Y-60548741D01*
X28296376Y-60722812D01*
X28228456Y-60886784D01*
X28129853Y-61034354D01*
X28004354Y-61159853D01*
X27856784Y-61258456D01*
X27692812Y-61326376D01*
X27543512Y-61356073D01*
X27518742Y-61361000D01*
X27341258Y-61361000D01*
X27316488Y-61356073D01*
X27167188Y-61326376D01*
X27003216Y-61258456D01*
X26855646Y-61159853D01*
X26730147Y-61034354D01*
X26631544Y-60886784D01*
X26563624Y-60722812D01*
X26529000Y-60548741D01*
X26529000Y-60371259D01*
X26563624Y-60197188D01*
X26631544Y-60033216D01*
X26730147Y-59885646D01*
X26855646Y-59760147D01*
X27003216Y-59661544D01*
X27167188Y-59593624D01*
X27316488Y-59563927D01*
X27341258Y-59559000D01*
X27518742Y-59559000D01*
X27543512Y-59563927D01*
G37*
G36*
X4683512Y-59563927D02*
G01*
X4832812Y-59593624D01*
X4996784Y-59661544D01*
X5144354Y-59760147D01*
X5269853Y-59885646D01*
X5368456Y-60033216D01*
X5436376Y-60197188D01*
X5471000Y-60371259D01*
X5471000Y-60548741D01*
X5436376Y-60722812D01*
X5368456Y-60886784D01*
X5269853Y-61034354D01*
X5144354Y-61159853D01*
X4996784Y-61258456D01*
X4832812Y-61326376D01*
X4683512Y-61356073D01*
X4658742Y-61361000D01*
X4481258Y-61361000D01*
X4456488Y-61356073D01*
X4307188Y-61326376D01*
X4143216Y-61258456D01*
X3995646Y-61159853D01*
X3870147Y-61034354D01*
X3771544Y-60886784D01*
X3703624Y-60722812D01*
X3669000Y-60548741D01*
X3669000Y-60371259D01*
X3703624Y-60197188D01*
X3771544Y-60033216D01*
X3870147Y-59885646D01*
X3995646Y-59760147D01*
X4143216Y-59661544D01*
X4307188Y-59593624D01*
X4456488Y-59563927D01*
X4481258Y-59559000D01*
X4658742Y-59559000D01*
X4683512Y-59563927D01*
G37*
G36*
X27543512Y-57023927D02*
G01*
X27692812Y-57053624D01*
X27856784Y-57121544D01*
X28004354Y-57220147D01*
X28129853Y-57345646D01*
X28228456Y-57493216D01*
X28296376Y-57657188D01*
X28331000Y-57831259D01*
X28331000Y-58008741D01*
X28296376Y-58182812D01*
X28228456Y-58346784D01*
X28129853Y-58494354D01*
X28004354Y-58619853D01*
X27856784Y-58718456D01*
X27692812Y-58786376D01*
X27543512Y-58816073D01*
X27518742Y-58821000D01*
X27341258Y-58821000D01*
X27316488Y-58816073D01*
X27167188Y-58786376D01*
X27003216Y-58718456D01*
X26855646Y-58619853D01*
X26730147Y-58494354D01*
X26631544Y-58346784D01*
X26563624Y-58182812D01*
X26529000Y-58008741D01*
X26529000Y-57831259D01*
X26563624Y-57657188D01*
X26631544Y-57493216D01*
X26730147Y-57345646D01*
X26855646Y-57220147D01*
X27003216Y-57121544D01*
X27167188Y-57053624D01*
X27316488Y-57023927D01*
X27341258Y-57019000D01*
X27518742Y-57019000D01*
X27543512Y-57023927D01*
G37*
G36*
X4683512Y-57023927D02*
G01*
X4832812Y-57053624D01*
X4996784Y-57121544D01*
X5144354Y-57220147D01*
X5269853Y-57345646D01*
X5368456Y-57493216D01*
X5436376Y-57657188D01*
X5471000Y-57831259D01*
X5471000Y-58008741D01*
X5436376Y-58182812D01*
X5368456Y-58346784D01*
X5269853Y-58494354D01*
X5144354Y-58619853D01*
X4996784Y-58718456D01*
X4832812Y-58786376D01*
X4683512Y-58816073D01*
X4658742Y-58821000D01*
X4481258Y-58821000D01*
X4456488Y-58816073D01*
X4307188Y-58786376D01*
X4143216Y-58718456D01*
X3995646Y-58619853D01*
X3870147Y-58494354D01*
X3771544Y-58346784D01*
X3703624Y-58182812D01*
X3669000Y-58008741D01*
X3669000Y-57831259D01*
X3703624Y-57657188D01*
X3771544Y-57493216D01*
X3870147Y-57345646D01*
X3995646Y-57220147D01*
X4143216Y-57121544D01*
X4307188Y-57053624D01*
X4456488Y-57023927D01*
X4481258Y-57019000D01*
X4658742Y-57019000D01*
X4683512Y-57023927D01*
G37*
G36*
X4683512Y-54483927D02*
G01*
X4832812Y-54513624D01*
X4996784Y-54581544D01*
X5144354Y-54680147D01*
X5269853Y-54805646D01*
X5368456Y-54953216D01*
X5436376Y-55117188D01*
X5471000Y-55291259D01*
X5471000Y-55468741D01*
X5436376Y-55642812D01*
X5368456Y-55806784D01*
X5269853Y-55954354D01*
X5144354Y-56079853D01*
X4996784Y-56178456D01*
X4832812Y-56246376D01*
X4683512Y-56276073D01*
X4658742Y-56281000D01*
X4481258Y-56281000D01*
X4456488Y-56276073D01*
X4307188Y-56246376D01*
X4143216Y-56178456D01*
X3995646Y-56079853D01*
X3870147Y-55954354D01*
X3771544Y-55806784D01*
X3703624Y-55642812D01*
X3669000Y-55468741D01*
X3669000Y-55291259D01*
X3703624Y-55117188D01*
X3771544Y-54953216D01*
X3870147Y-54805646D01*
X3995646Y-54680147D01*
X4143216Y-54581544D01*
X4307188Y-54513624D01*
X4456488Y-54483927D01*
X4481258Y-54479000D01*
X4658742Y-54479000D01*
X4683512Y-54483927D01*
G37*
G36*
X27543512Y-54483927D02*
G01*
X27692812Y-54513624D01*
X27856784Y-54581544D01*
X28004354Y-54680147D01*
X28129853Y-54805646D01*
X28228456Y-54953216D01*
X28296376Y-55117188D01*
X28331000Y-55291259D01*
X28331000Y-55468741D01*
X28296376Y-55642812D01*
X28228456Y-55806784D01*
X28129853Y-55954354D01*
X28004354Y-56079853D01*
X27856784Y-56178456D01*
X27692812Y-56246376D01*
X27543512Y-56276073D01*
X27518742Y-56281000D01*
X27341258Y-56281000D01*
X27316488Y-56276073D01*
X27167188Y-56246376D01*
X27003216Y-56178456D01*
X26855646Y-56079853D01*
X26730147Y-55954354D01*
X26631544Y-55806784D01*
X26563624Y-55642812D01*
X26529000Y-55468741D01*
X26529000Y-55291259D01*
X26563624Y-55117188D01*
X26631544Y-54953216D01*
X26730147Y-54805646D01*
X26855646Y-54680147D01*
X27003216Y-54581544D01*
X27167188Y-54513624D01*
X27316488Y-54483927D01*
X27341258Y-54479000D01*
X27518742Y-54479000D01*
X27543512Y-54483927D01*
G37*
G36*
X27543512Y-51943927D02*
G01*
X27692812Y-51973624D01*
X27856784Y-52041544D01*
X28004354Y-52140147D01*
X28129853Y-52265646D01*
X28228456Y-52413216D01*
X28296376Y-52577188D01*
X28331000Y-52751259D01*
X28331000Y-52928741D01*
X28296376Y-53102812D01*
X28228456Y-53266784D01*
X28129853Y-53414354D01*
X28004354Y-53539853D01*
X27856784Y-53638456D01*
X27692812Y-53706376D01*
X27543512Y-53736073D01*
X27518742Y-53741000D01*
X27341258Y-53741000D01*
X27316488Y-53736073D01*
X27167188Y-53706376D01*
X27003216Y-53638456D01*
X26855646Y-53539853D01*
X26730147Y-53414354D01*
X26631544Y-53266784D01*
X26563624Y-53102812D01*
X26529000Y-52928741D01*
X26529000Y-52751259D01*
X26563624Y-52577188D01*
X26631544Y-52413216D01*
X26730147Y-52265646D01*
X26855646Y-52140147D01*
X27003216Y-52041544D01*
X27167188Y-51973624D01*
X27316488Y-51943927D01*
X27341258Y-51939000D01*
X27518742Y-51939000D01*
X27543512Y-51943927D01*
G37*
G36*
X4683512Y-51943927D02*
G01*
X4832812Y-51973624D01*
X4996784Y-52041544D01*
X5144354Y-52140147D01*
X5269853Y-52265646D01*
X5368456Y-52413216D01*
X5436376Y-52577188D01*
X5471000Y-52751259D01*
X5471000Y-52928741D01*
X5436376Y-53102812D01*
X5368456Y-53266784D01*
X5269853Y-53414354D01*
X5144354Y-53539853D01*
X4996784Y-53638456D01*
X4832812Y-53706376D01*
X4683512Y-53736073D01*
X4658742Y-53741000D01*
X4481258Y-53741000D01*
X4456488Y-53736073D01*
X4307188Y-53706376D01*
X4143216Y-53638456D01*
X3995646Y-53539853D01*
X3870147Y-53414354D01*
X3771544Y-53266784D01*
X3703624Y-53102812D01*
X3669000Y-52928741D01*
X3669000Y-52751259D01*
X3703624Y-52577188D01*
X3771544Y-52413216D01*
X3870147Y-52265646D01*
X3995646Y-52140147D01*
X4143216Y-52041544D01*
X4307188Y-51973624D01*
X4456488Y-51943927D01*
X4481258Y-51939000D01*
X4658742Y-51939000D01*
X4683512Y-51943927D01*
G37*
G36*
X27543512Y-49403927D02*
G01*
X27692812Y-49433624D01*
X27856784Y-49501544D01*
X28004354Y-49600147D01*
X28129853Y-49725646D01*
X28228456Y-49873216D01*
X28296376Y-50037188D01*
X28326073Y-50186488D01*
X28330443Y-50208456D01*
X28331000Y-50211259D01*
X28331000Y-50388741D01*
X28296376Y-50562812D01*
X28228456Y-50726784D01*
X28129853Y-50874354D01*
X28004354Y-50999853D01*
X27856784Y-51098456D01*
X27692812Y-51166376D01*
X27543512Y-51196073D01*
X27518742Y-51201000D01*
X27341258Y-51201000D01*
X27316488Y-51196073D01*
X27167188Y-51166376D01*
X27003216Y-51098456D01*
X26855646Y-50999853D01*
X26730147Y-50874354D01*
X26631544Y-50726784D01*
X26563624Y-50562812D01*
X26529000Y-50388741D01*
X26529000Y-50211259D01*
X26529558Y-50208456D01*
X26533927Y-50186488D01*
X26563624Y-50037188D01*
X26631544Y-49873216D01*
X26730147Y-49725646D01*
X26855646Y-49600147D01*
X27003216Y-49501544D01*
X27167188Y-49433624D01*
X27316488Y-49403927D01*
X27341258Y-49399000D01*
X27518742Y-49399000D01*
X27543512Y-49403927D01*
G37*
G36*
X4683512Y-49403927D02*
G01*
X4832812Y-49433624D01*
X4996784Y-49501544D01*
X5144354Y-49600147D01*
X5269853Y-49725646D01*
X5368456Y-49873216D01*
X5436376Y-50037188D01*
X5466073Y-50186488D01*
X5470443Y-50208456D01*
X5471000Y-50211259D01*
X5471000Y-50388741D01*
X5436376Y-50562812D01*
X5368456Y-50726784D01*
X5269853Y-50874354D01*
X5144354Y-50999853D01*
X4996784Y-51098456D01*
X4832812Y-51166376D01*
X4683512Y-51196073D01*
X4658742Y-51201000D01*
X4481258Y-51201000D01*
X4456488Y-51196073D01*
X4307188Y-51166376D01*
X4143216Y-51098456D01*
X3995646Y-50999853D01*
X3870147Y-50874354D01*
X3771544Y-50726784D01*
X3703624Y-50562812D01*
X3669000Y-50388741D01*
X3669000Y-50211259D01*
X3669558Y-50208456D01*
X3673927Y-50186488D01*
X3703624Y-50037188D01*
X3771544Y-49873216D01*
X3870147Y-49725646D01*
X3995646Y-49600147D01*
X4143216Y-49501544D01*
X4307188Y-49433624D01*
X4456488Y-49403927D01*
X4481258Y-49399000D01*
X4658742Y-49399000D01*
X4683512Y-49403927D01*
G37*
G36*
X32813512Y-48513927D02*
G01*
X32962812Y-48543624D01*
X33126784Y-48611544D01*
X33274354Y-48710147D01*
X33399853Y-48835646D01*
X33498456Y-48983216D01*
X33566376Y-49147188D01*
X33596073Y-49296488D01*
X33601000Y-49321258D01*
X33601000Y-49498742D01*
X33596073Y-49523512D01*
X33566376Y-49672812D01*
X33498456Y-49836784D01*
X33399853Y-49984354D01*
X33274354Y-50109853D01*
X33126784Y-50208456D01*
X32962812Y-50276376D01*
X32813512Y-50306073D01*
X32788742Y-50311000D01*
X32611258Y-50311000D01*
X32586488Y-50306073D01*
X32437188Y-50276376D01*
X32273216Y-50208456D01*
X32125646Y-50109853D01*
X32000147Y-49984354D01*
X31901544Y-49836784D01*
X31833624Y-49672812D01*
X31803927Y-49523512D01*
X31799000Y-49498742D01*
X31799000Y-49321258D01*
X31803927Y-49296488D01*
X31833624Y-49147188D01*
X31901544Y-48983216D01*
X32000147Y-48835646D01*
X32125646Y-48710147D01*
X32273216Y-48611544D01*
X32437188Y-48543624D01*
X32586488Y-48513927D01*
X32611258Y-48509000D01*
X32788742Y-48509000D01*
X32813512Y-48513927D01*
G37*
G36*
X35353512Y-48513927D02*
G01*
X35502812Y-48543624D01*
X35666784Y-48611544D01*
X35814354Y-48710147D01*
X35939853Y-48835646D01*
X36038456Y-48983216D01*
X36106376Y-49147188D01*
X36136073Y-49296488D01*
X36141000Y-49321258D01*
X36141000Y-49498742D01*
X36136073Y-49523512D01*
X36106376Y-49672812D01*
X36038456Y-49836784D01*
X35939853Y-49984354D01*
X35814354Y-50109853D01*
X35666784Y-50208456D01*
X35502812Y-50276376D01*
X35353512Y-50306073D01*
X35328742Y-50311000D01*
X35151258Y-50311000D01*
X35126488Y-50306073D01*
X34977188Y-50276376D01*
X34813216Y-50208456D01*
X34665646Y-50109853D01*
X34540147Y-49984354D01*
X34441544Y-49836784D01*
X34373624Y-49672812D01*
X34343927Y-49523512D01*
X34339000Y-49498742D01*
X34339000Y-49321258D01*
X34343927Y-49296488D01*
X34373624Y-49147188D01*
X34441544Y-48983216D01*
X34540147Y-48835646D01*
X34665646Y-48710147D01*
X34813216Y-48611544D01*
X34977188Y-48543624D01*
X35126488Y-48513927D01*
X35151258Y-48509000D01*
X35328742Y-48509000D01*
X35353512Y-48513927D01*
G37*
G36*
X27543512Y-46863927D02*
G01*
X27692812Y-46893624D01*
X27856784Y-46961544D01*
X28004354Y-47060147D01*
X28129853Y-47185646D01*
X28228456Y-47333216D01*
X28296376Y-47497188D01*
X28326073Y-47646488D01*
X28330443Y-47668456D01*
X28331000Y-47671259D01*
X28331000Y-47848741D01*
X28296376Y-48022812D01*
X28228456Y-48186784D01*
X28129853Y-48334354D01*
X28004354Y-48459853D01*
X27856784Y-48558456D01*
X27692812Y-48626376D01*
X27543512Y-48656073D01*
X27518742Y-48661000D01*
X27341258Y-48661000D01*
X27316488Y-48656073D01*
X27167188Y-48626376D01*
X27003216Y-48558456D01*
X26855646Y-48459853D01*
X26730147Y-48334354D01*
X26631544Y-48186784D01*
X26563624Y-48022812D01*
X26529000Y-47848741D01*
X26529000Y-47671259D01*
X26529558Y-47668456D01*
X26533927Y-47646488D01*
X26563624Y-47497188D01*
X26631544Y-47333216D01*
X26730147Y-47185646D01*
X26855646Y-47060147D01*
X27003216Y-46961544D01*
X27167188Y-46893624D01*
X27316488Y-46863927D01*
X27341258Y-46859000D01*
X27518742Y-46859000D01*
X27543512Y-46863927D01*
G37*
G36*
X4683512Y-46863927D02*
G01*
X4832812Y-46893624D01*
X4996784Y-46961544D01*
X5144354Y-47060147D01*
X5269853Y-47185646D01*
X5368456Y-47333216D01*
X5436376Y-47497188D01*
X5466073Y-47646488D01*
X5470443Y-47668456D01*
X5471000Y-47671259D01*
X5471000Y-47848741D01*
X5436376Y-48022812D01*
X5368456Y-48186784D01*
X5269853Y-48334354D01*
X5144354Y-48459853D01*
X4996784Y-48558456D01*
X4832812Y-48626376D01*
X4683512Y-48656073D01*
X4658742Y-48661000D01*
X4481258Y-48661000D01*
X4456488Y-48656073D01*
X4307188Y-48626376D01*
X4143216Y-48558456D01*
X3995646Y-48459853D01*
X3870147Y-48334354D01*
X3771544Y-48186784D01*
X3703624Y-48022812D01*
X3669000Y-47848741D01*
X3669000Y-47671259D01*
X3669558Y-47668456D01*
X3673927Y-47646488D01*
X3703624Y-47497188D01*
X3771544Y-47333216D01*
X3870147Y-47185646D01*
X3995646Y-47060147D01*
X4143216Y-46961544D01*
X4307188Y-46893624D01*
X4456488Y-46863927D01*
X4481258Y-46859000D01*
X4658742Y-46859000D01*
X4683512Y-46863927D01*
G37*
G36*
X32813512Y-45973927D02*
G01*
X32962812Y-46003624D01*
X33126784Y-46071544D01*
X33274354Y-46170147D01*
X33399853Y-46295646D01*
X33498456Y-46443216D01*
X33566376Y-46607188D01*
X33596073Y-46756488D01*
X33601000Y-46781258D01*
X33601000Y-46958742D01*
X33596073Y-46983512D01*
X33566376Y-47132812D01*
X33498456Y-47296784D01*
X33399853Y-47444354D01*
X33274354Y-47569853D01*
X33126784Y-47668456D01*
X32962812Y-47736376D01*
X32813512Y-47766073D01*
X32788742Y-47771000D01*
X32611258Y-47771000D01*
X32586488Y-47766073D01*
X32437188Y-47736376D01*
X32273216Y-47668456D01*
X32125646Y-47569853D01*
X32000147Y-47444354D01*
X31901544Y-47296784D01*
X31833624Y-47132812D01*
X31803927Y-46983512D01*
X31799000Y-46958742D01*
X31799000Y-46781258D01*
X31803927Y-46756488D01*
X31833624Y-46607188D01*
X31901544Y-46443216D01*
X32000147Y-46295646D01*
X32125646Y-46170147D01*
X32273216Y-46071544D01*
X32437188Y-46003624D01*
X32586488Y-45973927D01*
X32611258Y-45969000D01*
X32788742Y-45969000D01*
X32813512Y-45973927D01*
G37*
G36*
X35353512Y-45973927D02*
G01*
X35502812Y-46003624D01*
X35666784Y-46071544D01*
X35814354Y-46170147D01*
X35939853Y-46295646D01*
X36038456Y-46443216D01*
X36106376Y-46607188D01*
X36136073Y-46756488D01*
X36141000Y-46781258D01*
X36141000Y-46958742D01*
X36136073Y-46983512D01*
X36106376Y-47132812D01*
X36038456Y-47296784D01*
X35939853Y-47444354D01*
X35814354Y-47569853D01*
X35666784Y-47668456D01*
X35502812Y-47736376D01*
X35353512Y-47766073D01*
X35328742Y-47771000D01*
X35151258Y-47771000D01*
X35126488Y-47766073D01*
X34977188Y-47736376D01*
X34813216Y-47668456D01*
X34665646Y-47569853D01*
X34540147Y-47444354D01*
X34441544Y-47296784D01*
X34373624Y-47132812D01*
X34343927Y-46983512D01*
X34339000Y-46958742D01*
X34339000Y-46781258D01*
X34343927Y-46756488D01*
X34373624Y-46607188D01*
X34441544Y-46443216D01*
X34540147Y-46295646D01*
X34665646Y-46170147D01*
X34813216Y-46071544D01*
X34977188Y-46003624D01*
X35126488Y-45973927D01*
X35151258Y-45969000D01*
X35328742Y-45969000D01*
X35353512Y-45973927D01*
G37*
G36*
X27543512Y-44323927D02*
G01*
X27692812Y-44353624D01*
X27856784Y-44421544D01*
X28004354Y-44520147D01*
X28129853Y-44645646D01*
X28228456Y-44793216D01*
X28296376Y-44957188D01*
X28326073Y-45106488D01*
X28330443Y-45128456D01*
X28331000Y-45131259D01*
X28331000Y-45308741D01*
X28296376Y-45482812D01*
X28228456Y-45646784D01*
X28129853Y-45794354D01*
X28004354Y-45919853D01*
X27856784Y-46018456D01*
X27692812Y-46086376D01*
X27543512Y-46116073D01*
X27518742Y-46121000D01*
X27341258Y-46121000D01*
X27316488Y-46116073D01*
X27167188Y-46086376D01*
X27003216Y-46018456D01*
X26855646Y-45919853D01*
X26730147Y-45794354D01*
X26631544Y-45646784D01*
X26563624Y-45482812D01*
X26529000Y-45308741D01*
X26529000Y-45131259D01*
X26529558Y-45128456D01*
X26533927Y-45106488D01*
X26563624Y-44957188D01*
X26631544Y-44793216D01*
X26730147Y-44645646D01*
X26855646Y-44520147D01*
X27003216Y-44421544D01*
X27167188Y-44353624D01*
X27316488Y-44323927D01*
X27341258Y-44319000D01*
X27518742Y-44319000D01*
X27543512Y-44323927D01*
G37*
G36*
X4683512Y-44323927D02*
G01*
X4832812Y-44353624D01*
X4996784Y-44421544D01*
X5144354Y-44520147D01*
X5269853Y-44645646D01*
X5368456Y-44793216D01*
X5436376Y-44957188D01*
X5466073Y-45106488D01*
X5470443Y-45128456D01*
X5471000Y-45131259D01*
X5471000Y-45308741D01*
X5436376Y-45482812D01*
X5368456Y-45646784D01*
X5269853Y-45794354D01*
X5144354Y-45919853D01*
X4996784Y-46018456D01*
X4832812Y-46086376D01*
X4683512Y-46116073D01*
X4658742Y-46121000D01*
X4481258Y-46121000D01*
X4456488Y-46116073D01*
X4307188Y-46086376D01*
X4143216Y-46018456D01*
X3995646Y-45919853D01*
X3870147Y-45794354D01*
X3771544Y-45646784D01*
X3703624Y-45482812D01*
X3669000Y-45308741D01*
X3669000Y-45131259D01*
X3669558Y-45128456D01*
X3673927Y-45106488D01*
X3703624Y-44957188D01*
X3771544Y-44793216D01*
X3870147Y-44645646D01*
X3995646Y-44520147D01*
X4143216Y-44421544D01*
X4307188Y-44353624D01*
X4456488Y-44323927D01*
X4481258Y-44319000D01*
X4658742Y-44319000D01*
X4683512Y-44323927D01*
G37*
G36*
X35353512Y-43433927D02*
G01*
X35502812Y-43463624D01*
X35666784Y-43531544D01*
X35814354Y-43630147D01*
X35939853Y-43755646D01*
X36038456Y-43903216D01*
X36106376Y-44067188D01*
X36136073Y-44216488D01*
X36141000Y-44241258D01*
X36141000Y-44418742D01*
X36136073Y-44443512D01*
X36106376Y-44592812D01*
X36038456Y-44756784D01*
X35939853Y-44904354D01*
X35814354Y-45029853D01*
X35666784Y-45128456D01*
X35502812Y-45196376D01*
X35353512Y-45226073D01*
X35328742Y-45231000D01*
X35151258Y-45231000D01*
X35126488Y-45226073D01*
X34977188Y-45196376D01*
X34813216Y-45128456D01*
X34665646Y-45029853D01*
X34540147Y-44904354D01*
X34441544Y-44756784D01*
X34373624Y-44592812D01*
X34343927Y-44443512D01*
X34339000Y-44418742D01*
X34339000Y-44241258D01*
X34343927Y-44216488D01*
X34373624Y-44067188D01*
X34441544Y-43903216D01*
X34540147Y-43755646D01*
X34665646Y-43630147D01*
X34813216Y-43531544D01*
X34977188Y-43463624D01*
X35126488Y-43433927D01*
X35151258Y-43429000D01*
X35328742Y-43429000D01*
X35353512Y-43433927D01*
G37*
G36*
X32813512Y-43433927D02*
G01*
X32962812Y-43463624D01*
X33126784Y-43531544D01*
X33274354Y-43630147D01*
X33399853Y-43755646D01*
X33498456Y-43903216D01*
X33566376Y-44067188D01*
X33596073Y-44216488D01*
X33601000Y-44241258D01*
X33601000Y-44418742D01*
X33596073Y-44443512D01*
X33566376Y-44592812D01*
X33498456Y-44756784D01*
X33399853Y-44904354D01*
X33274354Y-45029853D01*
X33126784Y-45128456D01*
X32962812Y-45196376D01*
X32813512Y-45226073D01*
X32788742Y-45231000D01*
X32611258Y-45231000D01*
X32586488Y-45226073D01*
X32437188Y-45196376D01*
X32273216Y-45128456D01*
X32125646Y-45029853D01*
X32000147Y-44904354D01*
X31901544Y-44756784D01*
X31833624Y-44592812D01*
X31803927Y-44443512D01*
X31799000Y-44418742D01*
X31799000Y-44241258D01*
X31803927Y-44216488D01*
X31833624Y-44067188D01*
X31901544Y-43903216D01*
X32000147Y-43755646D01*
X32125646Y-43630147D01*
X32273216Y-43531544D01*
X32437188Y-43463624D01*
X32586488Y-43433927D01*
X32611258Y-43429000D01*
X32788742Y-43429000D01*
X32813512Y-43433927D01*
G37*
G36*
X32813512Y-40893927D02*
G01*
X32962812Y-40923624D01*
X33126784Y-40991544D01*
X33274354Y-41090147D01*
X33399853Y-41215646D01*
X33498456Y-41363216D01*
X33566376Y-41527188D01*
X33601000Y-41701259D01*
X33601000Y-41878741D01*
X33566376Y-42052812D01*
X33498456Y-42216784D01*
X33399853Y-42364354D01*
X33274354Y-42489853D01*
X33126784Y-42588456D01*
X32962812Y-42656376D01*
X32813512Y-42686073D01*
X32788742Y-42691000D01*
X32611258Y-42691000D01*
X32586488Y-42686073D01*
X32437188Y-42656376D01*
X32273216Y-42588456D01*
X32125646Y-42489853D01*
X32000147Y-42364354D01*
X31901544Y-42216784D01*
X31833624Y-42052812D01*
X31799000Y-41878741D01*
X31799000Y-41701259D01*
X31833624Y-41527188D01*
X31901544Y-41363216D01*
X32000147Y-41215646D01*
X32125646Y-41090147D01*
X32273216Y-40991544D01*
X32437188Y-40923624D01*
X32586488Y-40893927D01*
X32611258Y-40889000D01*
X32788742Y-40889000D01*
X32813512Y-40893927D01*
G37*
G36*
X35353512Y-40893927D02*
G01*
X35502812Y-40923624D01*
X35666784Y-40991544D01*
X35814354Y-41090147D01*
X35939853Y-41215646D01*
X36038456Y-41363216D01*
X36106376Y-41527188D01*
X36141000Y-41701259D01*
X36141000Y-41878741D01*
X36106376Y-42052812D01*
X36038456Y-42216784D01*
X35939853Y-42364354D01*
X35814354Y-42489853D01*
X35666784Y-42588456D01*
X35502812Y-42656376D01*
X35353512Y-42686073D01*
X35328742Y-42691000D01*
X35151258Y-42691000D01*
X35126488Y-42686073D01*
X34977188Y-42656376D01*
X34813216Y-42588456D01*
X34665646Y-42489853D01*
X34540147Y-42364354D01*
X34441544Y-42216784D01*
X34373624Y-42052812D01*
X34339000Y-41878741D01*
X34339000Y-41701259D01*
X34373624Y-41527188D01*
X34441544Y-41363216D01*
X34540147Y-41215646D01*
X34665646Y-41090147D01*
X34813216Y-40991544D01*
X34977188Y-40923624D01*
X35126488Y-40893927D01*
X35151258Y-40889000D01*
X35328742Y-40889000D01*
X35353512Y-40893927D01*
G37*
G36*
X32813512Y-38353927D02*
G01*
X32962812Y-38383624D01*
X33126784Y-38451544D01*
X33274354Y-38550147D01*
X33399853Y-38675646D01*
X33498456Y-38823216D01*
X33566376Y-38987188D01*
X33601000Y-39161259D01*
X33601000Y-39338741D01*
X33566376Y-39512812D01*
X33498456Y-39676784D01*
X33399853Y-39824354D01*
X33274354Y-39949853D01*
X33126784Y-40048456D01*
X32962812Y-40116376D01*
X32813512Y-40146073D01*
X32788742Y-40151000D01*
X32611258Y-40151000D01*
X32586488Y-40146073D01*
X32437188Y-40116376D01*
X32273216Y-40048456D01*
X32125646Y-39949853D01*
X32000147Y-39824354D01*
X31901544Y-39676784D01*
X31833624Y-39512812D01*
X31799000Y-39338741D01*
X31799000Y-39161259D01*
X31833624Y-38987188D01*
X31901544Y-38823216D01*
X32000147Y-38675646D01*
X32125646Y-38550147D01*
X32273216Y-38451544D01*
X32437188Y-38383624D01*
X32586488Y-38353927D01*
X32611258Y-38349000D01*
X32788742Y-38349000D01*
X32813512Y-38353927D01*
G37*
G36*
X35353512Y-38353927D02*
G01*
X35502812Y-38383624D01*
X35666784Y-38451544D01*
X35814354Y-38550147D01*
X35939853Y-38675646D01*
X36038456Y-38823216D01*
X36106376Y-38987188D01*
X36141000Y-39161259D01*
X36141000Y-39338741D01*
X36106376Y-39512812D01*
X36038456Y-39676784D01*
X35939853Y-39824354D01*
X35814354Y-39949853D01*
X35666784Y-40048456D01*
X35502812Y-40116376D01*
X35353512Y-40146073D01*
X35328742Y-40151000D01*
X35151258Y-40151000D01*
X35126488Y-40146073D01*
X34977188Y-40116376D01*
X34813216Y-40048456D01*
X34665646Y-39949853D01*
X34540147Y-39824354D01*
X34441544Y-39676784D01*
X34373624Y-39512812D01*
X34339000Y-39338741D01*
X34339000Y-39161259D01*
X34373624Y-38987188D01*
X34441544Y-38823216D01*
X34540147Y-38675646D01*
X34665646Y-38550147D01*
X34813216Y-38451544D01*
X34977188Y-38383624D01*
X35126488Y-38353927D01*
X35151258Y-38349000D01*
X35328742Y-38349000D01*
X35353512Y-38353927D01*
G37*
G36*
X35353512Y-35813927D02*
G01*
X35502812Y-35843624D01*
X35666784Y-35911544D01*
X35814354Y-36010147D01*
X35939853Y-36135646D01*
X36038456Y-36283216D01*
X36106376Y-36447188D01*
X36141000Y-36621259D01*
X36141000Y-36798741D01*
X36106376Y-36972812D01*
X36038456Y-37136784D01*
X35939853Y-37284354D01*
X35814354Y-37409853D01*
X35666784Y-37508456D01*
X35502812Y-37576376D01*
X35353512Y-37606073D01*
X35328742Y-37611000D01*
X35151258Y-37611000D01*
X35126488Y-37606073D01*
X34977188Y-37576376D01*
X34813216Y-37508456D01*
X34665646Y-37409853D01*
X34540147Y-37284354D01*
X34441544Y-37136784D01*
X34373624Y-36972812D01*
X34339000Y-36798741D01*
X34339000Y-36621259D01*
X34373624Y-36447188D01*
X34441544Y-36283216D01*
X34540147Y-36135646D01*
X34665646Y-36010147D01*
X34813216Y-35911544D01*
X34977188Y-35843624D01*
X35126488Y-35813927D01*
X35151258Y-35809000D01*
X35328742Y-35809000D01*
X35353512Y-35813927D01*
G37*
G36*
X32813512Y-35813927D02*
G01*
X32962812Y-35843624D01*
X33126784Y-35911544D01*
X33274354Y-36010147D01*
X33399853Y-36135646D01*
X33498456Y-36283216D01*
X33566376Y-36447188D01*
X33601000Y-36621259D01*
X33601000Y-36798741D01*
X33566376Y-36972812D01*
X33498456Y-37136784D01*
X33399853Y-37284354D01*
X33274354Y-37409853D01*
X33126784Y-37508456D01*
X32962812Y-37576376D01*
X32813512Y-37606073D01*
X32788742Y-37611000D01*
X32611258Y-37611000D01*
X32586488Y-37606073D01*
X32437188Y-37576376D01*
X32273216Y-37508456D01*
X32125646Y-37409853D01*
X32000147Y-37284354D01*
X31901544Y-37136784D01*
X31833624Y-36972812D01*
X31799000Y-36798741D01*
X31799000Y-36621259D01*
X31833624Y-36447188D01*
X31901544Y-36283216D01*
X32000147Y-36135646D01*
X32125646Y-36010147D01*
X32273216Y-35911544D01*
X32437188Y-35843624D01*
X32586488Y-35813927D01*
X32611258Y-35809000D01*
X32788742Y-35809000D01*
X32813512Y-35813927D01*
G37*
G36*
X18923512Y-34923926D02*
G01*
X19072812Y-34953623D01*
X19236784Y-35021543D01*
X19384354Y-35120146D01*
X19509853Y-35245645D01*
X19608456Y-35393215D01*
X19676376Y-35557187D01*
X19711000Y-35731258D01*
X19711000Y-35908740D01*
X19676376Y-36082811D01*
X19608456Y-36246783D01*
X19509853Y-36394353D01*
X19384354Y-36519852D01*
X19236784Y-36618455D01*
X19072812Y-36686375D01*
X18923512Y-36716072D01*
X18898742Y-36720999D01*
X18721258Y-36720999D01*
X18696488Y-36716072D01*
X18547188Y-36686375D01*
X18383216Y-36618455D01*
X18235646Y-36519852D01*
X18110147Y-36394353D01*
X18011544Y-36246783D01*
X17943624Y-36082811D01*
X17909000Y-35908740D01*
X17909000Y-35731258D01*
X17943624Y-35557187D01*
X18011544Y-35393215D01*
X18110147Y-35245645D01*
X18235646Y-35120146D01*
X18383216Y-35021543D01*
X18547188Y-34953623D01*
X18696488Y-34923926D01*
X18721258Y-34918999D01*
X18898742Y-34918999D01*
X18923512Y-34923926D01*
G37*
G36*
X16383512Y-34923926D02*
G01*
X16532812Y-34953623D01*
X16696784Y-35021543D01*
X16844354Y-35120146D01*
X16969853Y-35245645D01*
X17068456Y-35393215D01*
X17136376Y-35557187D01*
X17171000Y-35731258D01*
X17171000Y-35908740D01*
X17136376Y-36082811D01*
X17068456Y-36246783D01*
X16969853Y-36394353D01*
X16844354Y-36519852D01*
X16696784Y-36618455D01*
X16532812Y-36686375D01*
X16383512Y-36716072D01*
X16358742Y-36720999D01*
X16181258Y-36720999D01*
X16156488Y-36716072D01*
X16007188Y-36686375D01*
X15843216Y-36618455D01*
X15695646Y-36519852D01*
X15570147Y-36394353D01*
X15471544Y-36246783D01*
X15403624Y-36082811D01*
X15369000Y-35908740D01*
X15369000Y-35731258D01*
X15403624Y-35557187D01*
X15471544Y-35393215D01*
X15570147Y-35245645D01*
X15695646Y-35120146D01*
X15843216Y-35021543D01*
X16007188Y-34953623D01*
X16156488Y-34923926D01*
X16181258Y-34918999D01*
X16358742Y-34918999D01*
X16383512Y-34923926D01*
G37*
G36*
X13843512Y-34923926D02*
G01*
X13992812Y-34953623D01*
X14156784Y-35021543D01*
X14304354Y-35120146D01*
X14429853Y-35245645D01*
X14528456Y-35393215D01*
X14596376Y-35557187D01*
X14631000Y-35731258D01*
X14631000Y-35908740D01*
X14596376Y-36082811D01*
X14528456Y-36246783D01*
X14429853Y-36394353D01*
X14304354Y-36519852D01*
X14156784Y-36618455D01*
X13992812Y-36686375D01*
X13843512Y-36716072D01*
X13818742Y-36720999D01*
X13641258Y-36720999D01*
X13616488Y-36716072D01*
X13467188Y-36686375D01*
X13303216Y-36618455D01*
X13155646Y-36519852D01*
X13030147Y-36394353D01*
X12931544Y-36246783D01*
X12863624Y-36082811D01*
X12829000Y-35908740D01*
X12829000Y-35731258D01*
X12863624Y-35557187D01*
X12931544Y-35393215D01*
X13030147Y-35245645D01*
X13155646Y-35120146D01*
X13303216Y-35021543D01*
X13467188Y-34953623D01*
X13616488Y-34923926D01*
X13641258Y-34918999D01*
X13818742Y-34918999D01*
X13843512Y-34923926D01*
G37*
G36*
X11303512Y-34923926D02*
G01*
X11452812Y-34953623D01*
X11616784Y-35021543D01*
X11764354Y-35120146D01*
X11889853Y-35245645D01*
X11988456Y-35393215D01*
X12056376Y-35557187D01*
X12091000Y-35731258D01*
X12091000Y-35908740D01*
X12056376Y-36082811D01*
X11988456Y-36246783D01*
X11889853Y-36394353D01*
X11764354Y-36519852D01*
X11616784Y-36618455D01*
X11452812Y-36686375D01*
X11303512Y-36716072D01*
X11278742Y-36720999D01*
X11101258Y-36720999D01*
X11076488Y-36716072D01*
X10927188Y-36686375D01*
X10763216Y-36618455D01*
X10615646Y-36519852D01*
X10490147Y-36394353D01*
X10391544Y-36246783D01*
X10323624Y-36082811D01*
X10289000Y-35908740D01*
X10289000Y-35731258D01*
X10323624Y-35557187D01*
X10391544Y-35393215D01*
X10490147Y-35245645D01*
X10615646Y-35120146D01*
X10763216Y-35021543D01*
X10927188Y-34953623D01*
X11076488Y-34923926D01*
X11101258Y-34918999D01*
X11278742Y-34918999D01*
X11303512Y-34923926D01*
G37*
G36*
X35353512Y-33273927D02*
G01*
X35502812Y-33303624D01*
X35666784Y-33371544D01*
X35814354Y-33470147D01*
X35939853Y-33595646D01*
X36038456Y-33743216D01*
X36106376Y-33907188D01*
X36141000Y-34081259D01*
X36141000Y-34258741D01*
X36106376Y-34432812D01*
X36038456Y-34596784D01*
X35939853Y-34744354D01*
X35814354Y-34869853D01*
X35666784Y-34968456D01*
X35502812Y-35036376D01*
X35353512Y-35066073D01*
X35328742Y-35071000D01*
X35151258Y-35071000D01*
X35126488Y-35066073D01*
X34977188Y-35036376D01*
X34813216Y-34968456D01*
X34665646Y-34869853D01*
X34540147Y-34744354D01*
X34441544Y-34596784D01*
X34373624Y-34432812D01*
X34339000Y-34258741D01*
X34339000Y-34081259D01*
X34373624Y-33907188D01*
X34441544Y-33743216D01*
X34540147Y-33595646D01*
X34665646Y-33470147D01*
X34813216Y-33371544D01*
X34977188Y-33303624D01*
X35126488Y-33273927D01*
X35151258Y-33269000D01*
X35328742Y-33269000D01*
X35353512Y-33273927D01*
G37*
G36*
X32813512Y-33273927D02*
G01*
X32962812Y-33303624D01*
X33126784Y-33371544D01*
X33274354Y-33470147D01*
X33399853Y-33595646D01*
X33498456Y-33743216D01*
X33566376Y-33907188D01*
X33601000Y-34081259D01*
X33601000Y-34258741D01*
X33566376Y-34432812D01*
X33498456Y-34596784D01*
X33399853Y-34744354D01*
X33274354Y-34869853D01*
X33126784Y-34968456D01*
X32962812Y-35036376D01*
X32813512Y-35066073D01*
X32788742Y-35071000D01*
X32611258Y-35071000D01*
X32586488Y-35066073D01*
X32437188Y-35036376D01*
X32273216Y-34968456D01*
X32125646Y-34869853D01*
X32000147Y-34744354D01*
X31901544Y-34596784D01*
X31833624Y-34432812D01*
X31799000Y-34258741D01*
X31799000Y-34081259D01*
X31833624Y-33907188D01*
X31901544Y-33743216D01*
X32000147Y-33595646D01*
X32125646Y-33470147D01*
X32273216Y-33371544D01*
X32437188Y-33303624D01*
X32586488Y-33273927D01*
X32611258Y-33269000D01*
X32788742Y-33269000D01*
X32813512Y-33273927D01*
G37*
G36*
X35353512Y-30733927D02*
G01*
X35502812Y-30763624D01*
X35666784Y-30831544D01*
X35814354Y-30930147D01*
X35939853Y-31055646D01*
X36038456Y-31203216D01*
X36106376Y-31367188D01*
X36141000Y-31541259D01*
X36141000Y-31718741D01*
X36106376Y-31892812D01*
X36038456Y-32056784D01*
X35939853Y-32204354D01*
X35814354Y-32329853D01*
X35666784Y-32428456D01*
X35502812Y-32496376D01*
X35353512Y-32526073D01*
X35328742Y-32531000D01*
X35151258Y-32531000D01*
X35126488Y-32526073D01*
X34977188Y-32496376D01*
X34813216Y-32428456D01*
X34665646Y-32329853D01*
X34540147Y-32204354D01*
X34441544Y-32056784D01*
X34373624Y-31892812D01*
X34339000Y-31718741D01*
X34339000Y-31541259D01*
X34373624Y-31367188D01*
X34441544Y-31203216D01*
X34540147Y-31055646D01*
X34665646Y-30930147D01*
X34813216Y-30831544D01*
X34977188Y-30763624D01*
X35126488Y-30733927D01*
X35151258Y-30729000D01*
X35328742Y-30729000D01*
X35353512Y-30733927D01*
G37*
G36*
X32813512Y-30733927D02*
G01*
X32962812Y-30763624D01*
X33126784Y-30831544D01*
X33274354Y-30930147D01*
X33399853Y-31055646D01*
X33498456Y-31203216D01*
X33566376Y-31367188D01*
X33601000Y-31541259D01*
X33601000Y-31718741D01*
X33566376Y-31892812D01*
X33498456Y-32056784D01*
X33399853Y-32204354D01*
X33274354Y-32329853D01*
X33126784Y-32428456D01*
X32962812Y-32496376D01*
X32813512Y-32526073D01*
X32788742Y-32531000D01*
X32611258Y-32531000D01*
X32586488Y-32526073D01*
X32437188Y-32496376D01*
X32273216Y-32428456D01*
X32125646Y-32329853D01*
X32000147Y-32204354D01*
X31901544Y-32056784D01*
X31833624Y-31892812D01*
X31799000Y-31718741D01*
X31799000Y-31541259D01*
X31833624Y-31367188D01*
X31901544Y-31203216D01*
X32000147Y-31055646D01*
X32125646Y-30930147D01*
X32273216Y-30831544D01*
X32437188Y-30763624D01*
X32586488Y-30733927D01*
X32611258Y-30729000D01*
X32788742Y-30729000D01*
X32813512Y-30733927D01*
G37*
G36*
X27613512Y-26233926D02*
G01*
X27762812Y-26263623D01*
X27926784Y-26331543D01*
X28074354Y-26430146D01*
X28199853Y-26555645D01*
X28298456Y-26703215D01*
X28366376Y-26867187D01*
X28401000Y-27041258D01*
X28401000Y-27218740D01*
X28366376Y-27392811D01*
X28298456Y-27556783D01*
X28199853Y-27704353D01*
X28074354Y-27829852D01*
X27926784Y-27928455D01*
X27762812Y-27996375D01*
X27613512Y-28026072D01*
X27588742Y-28030999D01*
X27411258Y-28030999D01*
X27386488Y-28026072D01*
X27237188Y-27996375D01*
X27073216Y-27928455D01*
X26925646Y-27829852D01*
X26800147Y-27704353D01*
X26701544Y-27556783D01*
X26633624Y-27392811D01*
X26599000Y-27218740D01*
X26599000Y-27041258D01*
X26633624Y-26867187D01*
X26701544Y-26703215D01*
X26800147Y-26555645D01*
X26925646Y-26430146D01*
X27073216Y-26331543D01*
X27237188Y-26263623D01*
X27386488Y-26233926D01*
X27411258Y-26228999D01*
X27588742Y-26228999D01*
X27613512Y-26233926D01*
G37*
G36*
X27613512Y-23693926D02*
G01*
X27762812Y-23723623D01*
X27926784Y-23791543D01*
X28074354Y-23890146D01*
X28199853Y-24015645D01*
X28298456Y-24163215D01*
X28366376Y-24327187D01*
X28401000Y-24501258D01*
X28401000Y-24678740D01*
X28366376Y-24852811D01*
X28298456Y-25016783D01*
X28199853Y-25164353D01*
X28074354Y-25289852D01*
X27926784Y-25388455D01*
X27762812Y-25456375D01*
X27613512Y-25486072D01*
X27588742Y-25490999D01*
X27411258Y-25490999D01*
X27386488Y-25486072D01*
X27237188Y-25456375D01*
X27073216Y-25388455D01*
X26925646Y-25289852D01*
X26800147Y-25164353D01*
X26701544Y-25016783D01*
X26633624Y-24852811D01*
X26599000Y-24678740D01*
X26599000Y-24501258D01*
X26633624Y-24327187D01*
X26701544Y-24163215D01*
X26800147Y-24015645D01*
X26925646Y-23890146D01*
X27073216Y-23791543D01*
X27237188Y-23723623D01*
X27386488Y-23693926D01*
X27411258Y-23688999D01*
X27588742Y-23688999D01*
X27613512Y-23693926D01*
G37*
G36*
X27613512Y-21153926D02*
G01*
X27762812Y-21183623D01*
X27926784Y-21251543D01*
X28074354Y-21350146D01*
X28199853Y-21475645D01*
X28298456Y-21623215D01*
X28366376Y-21787187D01*
X28401000Y-21961258D01*
X28401000Y-22138740D01*
X28366376Y-22312811D01*
X28298456Y-22476783D01*
X28199853Y-22624353D01*
X28074354Y-22749852D01*
X27926784Y-22848455D01*
X27762812Y-22916375D01*
X27613512Y-22946072D01*
X27588742Y-22950999D01*
X27411258Y-22950999D01*
X27386488Y-22946072D01*
X27237188Y-22916375D01*
X27073216Y-22848455D01*
X26925646Y-22749852D01*
X26800147Y-22624353D01*
X26701544Y-22476783D01*
X26633624Y-22312811D01*
X26599000Y-22138740D01*
X26599000Y-21961258D01*
X26633624Y-21787187D01*
X26701544Y-21623215D01*
X26800147Y-21475645D01*
X26925646Y-21350146D01*
X27073216Y-21251543D01*
X27237188Y-21183623D01*
X27386488Y-21153926D01*
X27411258Y-21148999D01*
X27588742Y-21148999D01*
X27613512Y-21153926D01*
G37*
G36*
X27613512Y-18613926D02*
G01*
X27762812Y-18643623D01*
X27926784Y-18711543D01*
X28074354Y-18810146D01*
X28199853Y-18935645D01*
X28298456Y-19083215D01*
X28366376Y-19247187D01*
X28401000Y-19421258D01*
X28401000Y-19598740D01*
X28366376Y-19772811D01*
X28298456Y-19936783D01*
X28199853Y-20084353D01*
X28074354Y-20209852D01*
X27926784Y-20308455D01*
X27762812Y-20376375D01*
X27613512Y-20406072D01*
X27588742Y-20410999D01*
X27411258Y-20410999D01*
X27386488Y-20406072D01*
X27237188Y-20376375D01*
X27073216Y-20308455D01*
X26925646Y-20209852D01*
X26800147Y-20084353D01*
X26701544Y-19936783D01*
X26633624Y-19772811D01*
X26599000Y-19598740D01*
X26599000Y-19421258D01*
X26633624Y-19247187D01*
X26701544Y-19083215D01*
X26800147Y-18935645D01*
X26925646Y-18810146D01*
X27073216Y-18711543D01*
X27237188Y-18643623D01*
X27386488Y-18613926D01*
X27411258Y-18608999D01*
X27588742Y-18608999D01*
X27613512Y-18613926D01*
G37*
G36*
X53423512Y-10603927D02*
G01*
X53572812Y-10633624D01*
X53736784Y-10701544D01*
X53884354Y-10800147D01*
X54009853Y-10925646D01*
X54108456Y-11073216D01*
X54176376Y-11237188D01*
X54211000Y-11411259D01*
X54211000Y-11588741D01*
X54176376Y-11762812D01*
X54108456Y-11926784D01*
X54009853Y-12074354D01*
X53884354Y-12199853D01*
X53736784Y-12298456D01*
X53572812Y-12366376D01*
X53423512Y-12396073D01*
X53398742Y-12401000D01*
X53221258Y-12401000D01*
X53196488Y-12396073D01*
X53047188Y-12366376D01*
X52883216Y-12298456D01*
X52735646Y-12199853D01*
X52610147Y-12074354D01*
X52511544Y-11926784D01*
X52443624Y-11762812D01*
X52409000Y-11588741D01*
X52409000Y-11411259D01*
X52443624Y-11237188D01*
X52511544Y-11073216D01*
X52610147Y-10925646D01*
X52735646Y-10800147D01*
X52883216Y-10701544D01*
X53047188Y-10633624D01*
X53196488Y-10603927D01*
X53221258Y-10599000D01*
X53398742Y-10599000D01*
X53423512Y-10603927D01*
G37*
G36*
X45803512Y-10603927D02*
G01*
X45952812Y-10633624D01*
X46116784Y-10701544D01*
X46264354Y-10800147D01*
X46389853Y-10925646D01*
X46488456Y-11073216D01*
X46556376Y-11237188D01*
X46591000Y-11411259D01*
X46591000Y-11588741D01*
X46556376Y-11762812D01*
X46488456Y-11926784D01*
X46389853Y-12074354D01*
X46264354Y-12199853D01*
X46116784Y-12298456D01*
X45952812Y-12366376D01*
X45803512Y-12396073D01*
X45778742Y-12401000D01*
X45601258Y-12401000D01*
X45576488Y-12396073D01*
X45427188Y-12366376D01*
X45263216Y-12298456D01*
X45115646Y-12199853D01*
X44990147Y-12074354D01*
X44891544Y-11926784D01*
X44823624Y-11762812D01*
X44789000Y-11588741D01*
X44789000Y-11411259D01*
X44823624Y-11237188D01*
X44891544Y-11073216D01*
X44990147Y-10925646D01*
X45115646Y-10800147D01*
X45263216Y-10701544D01*
X45427188Y-10633624D01*
X45576488Y-10603927D01*
X45601258Y-10599000D01*
X45778742Y-10599000D01*
X45803512Y-10603927D01*
G37*
G36*
X50883512Y-10603927D02*
G01*
X51032812Y-10633624D01*
X51196784Y-10701544D01*
X51344354Y-10800147D01*
X51469853Y-10925646D01*
X51568456Y-11073216D01*
X51636376Y-11237188D01*
X51671000Y-11411259D01*
X51671000Y-11588741D01*
X51636376Y-11762812D01*
X51568456Y-11926784D01*
X51469853Y-12074354D01*
X51344354Y-12199853D01*
X51196784Y-12298456D01*
X51032812Y-12366376D01*
X50883512Y-12396073D01*
X50858742Y-12401000D01*
X50681258Y-12401000D01*
X50656488Y-12396073D01*
X50507188Y-12366376D01*
X50343216Y-12298456D01*
X50195646Y-12199853D01*
X50070147Y-12074354D01*
X49971544Y-11926784D01*
X49903624Y-11762812D01*
X49869000Y-11588741D01*
X49869000Y-11411259D01*
X49903624Y-11237188D01*
X49971544Y-11073216D01*
X50070147Y-10925646D01*
X50195646Y-10800147D01*
X50343216Y-10701544D01*
X50507188Y-10633624D01*
X50656488Y-10603927D01*
X50681258Y-10599000D01*
X50858742Y-10599000D01*
X50883512Y-10603927D01*
G37*
G36*
X48343512Y-10603927D02*
G01*
X48492812Y-10633624D01*
X48656784Y-10701544D01*
X48804354Y-10800147D01*
X48929853Y-10925646D01*
X49028456Y-11073216D01*
X49096376Y-11237188D01*
X49131000Y-11411259D01*
X49131000Y-11588741D01*
X49096376Y-11762812D01*
X49028456Y-11926784D01*
X48929853Y-12074354D01*
X48804354Y-12199853D01*
X48656784Y-12298456D01*
X48492812Y-12366376D01*
X48343512Y-12396073D01*
X48318742Y-12401000D01*
X48141258Y-12401000D01*
X48116488Y-12396073D01*
X47967188Y-12366376D01*
X47803216Y-12298456D01*
X47655646Y-12199853D01*
X47530147Y-12074354D01*
X47431544Y-11926784D01*
X47363624Y-11762812D01*
X47329000Y-11588741D01*
X47329000Y-11411259D01*
X47363624Y-11237188D01*
X47431544Y-11073216D01*
X47530147Y-10925646D01*
X47655646Y-10800147D01*
X47803216Y-10701544D01*
X47967188Y-10633624D01*
X48116488Y-10603927D01*
X48141258Y-10599000D01*
X48318742Y-10599000D01*
X48343512Y-10603927D01*
G37*
G36*
X39306564Y-6989389D02*
G01*
X39497833Y-7068615D01*
X39497835Y-7068616D01*
X39503486Y-7072392D01*
X39669973Y-7183635D01*
X39816365Y-7330027D01*
X39931385Y-7502167D01*
X40010611Y-7693436D01*
X40051000Y-7896484D01*
X40051000Y-8103516D01*
X40010611Y-8306564D01*
X39931385Y-8497833D01*
X39931384Y-8497835D01*
X39816365Y-8669973D01*
X39669973Y-8816365D01*
X39497835Y-8931384D01*
X39497834Y-8931385D01*
X39497833Y-8931385D01*
X39306564Y-9010611D01*
X39103516Y-9051000D01*
X38896484Y-9051000D01*
X38693436Y-9010611D01*
X38502167Y-8931385D01*
X38502166Y-8931385D01*
X38502165Y-8931384D01*
X38330027Y-8816365D01*
X38183635Y-8669973D01*
X38068616Y-8497835D01*
X38068615Y-8497833D01*
X37989389Y-8306564D01*
X37949000Y-8103516D01*
X37949000Y-7896484D01*
X37989389Y-7693436D01*
X38068615Y-7502167D01*
X38183635Y-7330027D01*
X38330027Y-7183635D01*
X38496514Y-7072392D01*
X38502165Y-7068616D01*
X38502167Y-7068615D01*
X38693436Y-6989389D01*
X38896484Y-6949000D01*
X39103516Y-6949000D01*
X39306564Y-6989389D01*
G37*
G36*
X32806564Y-6989389D02*
G01*
X32997833Y-7068615D01*
X32997835Y-7068616D01*
X33003486Y-7072392D01*
X33169973Y-7183635D01*
X33316365Y-7330027D01*
X33431385Y-7502167D01*
X33510611Y-7693436D01*
X33551000Y-7896484D01*
X33551000Y-8103516D01*
X33510611Y-8306564D01*
X33431385Y-8497833D01*
X33431384Y-8497835D01*
X33316365Y-8669973D01*
X33169973Y-8816365D01*
X32997835Y-8931384D01*
X32997834Y-8931385D01*
X32997833Y-8931385D01*
X32806564Y-9010611D01*
X32603516Y-9051000D01*
X32396484Y-9051000D01*
X32193436Y-9010611D01*
X32002167Y-8931385D01*
X32002166Y-8931385D01*
X32002165Y-8931384D01*
X31830027Y-8816365D01*
X31683635Y-8669973D01*
X31568616Y-8497835D01*
X31568615Y-8497833D01*
X31489389Y-8306564D01*
X31449000Y-8103516D01*
X31449000Y-7896484D01*
X31489389Y-7693436D01*
X31568615Y-7502167D01*
X31683635Y-7330027D01*
X31830027Y-7183635D01*
X31996514Y-7072392D01*
X32002165Y-7068616D01*
X32002167Y-7068615D01*
X32193436Y-6989389D01*
X32396484Y-6949000D01*
X32603516Y-6949000D01*
X32806564Y-6989389D01*
G37*
G36*
X5634239Y-1811467D02*
G01*
X5948282Y-1873934D01*
X6539926Y-2119001D01*
X6966477Y-2404014D01*
X7072391Y-2474783D01*
X7525217Y-2927609D01*
X7575035Y-3002167D01*
X7880999Y-3460074D01*
X8126066Y-4051718D01*
X8188533Y-4365761D01*
X8217346Y-4510611D01*
X8251000Y-4679804D01*
X8251000Y-5320196D01*
X8126066Y-5948282D01*
X7880999Y-6539926D01*
X7525216Y-7072392D01*
X7072392Y-7525216D01*
X6539926Y-7880999D01*
X5948282Y-8126066D01*
X5634239Y-8188533D01*
X5320197Y-8251000D01*
X4679803Y-8251000D01*
X4365761Y-8188533D01*
X4051718Y-8126066D01*
X3460074Y-7880999D01*
X2927608Y-7525216D01*
X2474784Y-7072392D01*
X2119001Y-6539926D01*
X1873934Y-5948282D01*
X1749000Y-5320196D01*
X1749000Y-4679804D01*
X1782655Y-4510611D01*
X1811467Y-4365761D01*
X1873934Y-4051718D01*
X2119001Y-3460074D01*
X2424965Y-3002167D01*
X2474783Y-2927609D01*
X2927609Y-2474783D01*
X3033523Y-2404014D01*
X3460074Y-2119001D01*
X4051718Y-1873934D01*
X4365761Y-1811467D01*
X4679803Y-1749000D01*
X5320197Y-1749000D01*
X5634239Y-1811467D01*
G37*
G36*
X60634239Y-1811467D02*
G01*
X60948282Y-1873934D01*
X61539926Y-2119001D01*
X61966477Y-2404014D01*
X62072391Y-2474783D01*
X62525217Y-2927609D01*
X62575035Y-3002167D01*
X62880999Y-3460074D01*
X63126066Y-4051718D01*
X63188533Y-4365761D01*
X63217346Y-4510611D01*
X63251000Y-4679804D01*
X63251000Y-5320196D01*
X63126066Y-5948282D01*
X62880999Y-6539926D01*
X62525216Y-7072392D01*
X62072392Y-7525216D01*
X61539926Y-7880999D01*
X60948282Y-8126066D01*
X60634239Y-8188533D01*
X60320197Y-8251000D01*
X59679803Y-8251000D01*
X59365761Y-8188533D01*
X59051718Y-8126066D01*
X58460074Y-7880999D01*
X57927608Y-7525216D01*
X57474784Y-7072392D01*
X57119001Y-6539926D01*
X56873934Y-5948282D01*
X56749000Y-5320196D01*
X56749000Y-4679804D01*
X56782655Y-4510611D01*
X56811467Y-4365761D01*
X56873934Y-4051718D01*
X57119001Y-3460074D01*
X57424965Y-3002167D01*
X57474783Y-2927609D01*
X57927609Y-2474783D01*
X58033523Y-2404014D01*
X58460074Y-2119001D01*
X59051718Y-1873934D01*
X59365761Y-1811467D01*
X59679803Y-1749000D01*
X60320197Y-1749000D01*
X60634239Y-1811467D01*
G37*
G36*
X22951000Y-5951000D02*
G01*
X21049000Y-5951000D01*
X21049000Y-4049000D01*
X22951000Y-4049000D01*
X22951000Y-5951000D01*
G37*
G36*
X28951000Y-5951000D02*
G01*
X27049000Y-5951000D01*
X27049000Y-4049000D01*
X28951000Y-4049000D01*
X28951000Y-5951000D01*
G37*
G36*
X25737395Y-4085546D02*
G01*
X25910466Y-4157234D01*
X25910467Y-4157235D01*
X26066227Y-4261310D01*
X26198690Y-4393773D01*
X26198691Y-4393775D01*
X26302766Y-4549534D01*
X26374454Y-4722605D01*
X26411000Y-4906333D01*
X26411000Y-5093667D01*
X26374454Y-5277395D01*
X26302766Y-5450466D01*
X26302765Y-5450467D01*
X26198690Y-5606227D01*
X26066227Y-5738690D01*
X25987818Y-5791081D01*
X25910466Y-5842766D01*
X25737395Y-5914454D01*
X25553667Y-5951000D01*
X25366333Y-5951000D01*
X25182605Y-5914454D01*
X25009534Y-5842766D01*
X24932182Y-5791081D01*
X24853773Y-5738690D01*
X24721310Y-5606227D01*
X24617235Y-5450467D01*
X24617234Y-5450466D01*
X24545546Y-5277395D01*
X24509000Y-5093667D01*
X24509000Y-4906333D01*
X24545546Y-4722605D01*
X24617234Y-4549534D01*
X24721309Y-4393775D01*
X24721310Y-4393773D01*
X24853773Y-4261310D01*
X25009533Y-4157235D01*
X25009534Y-4157234D01*
X25182605Y-4085546D01*
X25366333Y-4049000D01*
X25553667Y-4049000D01*
X25737395Y-4085546D01*
G37*
G36*
X13737395Y-4085546D02*
G01*
X13910466Y-4157234D01*
X13910467Y-4157235D01*
X14066227Y-4261310D01*
X14198690Y-4393773D01*
X14198691Y-4393775D01*
X14302766Y-4549534D01*
X14374454Y-4722605D01*
X14411000Y-4906333D01*
X14411000Y-5093667D01*
X14374454Y-5277395D01*
X14302766Y-5450466D01*
X14302765Y-5450467D01*
X14198690Y-5606227D01*
X14066227Y-5738690D01*
X13987818Y-5791081D01*
X13910466Y-5842766D01*
X13737395Y-5914454D01*
X13553667Y-5951000D01*
X13366333Y-5951000D01*
X13182605Y-5914454D01*
X13009534Y-5842766D01*
X12932182Y-5791081D01*
X12853773Y-5738690D01*
X12721310Y-5606227D01*
X12617235Y-5450467D01*
X12617234Y-5450466D01*
X12545546Y-5277395D01*
X12509000Y-5093667D01*
X12509000Y-4906333D01*
X12545546Y-4722605D01*
X12617234Y-4549534D01*
X12721309Y-4393775D01*
X12721310Y-4393773D01*
X12853773Y-4261310D01*
X13009533Y-4157235D01*
X13009534Y-4157234D01*
X13182605Y-4085546D01*
X13366333Y-4049000D01*
X13553667Y-4049000D01*
X13737395Y-4085546D01*
G37*
G36*
X19737395Y-4085546D02*
G01*
X19910466Y-4157234D01*
X19910467Y-4157235D01*
X20066227Y-4261310D01*
X20198690Y-4393773D01*
X20198691Y-4393775D01*
X20302766Y-4549534D01*
X20374454Y-4722605D01*
X20411000Y-4906333D01*
X20411000Y-5093667D01*
X20374454Y-5277395D01*
X20302766Y-5450466D01*
X20302765Y-5450467D01*
X20198690Y-5606227D01*
X20066227Y-5738690D01*
X19987818Y-5791081D01*
X19910466Y-5842766D01*
X19737395Y-5914454D01*
X19553667Y-5951000D01*
X19366333Y-5951000D01*
X19182605Y-5914454D01*
X19009534Y-5842766D01*
X18932182Y-5791081D01*
X18853773Y-5738690D01*
X18721310Y-5606227D01*
X18617235Y-5450467D01*
X18617234Y-5450466D01*
X18545546Y-5277395D01*
X18509000Y-5093667D01*
X18509000Y-4906333D01*
X18545546Y-4722605D01*
X18617234Y-4549534D01*
X18721309Y-4393775D01*
X18721310Y-4393773D01*
X18853773Y-4261310D01*
X19009533Y-4157235D01*
X19009534Y-4157234D01*
X19182605Y-4085546D01*
X19366333Y-4049000D01*
X19553667Y-4049000D01*
X19737395Y-4085546D01*
G37*
G36*
X16951000Y-5951000D02*
G01*
X15049000Y-5951000D01*
X15049000Y-4049000D01*
X16951000Y-4049000D01*
X16951000Y-5951000D01*
G37*
G36*
X32806564Y-2489389D02*
G01*
X32997833Y-2568615D01*
X32997835Y-2568616D01*
X33169973Y-2683635D01*
X33316365Y-2830027D01*
X33381567Y-2927608D01*
X33431385Y-3002167D01*
X33510611Y-3193436D01*
X33551000Y-3396484D01*
X33551000Y-3603516D01*
X33510611Y-3806564D01*
X33431385Y-3997833D01*
X33431384Y-3997835D01*
X33316365Y-4169973D01*
X33169973Y-4316365D01*
X32997835Y-4431384D01*
X32997834Y-4431385D01*
X32997833Y-4431385D01*
X32806564Y-4510611D01*
X32603516Y-4551000D01*
X32396484Y-4551000D01*
X32193436Y-4510611D01*
X32002167Y-4431385D01*
X32002166Y-4431385D01*
X32002165Y-4431384D01*
X31830027Y-4316365D01*
X31683635Y-4169973D01*
X31568616Y-3997835D01*
X31568615Y-3997833D01*
X31489389Y-3806564D01*
X31449000Y-3603516D01*
X31449000Y-3396484D01*
X31489389Y-3193436D01*
X31568615Y-3002167D01*
X31618434Y-2927608D01*
X31683635Y-2830027D01*
X31830027Y-2683635D01*
X32002165Y-2568616D01*
X32002167Y-2568615D01*
X32193436Y-2489389D01*
X32396484Y-2449000D01*
X32603516Y-2449000D01*
X32806564Y-2489389D01*
G37*
G36*
X39306564Y-2489389D02*
G01*
X39497833Y-2568615D01*
X39497835Y-2568616D01*
X39669973Y-2683635D01*
X39816365Y-2830027D01*
X39881567Y-2927608D01*
X39931385Y-3002167D01*
X40010611Y-3193436D01*
X40051000Y-3396484D01*
X40051000Y-3603516D01*
X40010611Y-3806564D01*
X39931385Y-3997833D01*
X39931384Y-3997835D01*
X39816365Y-4169973D01*
X39669973Y-4316365D01*
X39497835Y-4431384D01*
X39497834Y-4431385D01*
X39497833Y-4431385D01*
X39306564Y-4510611D01*
X39103516Y-4551000D01*
X38896484Y-4551000D01*
X38693436Y-4510611D01*
X38502167Y-4431385D01*
X38502166Y-4431385D01*
X38502165Y-4431384D01*
X38330027Y-4316365D01*
X38183635Y-4169973D01*
X38068616Y-3997835D01*
X38068615Y-3997833D01*
X37989389Y-3806564D01*
X37949000Y-3603516D01*
X37949000Y-3396484D01*
X37989389Y-3193436D01*
X38068615Y-3002167D01*
X38118434Y-2927608D01*
X38183635Y-2830027D01*
X38330027Y-2683635D01*
X38502165Y-2568616D01*
X38502167Y-2568615D01*
X38693436Y-2489389D01*
X38896484Y-2449000D01*
X39103516Y-2449000D01*
X39306564Y-2489389D01*
G37*
M02*
