G04 #@! TF.GenerationSoftware,KiCad,Pcbnew,5.1.6+dfsg1-1*
G04 #@! TF.CreationDate,2020-12-01T22:33:45+01:00*
G04 #@! TF.ProjectId,sensorbox,73656e73-6f72-4626-9f78-2e6b69636164,rev?*
G04 #@! TF.SameCoordinates,Original*
G04 #@! TF.FileFunction,Legend,Bot*
G04 #@! TF.FilePolarity,Positive*
%FSLAX46Y46*%
G04 Gerber Fmt 4.6, Leading zero omitted, Abs format (unit mm)*
G04 Created by KiCad (PCBNEW 5.1.6+dfsg1-1) date 2020-12-01 22:33:45*
%MOMM*%
%LPD*%
G01*
G04 APERTURE LIST*
%ADD10C,0.150000*%
%ADD11C,0.120000*%
G04 APERTURE END LIST*
D10*
X27880952Y-77452380D02*
X27880952Y-78166666D01*
X27833333Y-78309523D01*
X27738095Y-78404761D01*
X27595238Y-78452380D01*
X27500000Y-78452380D01*
X28833333Y-78452380D02*
X28357142Y-78452380D01*
X28357142Y-77452380D01*
X29738095Y-78357142D02*
X29690476Y-78404761D01*
X29547619Y-78452380D01*
X29452380Y-78452380D01*
X29309523Y-78404761D01*
X29214285Y-78309523D01*
X29166666Y-78214285D01*
X29119047Y-78023809D01*
X29119047Y-77880952D01*
X29166666Y-77690476D01*
X29214285Y-77595238D01*
X29309523Y-77500000D01*
X29452380Y-77452380D01*
X29547619Y-77452380D01*
X29690476Y-77500000D01*
X29738095Y-77547619D01*
X30452380Y-77452380D02*
X30452380Y-78166666D01*
X30404761Y-78309523D01*
X30309523Y-78404761D01*
X30166666Y-78452380D01*
X30071428Y-78452380D01*
X31404761Y-78452380D02*
X30928571Y-78452380D01*
X30928571Y-77452380D01*
X32309523Y-78357142D02*
X32261904Y-78404761D01*
X32119047Y-78452380D01*
X32023809Y-78452380D01*
X31880952Y-78404761D01*
X31785714Y-78309523D01*
X31738095Y-78214285D01*
X31690476Y-78023809D01*
X31690476Y-77880952D01*
X31738095Y-77690476D01*
X31785714Y-77595238D01*
X31880952Y-77500000D01*
X32023809Y-77452380D01*
X32119047Y-77452380D01*
X32261904Y-77500000D01*
X32309523Y-77547619D01*
X33023809Y-77452380D02*
X33023809Y-78166666D01*
X32976190Y-78309523D01*
X32880952Y-78404761D01*
X32738095Y-78452380D01*
X32642857Y-78452380D01*
X33976190Y-78452380D02*
X33500000Y-78452380D01*
X33500000Y-77452380D01*
X34880952Y-78357142D02*
X34833333Y-78404761D01*
X34690476Y-78452380D01*
X34595238Y-78452380D01*
X34452380Y-78404761D01*
X34357142Y-78309523D01*
X34309523Y-78214285D01*
X34261904Y-78023809D01*
X34261904Y-77880952D01*
X34309523Y-77690476D01*
X34357142Y-77595238D01*
X34452380Y-77500000D01*
X34595238Y-77452380D01*
X34690476Y-77452380D01*
X34833333Y-77500000D01*
X34880952Y-77547619D01*
X35595238Y-77452380D02*
X35595238Y-78166666D01*
X35547619Y-78309523D01*
X35452380Y-78404761D01*
X35309523Y-78452380D01*
X35214285Y-78452380D01*
X36547619Y-78452380D02*
X36071428Y-78452380D01*
X36071428Y-77452380D01*
X37452380Y-78357142D02*
X37404761Y-78404761D01*
X37261904Y-78452380D01*
X37166666Y-78452380D01*
X37023809Y-78404761D01*
X36928571Y-78309523D01*
X36880952Y-78214285D01*
X36833333Y-78023809D01*
X36833333Y-77880952D01*
X36880952Y-77690476D01*
X36928571Y-77595238D01*
X37023809Y-77500000D01*
X37166666Y-77452380D01*
X37261904Y-77452380D01*
X37404761Y-77500000D01*
X37452380Y-77547619D01*
D11*
X26420000Y-14240000D02*
X26420000Y-15700000D01*
X29580000Y-14240000D02*
X29580000Y-16400000D01*
X29580000Y-14240000D02*
X28650000Y-14240000D01*
X26420000Y-14240000D02*
X27350000Y-14240000D01*
X47290000Y-18258578D02*
X47290000Y-17741422D01*
X48710000Y-18258578D02*
X48710000Y-17741422D01*
X45290000Y-18258578D02*
X45290000Y-17741422D01*
X46710000Y-18258578D02*
X46710000Y-17741422D01*
X12790000Y-10258578D02*
X12790000Y-9741422D01*
X14210000Y-10258578D02*
X14210000Y-9741422D01*
X18790000Y-10258578D02*
X18790000Y-9741422D01*
X20210000Y-10258578D02*
X20210000Y-9741422D01*
X24790000Y-10258578D02*
X24790000Y-9741422D01*
X26210000Y-10258578D02*
X26210000Y-9741422D01*
X20420000Y-14240000D02*
X20420000Y-15700000D01*
X23580000Y-14240000D02*
X23580000Y-16400000D01*
X23580000Y-14240000D02*
X22650000Y-14240000D01*
X20420000Y-14240000D02*
X21350000Y-14240000D01*
X14420000Y-14240000D02*
X14420000Y-15700000D01*
X17580000Y-14240000D02*
X17580000Y-16400000D01*
X17580000Y-14240000D02*
X16650000Y-14240000D01*
X14420000Y-14240000D02*
X15350000Y-14240000D01*
D10*
X31047619Y-14904761D02*
X31000000Y-14809523D01*
X30904761Y-14714285D01*
X30761904Y-14571428D01*
X30714285Y-14476190D01*
X30714285Y-14380952D01*
X30952380Y-14428571D02*
X30904761Y-14333333D01*
X30809523Y-14238095D01*
X30619047Y-14190476D01*
X30285714Y-14190476D01*
X30095238Y-14238095D01*
X30000000Y-14333333D01*
X29952380Y-14428571D01*
X29952380Y-14619047D01*
X30000000Y-14714285D01*
X30095238Y-14809523D01*
X30285714Y-14857142D01*
X30619047Y-14857142D01*
X30809523Y-14809523D01*
X30904761Y-14714285D01*
X30952380Y-14619047D01*
X30952380Y-14428571D01*
X30952380Y-15809523D02*
X30952380Y-15238095D01*
X30952380Y-15523809D02*
X29952380Y-15523809D01*
X30095238Y-15428571D01*
X30190476Y-15333333D01*
X30238095Y-15238095D01*
X50666666Y-17952380D02*
X51000000Y-17476190D01*
X51238095Y-17952380D02*
X51238095Y-16952380D01*
X50857142Y-16952380D01*
X50761904Y-17000000D01*
X50714285Y-17047619D01*
X50666666Y-17142857D01*
X50666666Y-17285714D01*
X50714285Y-17380952D01*
X50761904Y-17428571D01*
X50857142Y-17476190D01*
X51238095Y-17476190D01*
X50285714Y-17047619D02*
X50238095Y-17000000D01*
X50142857Y-16952380D01*
X49904761Y-16952380D01*
X49809523Y-17000000D01*
X49761904Y-17047619D01*
X49714285Y-17142857D01*
X49714285Y-17238095D01*
X49761904Y-17380952D01*
X50333333Y-17952380D01*
X49714285Y-17952380D01*
X43928571Y-18785714D02*
X43928571Y-19452380D01*
X44166666Y-18404761D02*
X44404761Y-19119047D01*
X43785714Y-19119047D01*
X43404761Y-19357142D02*
X43357142Y-19404761D01*
X43404761Y-19452380D01*
X43452380Y-19404761D01*
X43404761Y-19357142D01*
X43404761Y-19452380D01*
X43023809Y-18452380D02*
X42357142Y-18452380D01*
X42785714Y-19452380D01*
X41976190Y-19452380D02*
X41976190Y-18452380D01*
X41880952Y-19071428D02*
X41595238Y-19452380D01*
X41595238Y-18785714D02*
X41976190Y-19166666D01*
X43666666Y-17952380D02*
X44000000Y-17476190D01*
X44238095Y-17952380D02*
X44238095Y-16952380D01*
X43857142Y-16952380D01*
X43761904Y-17000000D01*
X43714285Y-17047619D01*
X43666666Y-17142857D01*
X43666666Y-17285714D01*
X43714285Y-17380952D01*
X43761904Y-17428571D01*
X43857142Y-17476190D01*
X44238095Y-17476190D01*
X42714285Y-17952380D02*
X43285714Y-17952380D01*
X43000000Y-17952380D02*
X43000000Y-16952380D01*
X43095238Y-17095238D01*
X43190476Y-17190476D01*
X43285714Y-17238095D01*
X51928571Y-18785714D02*
X51928571Y-19452380D01*
X52166666Y-18404761D02*
X52404761Y-19119047D01*
X51785714Y-19119047D01*
X51404761Y-19357142D02*
X51357142Y-19404761D01*
X51404761Y-19452380D01*
X51452380Y-19404761D01*
X51404761Y-19357142D01*
X51404761Y-19452380D01*
X51023809Y-18452380D02*
X50357142Y-18452380D01*
X50785714Y-19452380D01*
X49976190Y-19452380D02*
X49976190Y-18452380D01*
X49880952Y-19071428D02*
X49595238Y-19452380D01*
X49595238Y-18785714D02*
X49976190Y-19166666D01*
X15602380Y-9833333D02*
X15126190Y-9500000D01*
X15602380Y-9261904D02*
X14602380Y-9261904D01*
X14602380Y-9642857D01*
X14650000Y-9738095D01*
X14697619Y-9785714D01*
X14792857Y-9833333D01*
X14935714Y-9833333D01*
X15030952Y-9785714D01*
X15078571Y-9738095D01*
X15126190Y-9642857D01*
X15126190Y-9261904D01*
X14602380Y-10738095D02*
X14602380Y-10261904D01*
X15078571Y-10214285D01*
X15030952Y-10261904D01*
X14983333Y-10357142D01*
X14983333Y-10595238D01*
X15030952Y-10690476D01*
X15078571Y-10738095D01*
X15173809Y-10785714D01*
X15411904Y-10785714D01*
X15507142Y-10738095D01*
X15554761Y-10690476D01*
X15602380Y-10595238D01*
X15602380Y-10357142D01*
X15554761Y-10261904D01*
X15507142Y-10214285D01*
X11302380Y-8714285D02*
X11302380Y-9333333D01*
X11683333Y-9000000D01*
X11683333Y-9142857D01*
X11730952Y-9238095D01*
X11778571Y-9285714D01*
X11873809Y-9333333D01*
X12111904Y-9333333D01*
X12207142Y-9285714D01*
X12254761Y-9238095D01*
X12302380Y-9142857D01*
X12302380Y-8857142D01*
X12254761Y-8761904D01*
X12207142Y-8714285D01*
X11302380Y-9666666D02*
X11302380Y-10285714D01*
X11683333Y-9952380D01*
X11683333Y-10095238D01*
X11730952Y-10190476D01*
X11778571Y-10238095D01*
X11873809Y-10285714D01*
X12111904Y-10285714D01*
X12207142Y-10238095D01*
X12254761Y-10190476D01*
X12302380Y-10095238D01*
X12302380Y-9809523D01*
X12254761Y-9714285D01*
X12207142Y-9666666D01*
X11302380Y-10904761D02*
X11302380Y-11000000D01*
X11350000Y-11095238D01*
X11397619Y-11142857D01*
X11492857Y-11190476D01*
X11683333Y-11238095D01*
X11921428Y-11238095D01*
X12111904Y-11190476D01*
X12207142Y-11142857D01*
X12254761Y-11095238D01*
X12302380Y-11000000D01*
X12302380Y-10904761D01*
X12254761Y-10809523D01*
X12207142Y-10761904D01*
X12111904Y-10714285D01*
X11921428Y-10666666D01*
X11683333Y-10666666D01*
X11492857Y-10714285D01*
X11397619Y-10761904D01*
X11350000Y-10809523D01*
X11302380Y-10904761D01*
X21602380Y-9833333D02*
X21126190Y-9500000D01*
X21602380Y-9261904D02*
X20602380Y-9261904D01*
X20602380Y-9642857D01*
X20650000Y-9738095D01*
X20697619Y-9785714D01*
X20792857Y-9833333D01*
X20935714Y-9833333D01*
X21030952Y-9785714D01*
X21078571Y-9738095D01*
X21126190Y-9642857D01*
X21126190Y-9261904D01*
X20935714Y-10690476D02*
X21602380Y-10690476D01*
X20554761Y-10452380D02*
X21269047Y-10214285D01*
X21269047Y-10833333D01*
X17302380Y-8714285D02*
X17302380Y-9333333D01*
X17683333Y-9000000D01*
X17683333Y-9142857D01*
X17730952Y-9238095D01*
X17778571Y-9285714D01*
X17873809Y-9333333D01*
X18111904Y-9333333D01*
X18207142Y-9285714D01*
X18254761Y-9238095D01*
X18302380Y-9142857D01*
X18302380Y-8857142D01*
X18254761Y-8761904D01*
X18207142Y-8714285D01*
X17302380Y-9666666D02*
X17302380Y-10285714D01*
X17683333Y-9952380D01*
X17683333Y-10095238D01*
X17730952Y-10190476D01*
X17778571Y-10238095D01*
X17873809Y-10285714D01*
X18111904Y-10285714D01*
X18207142Y-10238095D01*
X18254761Y-10190476D01*
X18302380Y-10095238D01*
X18302380Y-9809523D01*
X18254761Y-9714285D01*
X18207142Y-9666666D01*
X17302380Y-10904761D02*
X17302380Y-11000000D01*
X17350000Y-11095238D01*
X17397619Y-11142857D01*
X17492857Y-11190476D01*
X17683333Y-11238095D01*
X17921428Y-11238095D01*
X18111904Y-11190476D01*
X18207142Y-11142857D01*
X18254761Y-11095238D01*
X18302380Y-11000000D01*
X18302380Y-10904761D01*
X18254761Y-10809523D01*
X18207142Y-10761904D01*
X18111904Y-10714285D01*
X17921428Y-10666666D01*
X17683333Y-10666666D01*
X17492857Y-10714285D01*
X17397619Y-10761904D01*
X17350000Y-10809523D01*
X17302380Y-10904761D01*
X27602380Y-9833333D02*
X27126190Y-9500000D01*
X27602380Y-9261904D02*
X26602380Y-9261904D01*
X26602380Y-9642857D01*
X26650000Y-9738095D01*
X26697619Y-9785714D01*
X26792857Y-9833333D01*
X26935714Y-9833333D01*
X27030952Y-9785714D01*
X27078571Y-9738095D01*
X27126190Y-9642857D01*
X27126190Y-9261904D01*
X26602380Y-10166666D02*
X26602380Y-10785714D01*
X26983333Y-10452380D01*
X26983333Y-10595238D01*
X27030952Y-10690476D01*
X27078571Y-10738095D01*
X27173809Y-10785714D01*
X27411904Y-10785714D01*
X27507142Y-10738095D01*
X27554761Y-10690476D01*
X27602380Y-10595238D01*
X27602380Y-10309523D01*
X27554761Y-10214285D01*
X27507142Y-10166666D01*
X23302380Y-8714285D02*
X23302380Y-9333333D01*
X23683333Y-9000000D01*
X23683333Y-9142857D01*
X23730952Y-9238095D01*
X23778571Y-9285714D01*
X23873809Y-9333333D01*
X24111904Y-9333333D01*
X24207142Y-9285714D01*
X24254761Y-9238095D01*
X24302380Y-9142857D01*
X24302380Y-8857142D01*
X24254761Y-8761904D01*
X24207142Y-8714285D01*
X23302380Y-9666666D02*
X23302380Y-10285714D01*
X23683333Y-9952380D01*
X23683333Y-10095238D01*
X23730952Y-10190476D01*
X23778571Y-10238095D01*
X23873809Y-10285714D01*
X24111904Y-10285714D01*
X24207142Y-10238095D01*
X24254761Y-10190476D01*
X24302380Y-10095238D01*
X24302380Y-9809523D01*
X24254761Y-9714285D01*
X24207142Y-9666666D01*
X23302380Y-10904761D02*
X23302380Y-11000000D01*
X23350000Y-11095238D01*
X23397619Y-11142857D01*
X23492857Y-11190476D01*
X23683333Y-11238095D01*
X23921428Y-11238095D01*
X24111904Y-11190476D01*
X24207142Y-11142857D01*
X24254761Y-11095238D01*
X24302380Y-11000000D01*
X24302380Y-10904761D01*
X24254761Y-10809523D01*
X24207142Y-10761904D01*
X24111904Y-10714285D01*
X23921428Y-10666666D01*
X23683333Y-10666666D01*
X23492857Y-10714285D01*
X23397619Y-10761904D01*
X23350000Y-10809523D01*
X23302380Y-10904761D01*
X25047619Y-14904761D02*
X25000000Y-14809523D01*
X24904761Y-14714285D01*
X24761904Y-14571428D01*
X24714285Y-14476190D01*
X24714285Y-14380952D01*
X24952380Y-14428571D02*
X24904761Y-14333333D01*
X24809523Y-14238095D01*
X24619047Y-14190476D01*
X24285714Y-14190476D01*
X24095238Y-14238095D01*
X24000000Y-14333333D01*
X23952380Y-14428571D01*
X23952380Y-14619047D01*
X24000000Y-14714285D01*
X24095238Y-14809523D01*
X24285714Y-14857142D01*
X24619047Y-14857142D01*
X24809523Y-14809523D01*
X24904761Y-14714285D01*
X24952380Y-14619047D01*
X24952380Y-14428571D01*
X24047619Y-15238095D02*
X24000000Y-15285714D01*
X23952380Y-15380952D01*
X23952380Y-15619047D01*
X24000000Y-15714285D01*
X24047619Y-15761904D01*
X24142857Y-15809523D01*
X24238095Y-15809523D01*
X24380952Y-15761904D01*
X24952380Y-15190476D01*
X24952380Y-15809523D01*
X19047619Y-14904761D02*
X19000000Y-14809523D01*
X18904761Y-14714285D01*
X18761904Y-14571428D01*
X18714285Y-14476190D01*
X18714285Y-14380952D01*
X18952380Y-14428571D02*
X18904761Y-14333333D01*
X18809523Y-14238095D01*
X18619047Y-14190476D01*
X18285714Y-14190476D01*
X18095238Y-14238095D01*
X18000000Y-14333333D01*
X17952380Y-14428571D01*
X17952380Y-14619047D01*
X18000000Y-14714285D01*
X18095238Y-14809523D01*
X18285714Y-14857142D01*
X18619047Y-14857142D01*
X18809523Y-14809523D01*
X18904761Y-14714285D01*
X18952380Y-14619047D01*
X18952380Y-14428571D01*
X17952380Y-15190476D02*
X17952380Y-15809523D01*
X18333333Y-15476190D01*
X18333333Y-15619047D01*
X18380952Y-15714285D01*
X18428571Y-15761904D01*
X18523809Y-15809523D01*
X18761904Y-15809523D01*
X18857142Y-15761904D01*
X18904761Y-15714285D01*
X18952380Y-15619047D01*
X18952380Y-15333333D01*
X18904761Y-15238095D01*
X18857142Y-15190476D01*
M02*
