G04 #@! TF.GenerationSoftware,KiCad,Pcbnew,5.99.0+really5.1.10+dfsg1-1*
G04 #@! TF.CreationDate,2022-07-07T23:47:34+02:00*
G04 #@! TF.ProjectId,sensorbox-battery-powered,73656e73-6f72-4626-9f78-2d6261747465,rev?*
G04 #@! TF.SameCoordinates,Original*
G04 #@! TF.FileFunction,Copper,L2,Bot*
G04 #@! TF.FilePolarity,Positive*
%FSLAX46Y46*%
G04 Gerber Fmt 4.6, Leading zero omitted, Abs format (unit mm)*
G04 Created by KiCad (PCBNEW 5.99.0+really5.1.10+dfsg1-1) date 2022-07-07 23:47:34*
%MOMM*%
%LPD*%
G01*
G04 APERTURE LIST*
G04 #@! TA.AperFunction,ComponentPad*
%ADD10C,2.000000*%
G04 #@! TD*
G04 #@! TA.AperFunction,ComponentPad*
%ADD11C,4.400000*%
G04 #@! TD*
G04 #@! TA.AperFunction,ComponentPad*
%ADD12O,1.700000X1.700000*%
G04 #@! TD*
G04 #@! TA.AperFunction,ComponentPad*
%ADD13R,1.700000X1.700000*%
G04 #@! TD*
G04 #@! TA.AperFunction,ComponentPad*
%ADD14C,1.700000*%
G04 #@! TD*
G04 #@! TA.AperFunction,ViaPad*
%ADD15C,0.800000*%
G04 #@! TD*
G04 #@! TA.AperFunction,Conductor*
%ADD16C,0.250000*%
G04 #@! TD*
G04 #@! TA.AperFunction,Conductor*
%ADD17C,0.200000*%
G04 #@! TD*
G04 #@! TA.AperFunction,Conductor*
%ADD18C,0.100000*%
G04 #@! TD*
G04 APERTURE END LIST*
D10*
X9000000Y-44500000D03*
X13500000Y-44500000D03*
X9000000Y-51000000D03*
X13500000Y-51000000D03*
X16500000Y-44500000D03*
X21000000Y-44500000D03*
X16500000Y-51000000D03*
X21000000Y-51000000D03*
D11*
X4000000Y-51000000D03*
X4000000Y-23500000D03*
D12*
X27000000Y-3300000D03*
X27000000Y-5840000D03*
X27000000Y-8380000D03*
X27000000Y-10920000D03*
X27000000Y-13460000D03*
D13*
X27000000Y-16000000D03*
D11*
X26000000Y-23500000D03*
X26000000Y-51000000D03*
D14*
X10560000Y-31750000D03*
X8020000Y-31750000D03*
X5480000Y-31750000D03*
X2940000Y-31750000D03*
D15*
X6000000Y-10750000D03*
X5250000Y-2500000D03*
X21000000Y-16500000D03*
X5000000Y-46500000D03*
X25000000Y-46500000D03*
X17000000Y-27000000D03*
X9645020Y-27000000D03*
X18950000Y-36350000D03*
X24100000Y-27100000D03*
X22400000Y-35000000D03*
X22400000Y-33800000D03*
X5400000Y-15500000D03*
X4500000Y-7000000D03*
X9500000Y-6500000D03*
X11250000Y-8500000D03*
X13750000Y-31750000D03*
X13250000Y-10500000D03*
X21200000Y-22300000D03*
X9900000Y-15700000D03*
D16*
X6000000Y-10750000D02*
X6750000Y-10750000D01*
X6750000Y-10750000D02*
X6844999Y-10844999D01*
X6844999Y-32314001D02*
X9780998Y-35250000D01*
X6844999Y-10844999D02*
X6844999Y-32314001D01*
X9780998Y-35250000D02*
X19750000Y-35250000D01*
X21000000Y-36500000D02*
X21000000Y-44500000D01*
X19750000Y-35250000D02*
X21000000Y-36500000D01*
X6844999Y-8819693D02*
X6844999Y-10844999D01*
X5250000Y-7224694D02*
X6844999Y-8819693D01*
X5250000Y-2500000D02*
X5250000Y-7224694D01*
X5000001Y-7611105D02*
X4500000Y-7111104D01*
X5000001Y-15100001D02*
X5000001Y-7611105D01*
X5400000Y-15500000D02*
X5000001Y-15100001D01*
X4500000Y-7111104D02*
X4500000Y-7000000D01*
X8020000Y-31750000D02*
X8020000Y-7980000D01*
X8020000Y-7980000D02*
X9500000Y-6500000D01*
X10560000Y-31750000D02*
X8470010Y-29660010D01*
X8470010Y-29660010D02*
X8470010Y-8929990D01*
X8900000Y-8500000D02*
X11250000Y-8500000D01*
X8470010Y-8929990D02*
X8900000Y-8500000D01*
X13750000Y-31750000D02*
X12400000Y-30400000D01*
X12400000Y-30400000D02*
X9846410Y-30400000D01*
X9846410Y-30400000D02*
X8920020Y-29473610D01*
X8920020Y-29473610D02*
X8920020Y-11079980D01*
X9500000Y-10500000D02*
X13250000Y-10500000D01*
X8920020Y-11079980D02*
X9500000Y-10500000D01*
X21200000Y-22300000D02*
X14700000Y-15800000D01*
X10000000Y-15800000D02*
X9900000Y-15700000D01*
X14700000Y-15800000D02*
X10000000Y-15800000D01*
D17*
X29675001Y-54675000D02*
X325000Y-54675000D01*
X325000Y-50753772D01*
X1500000Y-50753772D01*
X1500000Y-51246228D01*
X1596074Y-51729223D01*
X1784529Y-52184194D01*
X2058124Y-52593657D01*
X2406343Y-52941876D01*
X2815806Y-53215471D01*
X3270777Y-53403926D01*
X3753772Y-53500000D01*
X4246228Y-53500000D01*
X4729223Y-53403926D01*
X5184194Y-53215471D01*
X5593657Y-52941876D01*
X5941876Y-52593657D01*
X6215471Y-52184194D01*
X6403926Y-51729223D01*
X6500000Y-51246228D01*
X6500000Y-50871961D01*
X7700000Y-50871961D01*
X7700000Y-51128039D01*
X7749958Y-51379196D01*
X7847955Y-51615781D01*
X7990224Y-51828702D01*
X8171298Y-52009776D01*
X8384219Y-52152045D01*
X8620804Y-52250042D01*
X8871961Y-52300000D01*
X9128039Y-52300000D01*
X9379196Y-52250042D01*
X9615781Y-52152045D01*
X9636503Y-52138199D01*
X12579590Y-52138199D01*
X12679181Y-52391762D01*
X12966472Y-52525154D01*
X13274265Y-52599934D01*
X13590735Y-52613230D01*
X13903716Y-52564531D01*
X14201184Y-52455708D01*
X14320819Y-52391762D01*
X14420410Y-52138199D01*
X15579590Y-52138199D01*
X15679181Y-52391762D01*
X15966472Y-52525154D01*
X16274265Y-52599934D01*
X16590735Y-52613230D01*
X16903716Y-52564531D01*
X17201184Y-52455708D01*
X17320819Y-52391762D01*
X17420410Y-52138199D01*
X16500000Y-51217789D01*
X15579590Y-52138199D01*
X14420410Y-52138199D01*
X13500000Y-51217789D01*
X12579590Y-52138199D01*
X9636503Y-52138199D01*
X9828702Y-52009776D01*
X10009776Y-51828702D01*
X10152045Y-51615781D01*
X10250042Y-51379196D01*
X10300000Y-51128039D01*
X10300000Y-51090735D01*
X11886770Y-51090735D01*
X11935469Y-51403716D01*
X12044292Y-51701184D01*
X12108238Y-51820819D01*
X12361801Y-51920410D01*
X13282211Y-51000000D01*
X13717789Y-51000000D01*
X14638199Y-51920410D01*
X14891762Y-51820819D01*
X15001553Y-51584358D01*
X15044292Y-51701184D01*
X15108238Y-51820819D01*
X15361801Y-51920410D01*
X16282211Y-51000000D01*
X16717789Y-51000000D01*
X17638199Y-51920410D01*
X17891762Y-51820819D01*
X18025154Y-51533528D01*
X18099934Y-51225735D01*
X18113230Y-50909265D01*
X18107426Y-50871961D01*
X19700000Y-50871961D01*
X19700000Y-51128039D01*
X19749958Y-51379196D01*
X19847955Y-51615781D01*
X19990224Y-51828702D01*
X20171298Y-52009776D01*
X20384219Y-52152045D01*
X20620804Y-52250042D01*
X20871961Y-52300000D01*
X21128039Y-52300000D01*
X21379196Y-52250042D01*
X21615781Y-52152045D01*
X21828702Y-52009776D01*
X22009776Y-51828702D01*
X22152045Y-51615781D01*
X22250042Y-51379196D01*
X22300000Y-51128039D01*
X22300000Y-50871961D01*
X22276491Y-50753772D01*
X23500000Y-50753772D01*
X23500000Y-51246228D01*
X23596074Y-51729223D01*
X23784529Y-52184194D01*
X24058124Y-52593657D01*
X24406343Y-52941876D01*
X24815806Y-53215471D01*
X25270777Y-53403926D01*
X25753772Y-53500000D01*
X26246228Y-53500000D01*
X26729223Y-53403926D01*
X27184194Y-53215471D01*
X27593657Y-52941876D01*
X27941876Y-52593657D01*
X28215471Y-52184194D01*
X28403926Y-51729223D01*
X28500000Y-51246228D01*
X28500000Y-50753772D01*
X28403926Y-50270777D01*
X28215471Y-49815806D01*
X27941876Y-49406343D01*
X27593657Y-49058124D01*
X27184194Y-48784529D01*
X26729223Y-48596074D01*
X26246228Y-48500000D01*
X25753772Y-48500000D01*
X25270777Y-48596074D01*
X24815806Y-48784529D01*
X24406343Y-49058124D01*
X24058124Y-49406343D01*
X23784529Y-49815806D01*
X23596074Y-50270777D01*
X23500000Y-50753772D01*
X22276491Y-50753772D01*
X22250042Y-50620804D01*
X22152045Y-50384219D01*
X22009776Y-50171298D01*
X21828702Y-49990224D01*
X21615781Y-49847955D01*
X21379196Y-49749958D01*
X21128039Y-49700000D01*
X20871961Y-49700000D01*
X20620804Y-49749958D01*
X20384219Y-49847955D01*
X20171298Y-49990224D01*
X19990224Y-50171298D01*
X19847955Y-50384219D01*
X19749958Y-50620804D01*
X19700000Y-50871961D01*
X18107426Y-50871961D01*
X18064531Y-50596284D01*
X17955708Y-50298816D01*
X17891762Y-50179181D01*
X17638199Y-50079590D01*
X16717789Y-51000000D01*
X16282211Y-51000000D01*
X15361801Y-50079590D01*
X15108238Y-50179181D01*
X14998447Y-50415642D01*
X14955708Y-50298816D01*
X14891762Y-50179181D01*
X14638199Y-50079590D01*
X13717789Y-51000000D01*
X13282211Y-51000000D01*
X12361801Y-50079590D01*
X12108238Y-50179181D01*
X11974846Y-50466472D01*
X11900066Y-50774265D01*
X11886770Y-51090735D01*
X10300000Y-51090735D01*
X10300000Y-50871961D01*
X10250042Y-50620804D01*
X10152045Y-50384219D01*
X10009776Y-50171298D01*
X9828702Y-49990224D01*
X9636504Y-49861801D01*
X12579590Y-49861801D01*
X13500000Y-50782211D01*
X14420410Y-49861801D01*
X15579590Y-49861801D01*
X16500000Y-50782211D01*
X17420410Y-49861801D01*
X17320819Y-49608238D01*
X17033528Y-49474846D01*
X16725735Y-49400066D01*
X16409265Y-49386770D01*
X16096284Y-49435469D01*
X15798816Y-49544292D01*
X15679181Y-49608238D01*
X15579590Y-49861801D01*
X14420410Y-49861801D01*
X14320819Y-49608238D01*
X14033528Y-49474846D01*
X13725735Y-49400066D01*
X13409265Y-49386770D01*
X13096284Y-49435469D01*
X12798816Y-49544292D01*
X12679181Y-49608238D01*
X12579590Y-49861801D01*
X9636504Y-49861801D01*
X9615781Y-49847955D01*
X9379196Y-49749958D01*
X9128039Y-49700000D01*
X8871961Y-49700000D01*
X8620804Y-49749958D01*
X8384219Y-49847955D01*
X8171298Y-49990224D01*
X7990224Y-50171298D01*
X7847955Y-50384219D01*
X7749958Y-50620804D01*
X7700000Y-50871961D01*
X6500000Y-50871961D01*
X6500000Y-50753772D01*
X6403926Y-50270777D01*
X6215471Y-49815806D01*
X5941876Y-49406343D01*
X5593657Y-49058124D01*
X5184194Y-48784529D01*
X4729223Y-48596074D01*
X4246228Y-48500000D01*
X3753772Y-48500000D01*
X3270777Y-48596074D01*
X2815806Y-48784529D01*
X2406343Y-49058124D01*
X2058124Y-49406343D01*
X1784529Y-49815806D01*
X1596074Y-50270777D01*
X1500000Y-50753772D01*
X325000Y-50753772D01*
X325000Y-44371961D01*
X7700000Y-44371961D01*
X7700000Y-44628039D01*
X7749958Y-44879196D01*
X7847955Y-45115781D01*
X7990224Y-45328702D01*
X8171298Y-45509776D01*
X8384219Y-45652045D01*
X8620804Y-45750042D01*
X8871961Y-45800000D01*
X9128039Y-45800000D01*
X9379196Y-45750042D01*
X9615781Y-45652045D01*
X9636503Y-45638199D01*
X12579590Y-45638199D01*
X12679181Y-45891762D01*
X12966472Y-46025154D01*
X13274265Y-46099934D01*
X13590735Y-46113230D01*
X13903716Y-46064531D01*
X14201184Y-45955708D01*
X14320819Y-45891762D01*
X14420410Y-45638199D01*
X15579590Y-45638199D01*
X15679181Y-45891762D01*
X15966472Y-46025154D01*
X16274265Y-46099934D01*
X16590735Y-46113230D01*
X16903716Y-46064531D01*
X17201184Y-45955708D01*
X17320819Y-45891762D01*
X17420410Y-45638199D01*
X16500000Y-44717789D01*
X15579590Y-45638199D01*
X14420410Y-45638199D01*
X13500000Y-44717789D01*
X12579590Y-45638199D01*
X9636503Y-45638199D01*
X9828702Y-45509776D01*
X10009776Y-45328702D01*
X10152045Y-45115781D01*
X10250042Y-44879196D01*
X10300000Y-44628039D01*
X10300000Y-44590735D01*
X11886770Y-44590735D01*
X11935469Y-44903716D01*
X12044292Y-45201184D01*
X12108238Y-45320819D01*
X12361801Y-45420410D01*
X13282211Y-44500000D01*
X13717789Y-44500000D01*
X14638199Y-45420410D01*
X14891762Y-45320819D01*
X15001553Y-45084358D01*
X15044292Y-45201184D01*
X15108238Y-45320819D01*
X15361801Y-45420410D01*
X16282211Y-44500000D01*
X16717789Y-44500000D01*
X17638199Y-45420410D01*
X17891762Y-45320819D01*
X18025154Y-45033528D01*
X18099934Y-44725735D01*
X18113230Y-44409265D01*
X18064531Y-44096284D01*
X17955708Y-43798816D01*
X17891762Y-43679181D01*
X17638199Y-43579590D01*
X16717789Y-44500000D01*
X16282211Y-44500000D01*
X15361801Y-43579590D01*
X15108238Y-43679181D01*
X14998447Y-43915642D01*
X14955708Y-43798816D01*
X14891762Y-43679181D01*
X14638199Y-43579590D01*
X13717789Y-44500000D01*
X13282211Y-44500000D01*
X12361801Y-43579590D01*
X12108238Y-43679181D01*
X11974846Y-43966472D01*
X11900066Y-44274265D01*
X11886770Y-44590735D01*
X10300000Y-44590735D01*
X10300000Y-44371961D01*
X10250042Y-44120804D01*
X10152045Y-43884219D01*
X10009776Y-43671298D01*
X9828702Y-43490224D01*
X9636504Y-43361801D01*
X12579590Y-43361801D01*
X13500000Y-44282211D01*
X14420410Y-43361801D01*
X15579590Y-43361801D01*
X16500000Y-44282211D01*
X17420410Y-43361801D01*
X17320819Y-43108238D01*
X17033528Y-42974846D01*
X16725735Y-42900066D01*
X16409265Y-42886770D01*
X16096284Y-42935469D01*
X15798816Y-43044292D01*
X15679181Y-43108238D01*
X15579590Y-43361801D01*
X14420410Y-43361801D01*
X14320819Y-43108238D01*
X14033528Y-42974846D01*
X13725735Y-42900066D01*
X13409265Y-42886770D01*
X13096284Y-42935469D01*
X12798816Y-43044292D01*
X12679181Y-43108238D01*
X12579590Y-43361801D01*
X9636504Y-43361801D01*
X9615781Y-43347955D01*
X9379196Y-43249958D01*
X9128039Y-43200000D01*
X8871961Y-43200000D01*
X8620804Y-43249958D01*
X8384219Y-43347955D01*
X8171298Y-43490224D01*
X7990224Y-43671298D01*
X7847955Y-43884219D01*
X7749958Y-44120804D01*
X7700000Y-44371961D01*
X325000Y-44371961D01*
X325000Y-31636735D01*
X1790000Y-31636735D01*
X1790000Y-31863265D01*
X1834194Y-32085443D01*
X1920884Y-32294729D01*
X2046737Y-32483082D01*
X2206918Y-32643263D01*
X2395271Y-32769116D01*
X2604557Y-32855806D01*
X2826735Y-32900000D01*
X3053265Y-32900000D01*
X3275443Y-32855806D01*
X3456142Y-32780957D01*
X4666832Y-32780957D01*
X4748221Y-33019207D01*
X5009891Y-33137583D01*
X5289628Y-33202634D01*
X5576681Y-33211862D01*
X5860018Y-33164911D01*
X6128752Y-33063587D01*
X6211779Y-33019207D01*
X6293168Y-32780957D01*
X5480000Y-31967789D01*
X4666832Y-32780957D01*
X3456142Y-32780957D01*
X3484729Y-32769116D01*
X3673082Y-32643263D01*
X3833263Y-32483082D01*
X3959116Y-32294729D01*
X4045806Y-32085443D01*
X4052296Y-32052816D01*
X4065089Y-32130018D01*
X4166413Y-32398752D01*
X4210793Y-32481779D01*
X4449043Y-32563168D01*
X5262211Y-31750000D01*
X4449043Y-30936832D01*
X4210793Y-31018221D01*
X4092417Y-31279891D01*
X4052858Y-31450007D01*
X4045806Y-31414557D01*
X3959116Y-31205271D01*
X3833263Y-31016918D01*
X3673082Y-30856737D01*
X3484729Y-30730884D01*
X3275443Y-30644194D01*
X3053265Y-30600000D01*
X2826735Y-30600000D01*
X2604557Y-30644194D01*
X2395271Y-30730884D01*
X2206918Y-30856737D01*
X2046737Y-31016918D01*
X1920884Y-31205271D01*
X1834194Y-31414557D01*
X1790000Y-31636735D01*
X325000Y-31636735D01*
X325000Y-23253772D01*
X1500000Y-23253772D01*
X1500000Y-23746228D01*
X1596074Y-24229223D01*
X1784529Y-24684194D01*
X2058124Y-25093657D01*
X2406343Y-25441876D01*
X2815806Y-25715471D01*
X3270777Y-25903926D01*
X3753772Y-26000000D01*
X4246228Y-26000000D01*
X4729223Y-25903926D01*
X5184194Y-25715471D01*
X5593657Y-25441876D01*
X5941876Y-25093657D01*
X6215471Y-24684194D01*
X6403926Y-24229223D01*
X6420000Y-24148416D01*
X6420000Y-30618784D01*
X6406712Y-30605496D01*
X6293167Y-30719041D01*
X6211779Y-30480793D01*
X5950109Y-30362417D01*
X5670372Y-30297366D01*
X5383319Y-30288138D01*
X5099982Y-30335089D01*
X4831248Y-30436413D01*
X4748221Y-30480793D01*
X4666832Y-30719043D01*
X5480000Y-31532211D01*
X5494142Y-31518069D01*
X5711931Y-31735858D01*
X5697789Y-31750000D01*
X6479428Y-32531639D01*
X6489916Y-32551261D01*
X6543026Y-32615975D01*
X6559238Y-32629280D01*
X9465714Y-35535756D01*
X9479024Y-35551974D01*
X9543738Y-35605084D01*
X9617571Y-35644548D01*
X9697684Y-35668850D01*
X9780998Y-35677056D01*
X9801872Y-35675000D01*
X19573960Y-35675000D01*
X20575000Y-36676041D01*
X20575001Y-43268930D01*
X20384219Y-43347955D01*
X20171298Y-43490224D01*
X19990224Y-43671298D01*
X19847955Y-43884219D01*
X19749958Y-44120804D01*
X19700000Y-44371961D01*
X19700000Y-44628039D01*
X19749958Y-44879196D01*
X19847955Y-45115781D01*
X19990224Y-45328702D01*
X20171298Y-45509776D01*
X20384219Y-45652045D01*
X20620804Y-45750042D01*
X20871961Y-45800000D01*
X21128039Y-45800000D01*
X21379196Y-45750042D01*
X21615781Y-45652045D01*
X21828702Y-45509776D01*
X22009776Y-45328702D01*
X22152045Y-45115781D01*
X22250042Y-44879196D01*
X22300000Y-44628039D01*
X22300000Y-44371961D01*
X22250042Y-44120804D01*
X22152045Y-43884219D01*
X22009776Y-43671298D01*
X21828702Y-43490224D01*
X21615781Y-43347955D01*
X21425000Y-43268931D01*
X21425000Y-36520867D01*
X21427055Y-36500000D01*
X21425000Y-36479133D01*
X21425000Y-36479126D01*
X21418850Y-36416686D01*
X21394548Y-36336573D01*
X21355084Y-36262740D01*
X21301974Y-36198026D01*
X21285763Y-36184722D01*
X20065283Y-34964243D01*
X20051974Y-34948026D01*
X19987260Y-34894916D01*
X19913427Y-34855452D01*
X19833314Y-34831150D01*
X19770874Y-34825000D01*
X19770867Y-34825000D01*
X19750000Y-34822945D01*
X19729133Y-34825000D01*
X9957038Y-34825000D01*
X8032038Y-32900000D01*
X8133265Y-32900000D01*
X8355443Y-32855806D01*
X8564729Y-32769116D01*
X8753082Y-32643263D01*
X8913263Y-32483082D01*
X9039116Y-32294729D01*
X9125806Y-32085443D01*
X9170000Y-31863265D01*
X9170000Y-31636735D01*
X9125806Y-31414557D01*
X9039116Y-31205271D01*
X8913263Y-31016918D01*
X8753082Y-30856737D01*
X8564729Y-30730884D01*
X8445000Y-30681290D01*
X8445000Y-30236040D01*
X9503788Y-31294828D01*
X9454194Y-31414557D01*
X9410000Y-31636735D01*
X9410000Y-31863265D01*
X9454194Y-32085443D01*
X9540884Y-32294729D01*
X9666737Y-32483082D01*
X9826918Y-32643263D01*
X10015271Y-32769116D01*
X10224557Y-32855806D01*
X10446735Y-32900000D01*
X10673265Y-32900000D01*
X10895443Y-32855806D01*
X11104729Y-32769116D01*
X11293082Y-32643263D01*
X11453263Y-32483082D01*
X11579116Y-32294729D01*
X11665806Y-32085443D01*
X11710000Y-31863265D01*
X11710000Y-31636735D01*
X11665806Y-31414557D01*
X11579116Y-31205271D01*
X11453263Y-31016918D01*
X11293082Y-30856737D01*
X11245584Y-30825000D01*
X12223960Y-30825000D01*
X13054980Y-31656021D01*
X13050000Y-31681056D01*
X13050000Y-31818944D01*
X13076901Y-31954182D01*
X13129668Y-32081574D01*
X13206274Y-32196224D01*
X13303776Y-32293726D01*
X13418426Y-32370332D01*
X13545818Y-32423099D01*
X13681056Y-32450000D01*
X13818944Y-32450000D01*
X13954182Y-32423099D01*
X14081574Y-32370332D01*
X14196224Y-32293726D01*
X14293726Y-32196224D01*
X14370332Y-32081574D01*
X14423099Y-31954182D01*
X14450000Y-31818944D01*
X14450000Y-31681056D01*
X14423099Y-31545818D01*
X14370332Y-31418426D01*
X14293726Y-31303776D01*
X14196224Y-31206274D01*
X14081574Y-31129668D01*
X13954182Y-31076901D01*
X13818944Y-31050000D01*
X13681056Y-31050000D01*
X13656021Y-31054980D01*
X12715283Y-30114243D01*
X12701974Y-30098026D01*
X12637260Y-30044916D01*
X12563427Y-30005452D01*
X12483314Y-29981150D01*
X12420874Y-29975000D01*
X12420867Y-29975000D01*
X12400000Y-29972945D01*
X12379133Y-29975000D01*
X10022451Y-29975000D01*
X9345020Y-29297570D01*
X9345020Y-23253772D01*
X23500000Y-23253772D01*
X23500000Y-23746228D01*
X23596074Y-24229223D01*
X23784529Y-24684194D01*
X24058124Y-25093657D01*
X24406343Y-25441876D01*
X24815806Y-25715471D01*
X25270777Y-25903926D01*
X25753772Y-26000000D01*
X26246228Y-26000000D01*
X26729223Y-25903926D01*
X27184194Y-25715471D01*
X27593657Y-25441876D01*
X27941876Y-25093657D01*
X28215471Y-24684194D01*
X28403926Y-24229223D01*
X28500000Y-23746228D01*
X28500000Y-23253772D01*
X28403926Y-22770777D01*
X28215471Y-22315806D01*
X27941876Y-21906343D01*
X27593657Y-21558124D01*
X27184194Y-21284529D01*
X26729223Y-21096074D01*
X26246228Y-21000000D01*
X25753772Y-21000000D01*
X25270777Y-21096074D01*
X24815806Y-21284529D01*
X24406343Y-21558124D01*
X24058124Y-21906343D01*
X23784529Y-22315806D01*
X23596074Y-22770777D01*
X23500000Y-23253772D01*
X9345020Y-23253772D01*
X9345020Y-16129381D01*
X9356274Y-16146224D01*
X9453776Y-16243726D01*
X9568426Y-16320332D01*
X9695818Y-16373099D01*
X9831056Y-16400000D01*
X9968944Y-16400000D01*
X10104182Y-16373099D01*
X10231574Y-16320332D01*
X10346224Y-16243726D01*
X10364950Y-16225000D01*
X14523960Y-16225000D01*
X20504980Y-22206021D01*
X20500000Y-22231056D01*
X20500000Y-22368944D01*
X20526901Y-22504182D01*
X20579668Y-22631574D01*
X20656274Y-22746224D01*
X20753776Y-22843726D01*
X20868426Y-22920332D01*
X20995818Y-22973099D01*
X21131056Y-23000000D01*
X21268944Y-23000000D01*
X21404182Y-22973099D01*
X21531574Y-22920332D01*
X21646224Y-22843726D01*
X21743726Y-22746224D01*
X21820332Y-22631574D01*
X21873099Y-22504182D01*
X21900000Y-22368944D01*
X21900000Y-22231056D01*
X21873099Y-22095818D01*
X21820332Y-21968426D01*
X21743726Y-21853776D01*
X21646224Y-21756274D01*
X21531574Y-21679668D01*
X21404182Y-21626901D01*
X21268944Y-21600000D01*
X21131056Y-21600000D01*
X21106021Y-21604980D01*
X16351041Y-16850000D01*
X25539058Y-16850000D01*
X25550797Y-16969189D01*
X25585563Y-17083797D01*
X25642020Y-17189421D01*
X25717999Y-17282001D01*
X25810579Y-17357980D01*
X25916203Y-17414437D01*
X26030811Y-17449203D01*
X26150000Y-17460942D01*
X26694000Y-17458000D01*
X26846000Y-17306000D01*
X26846000Y-16154000D01*
X27154000Y-16154000D01*
X27154000Y-17306000D01*
X27306000Y-17458000D01*
X27850000Y-17460942D01*
X27969189Y-17449203D01*
X28083797Y-17414437D01*
X28189421Y-17357980D01*
X28282001Y-17282001D01*
X28357980Y-17189421D01*
X28414437Y-17083797D01*
X28449203Y-16969189D01*
X28460942Y-16850000D01*
X28458000Y-16306000D01*
X28306000Y-16154000D01*
X27154000Y-16154000D01*
X26846000Y-16154000D01*
X25694000Y-16154000D01*
X25542000Y-16306000D01*
X25539058Y-16850000D01*
X16351041Y-16850000D01*
X15015284Y-15514244D01*
X15001974Y-15498026D01*
X14937260Y-15444916D01*
X14863427Y-15405452D01*
X14783314Y-15381150D01*
X14720874Y-15375000D01*
X14720867Y-15375000D01*
X14700000Y-15372945D01*
X14679133Y-15375000D01*
X10523055Y-15375000D01*
X10520332Y-15368426D01*
X10443726Y-15253776D01*
X10346224Y-15156274D01*
X10336835Y-15150000D01*
X25539058Y-15150000D01*
X25542000Y-15694000D01*
X25694000Y-15846000D01*
X26846000Y-15846000D01*
X26846000Y-15826000D01*
X27154000Y-15826000D01*
X27154000Y-15846000D01*
X28306000Y-15846000D01*
X28458000Y-15694000D01*
X28460942Y-15150000D01*
X28449203Y-15030811D01*
X28414437Y-14916203D01*
X28357980Y-14810579D01*
X28282001Y-14717999D01*
X28189421Y-14642020D01*
X28083797Y-14585563D01*
X27969189Y-14550797D01*
X27850000Y-14539058D01*
X27394065Y-14541524D01*
X27544729Y-14479116D01*
X27733082Y-14353263D01*
X27893263Y-14193082D01*
X28019116Y-14004729D01*
X28105806Y-13795443D01*
X28150000Y-13573265D01*
X28150000Y-13346735D01*
X28105806Y-13124557D01*
X28019116Y-12915271D01*
X27893263Y-12726918D01*
X27733082Y-12566737D01*
X27544729Y-12440884D01*
X27335443Y-12354194D01*
X27113265Y-12310000D01*
X26886735Y-12310000D01*
X26664557Y-12354194D01*
X26455271Y-12440884D01*
X26266918Y-12566737D01*
X26106737Y-12726918D01*
X25980884Y-12915271D01*
X25894194Y-13124557D01*
X25850000Y-13346735D01*
X25850000Y-13573265D01*
X25894194Y-13795443D01*
X25980884Y-14004729D01*
X26106737Y-14193082D01*
X26266918Y-14353263D01*
X26455271Y-14479116D01*
X26605935Y-14541524D01*
X26150000Y-14539058D01*
X26030811Y-14550797D01*
X25916203Y-14585563D01*
X25810579Y-14642020D01*
X25717999Y-14717999D01*
X25642020Y-14810579D01*
X25585563Y-14916203D01*
X25550797Y-15030811D01*
X25539058Y-15150000D01*
X10336835Y-15150000D01*
X10231574Y-15079668D01*
X10104182Y-15026901D01*
X9968944Y-15000000D01*
X9831056Y-15000000D01*
X9695818Y-15026901D01*
X9568426Y-15079668D01*
X9453776Y-15156274D01*
X9356274Y-15253776D01*
X9345020Y-15270619D01*
X9345020Y-11256020D01*
X9676040Y-10925000D01*
X12692093Y-10925000D01*
X12706274Y-10946224D01*
X12803776Y-11043726D01*
X12918426Y-11120332D01*
X13045818Y-11173099D01*
X13181056Y-11200000D01*
X13318944Y-11200000D01*
X13454182Y-11173099D01*
X13581574Y-11120332D01*
X13696224Y-11043726D01*
X13793726Y-10946224D01*
X13870332Y-10831574D01*
X13880620Y-10806735D01*
X25850000Y-10806735D01*
X25850000Y-11033265D01*
X25894194Y-11255443D01*
X25980884Y-11464729D01*
X26106737Y-11653082D01*
X26266918Y-11813263D01*
X26455271Y-11939116D01*
X26664557Y-12025806D01*
X26886735Y-12070000D01*
X27113265Y-12070000D01*
X27335443Y-12025806D01*
X27544729Y-11939116D01*
X27733082Y-11813263D01*
X27893263Y-11653082D01*
X28019116Y-11464729D01*
X28105806Y-11255443D01*
X28150000Y-11033265D01*
X28150000Y-10806735D01*
X28105806Y-10584557D01*
X28019116Y-10375271D01*
X27893263Y-10186918D01*
X27733082Y-10026737D01*
X27544729Y-9900884D01*
X27335443Y-9814194D01*
X27113265Y-9770000D01*
X26886735Y-9770000D01*
X26664557Y-9814194D01*
X26455271Y-9900884D01*
X26266918Y-10026737D01*
X26106737Y-10186918D01*
X25980884Y-10375271D01*
X25894194Y-10584557D01*
X25850000Y-10806735D01*
X13880620Y-10806735D01*
X13923099Y-10704182D01*
X13950000Y-10568944D01*
X13950000Y-10431056D01*
X13923099Y-10295818D01*
X13870332Y-10168426D01*
X13793726Y-10053776D01*
X13696224Y-9956274D01*
X13581574Y-9879668D01*
X13454182Y-9826901D01*
X13318944Y-9800000D01*
X13181056Y-9800000D01*
X13045818Y-9826901D01*
X12918426Y-9879668D01*
X12803776Y-9956274D01*
X12706274Y-10053776D01*
X12692093Y-10075000D01*
X9520874Y-10075000D01*
X9500000Y-10072944D01*
X9479126Y-10075000D01*
X9416686Y-10081150D01*
X9336573Y-10105452D01*
X9262740Y-10144916D01*
X9198026Y-10198026D01*
X9184716Y-10214244D01*
X8895010Y-10503950D01*
X8895010Y-9106030D01*
X9076041Y-8925000D01*
X10692093Y-8925000D01*
X10706274Y-8946224D01*
X10803776Y-9043726D01*
X10918426Y-9120332D01*
X11045818Y-9173099D01*
X11181056Y-9200000D01*
X11318944Y-9200000D01*
X11454182Y-9173099D01*
X11581574Y-9120332D01*
X11696224Y-9043726D01*
X11793726Y-8946224D01*
X11870332Y-8831574D01*
X11923099Y-8704182D01*
X11950000Y-8568944D01*
X11950000Y-8431056D01*
X11923099Y-8295818D01*
X11911053Y-8266735D01*
X25850000Y-8266735D01*
X25850000Y-8493265D01*
X25894194Y-8715443D01*
X25980884Y-8924729D01*
X26106737Y-9113082D01*
X26266918Y-9273263D01*
X26455271Y-9399116D01*
X26664557Y-9485806D01*
X26886735Y-9530000D01*
X27113265Y-9530000D01*
X27335443Y-9485806D01*
X27544729Y-9399116D01*
X27733082Y-9273263D01*
X27893263Y-9113082D01*
X28019116Y-8924729D01*
X28105806Y-8715443D01*
X28150000Y-8493265D01*
X28150000Y-8266735D01*
X28105806Y-8044557D01*
X28019116Y-7835271D01*
X27893263Y-7646918D01*
X27733082Y-7486737D01*
X27544729Y-7360884D01*
X27335443Y-7274194D01*
X27113265Y-7230000D01*
X26886735Y-7230000D01*
X26664557Y-7274194D01*
X26455271Y-7360884D01*
X26266918Y-7486737D01*
X26106737Y-7646918D01*
X25980884Y-7835271D01*
X25894194Y-8044557D01*
X25850000Y-8266735D01*
X11911053Y-8266735D01*
X11870332Y-8168426D01*
X11793726Y-8053776D01*
X11696224Y-7956274D01*
X11581574Y-7879668D01*
X11454182Y-7826901D01*
X11318944Y-7800000D01*
X11181056Y-7800000D01*
X11045818Y-7826901D01*
X10918426Y-7879668D01*
X10803776Y-7956274D01*
X10706274Y-8053776D01*
X10692093Y-8075000D01*
X8920867Y-8075000D01*
X8900000Y-8072945D01*
X8879133Y-8075000D01*
X8879126Y-8075000D01*
X8816686Y-8081150D01*
X8736572Y-8105452D01*
X8710855Y-8119199D01*
X8662740Y-8144916D01*
X8598026Y-8198026D01*
X8584721Y-8214238D01*
X8445000Y-8353959D01*
X8445000Y-8156040D01*
X9406021Y-7195020D01*
X9431056Y-7200000D01*
X9568944Y-7200000D01*
X9704182Y-7173099D01*
X9831574Y-7120332D01*
X9946224Y-7043726D01*
X10043726Y-6946224D01*
X10120332Y-6831574D01*
X10173099Y-6704182D01*
X10200000Y-6568944D01*
X10200000Y-6431056D01*
X10173099Y-6295818D01*
X10120332Y-6168426D01*
X10043726Y-6053776D01*
X9946224Y-5956274D01*
X9831574Y-5879668D01*
X9704182Y-5826901D01*
X9568944Y-5800000D01*
X9431056Y-5800000D01*
X9295818Y-5826901D01*
X9168426Y-5879668D01*
X9053776Y-5956274D01*
X8956274Y-6053776D01*
X8879668Y-6168426D01*
X8826901Y-6295818D01*
X8800000Y-6431056D01*
X8800000Y-6568944D01*
X8804980Y-6593979D01*
X7734239Y-7664721D01*
X7718027Y-7678026D01*
X7664917Y-7742740D01*
X7647924Y-7774532D01*
X7625453Y-7816573D01*
X7601150Y-7896686D01*
X7592945Y-7980000D01*
X7595001Y-8000877D01*
X7595000Y-30681290D01*
X7475271Y-30730884D01*
X7286918Y-30856737D01*
X7269999Y-30873656D01*
X7269999Y-10865866D01*
X7272054Y-10844999D01*
X7269999Y-10824132D01*
X7269999Y-8840559D01*
X7272054Y-8819692D01*
X7269999Y-8798825D01*
X7269999Y-8798819D01*
X7263849Y-8736379D01*
X7239547Y-8656266D01*
X7200083Y-8582433D01*
X7146973Y-8517719D01*
X7130762Y-8504415D01*
X5675000Y-7048654D01*
X5675000Y-5726735D01*
X25850000Y-5726735D01*
X25850000Y-5953265D01*
X25894194Y-6175443D01*
X25980884Y-6384729D01*
X26106737Y-6573082D01*
X26266918Y-6733263D01*
X26455271Y-6859116D01*
X26664557Y-6945806D01*
X26886735Y-6990000D01*
X27113265Y-6990000D01*
X27335443Y-6945806D01*
X27544729Y-6859116D01*
X27733082Y-6733263D01*
X27893263Y-6573082D01*
X28019116Y-6384729D01*
X28105806Y-6175443D01*
X28150000Y-5953265D01*
X28150000Y-5726735D01*
X28105806Y-5504557D01*
X28019116Y-5295271D01*
X27893263Y-5106918D01*
X27733082Y-4946737D01*
X27544729Y-4820884D01*
X27335443Y-4734194D01*
X27113265Y-4690000D01*
X26886735Y-4690000D01*
X26664557Y-4734194D01*
X26455271Y-4820884D01*
X26266918Y-4946737D01*
X26106737Y-5106918D01*
X25980884Y-5295271D01*
X25894194Y-5504557D01*
X25850000Y-5726735D01*
X5675000Y-5726735D01*
X5675000Y-3186735D01*
X25850000Y-3186735D01*
X25850000Y-3413265D01*
X25894194Y-3635443D01*
X25980884Y-3844729D01*
X26106737Y-4033082D01*
X26266918Y-4193263D01*
X26455271Y-4319116D01*
X26664557Y-4405806D01*
X26886735Y-4450000D01*
X27113265Y-4450000D01*
X27335443Y-4405806D01*
X27544729Y-4319116D01*
X27733082Y-4193263D01*
X27893263Y-4033082D01*
X28019116Y-3844729D01*
X28105806Y-3635443D01*
X28150000Y-3413265D01*
X28150000Y-3186735D01*
X28105806Y-2964557D01*
X28019116Y-2755271D01*
X27893263Y-2566918D01*
X27733082Y-2406737D01*
X27544729Y-2280884D01*
X27335443Y-2194194D01*
X27113265Y-2150000D01*
X26886735Y-2150000D01*
X26664557Y-2194194D01*
X26455271Y-2280884D01*
X26266918Y-2406737D01*
X26106737Y-2566918D01*
X25980884Y-2755271D01*
X25894194Y-2964557D01*
X25850000Y-3186735D01*
X5675000Y-3186735D01*
X5675000Y-3057907D01*
X5696224Y-3043726D01*
X5793726Y-2946224D01*
X5870332Y-2831574D01*
X5923099Y-2704182D01*
X5950000Y-2568944D01*
X5950000Y-2431056D01*
X5923099Y-2295818D01*
X5870332Y-2168426D01*
X5793726Y-2053776D01*
X5696224Y-1956274D01*
X5581574Y-1879668D01*
X5454182Y-1826901D01*
X5318944Y-1800000D01*
X5181056Y-1800000D01*
X5045818Y-1826901D01*
X4918426Y-1879668D01*
X4803776Y-1956274D01*
X4706274Y-2053776D01*
X4629668Y-2168426D01*
X4576901Y-2295818D01*
X4550000Y-2431056D01*
X4550000Y-2568944D01*
X4576901Y-2704182D01*
X4629668Y-2831574D01*
X4706274Y-2946224D01*
X4803776Y-3043726D01*
X4825000Y-3057907D01*
X4825001Y-6376945D01*
X4704182Y-6326901D01*
X4568944Y-6300000D01*
X4431056Y-6300000D01*
X4295818Y-6326901D01*
X4168426Y-6379668D01*
X4053776Y-6456274D01*
X3956274Y-6553776D01*
X3879668Y-6668426D01*
X3826901Y-6795818D01*
X3800000Y-6931056D01*
X3800000Y-7068944D01*
X3826901Y-7204182D01*
X3879668Y-7331574D01*
X3956274Y-7446224D01*
X4053776Y-7543726D01*
X4168426Y-7620332D01*
X4295818Y-7673099D01*
X4431056Y-7700000D01*
X4487855Y-7700000D01*
X4575002Y-7787147D01*
X4575001Y-15079134D01*
X4572946Y-15100001D01*
X4575001Y-15120868D01*
X4575001Y-15120874D01*
X4581151Y-15183314D01*
X4605453Y-15263427D01*
X4644917Y-15337260D01*
X4698027Y-15401975D01*
X4704696Y-15407448D01*
X4700000Y-15431056D01*
X4700000Y-15568944D01*
X4726901Y-15704182D01*
X4779668Y-15831574D01*
X4856274Y-15946224D01*
X4953776Y-16043726D01*
X5068426Y-16120332D01*
X5195818Y-16173099D01*
X5331056Y-16200000D01*
X5468944Y-16200000D01*
X5604182Y-16173099D01*
X5731574Y-16120332D01*
X5846224Y-16043726D01*
X5943726Y-15946224D01*
X6020332Y-15831574D01*
X6073099Y-15704182D01*
X6100000Y-15568944D01*
X6100000Y-15431056D01*
X6073099Y-15295818D01*
X6020332Y-15168426D01*
X5943726Y-15053776D01*
X5846224Y-14956274D01*
X5731574Y-14879668D01*
X5604182Y-14826901D01*
X5468944Y-14800000D01*
X5425001Y-14800000D01*
X5425001Y-11149420D01*
X5456274Y-11196224D01*
X5553776Y-11293726D01*
X5668426Y-11370332D01*
X5795818Y-11423099D01*
X5931056Y-11450000D01*
X6068944Y-11450000D01*
X6204182Y-11423099D01*
X6331574Y-11370332D01*
X6419999Y-11311249D01*
X6420000Y-22851584D01*
X6403926Y-22770777D01*
X6215471Y-22315806D01*
X5941876Y-21906343D01*
X5593657Y-21558124D01*
X5184194Y-21284529D01*
X4729223Y-21096074D01*
X4246228Y-21000000D01*
X3753772Y-21000000D01*
X3270777Y-21096074D01*
X2815806Y-21284529D01*
X2406343Y-21558124D01*
X2058124Y-21906343D01*
X1784529Y-22315806D01*
X1596074Y-22770777D01*
X1500000Y-23253772D01*
X325000Y-23253772D01*
X325000Y-325000D01*
X29675000Y-325000D01*
X29675001Y-54675000D01*
G04 #@! TA.AperFunction,Conductor*
D18*
G36*
X29675001Y-54675000D02*
G01*
X325000Y-54675000D01*
X325000Y-50753772D01*
X1500000Y-50753772D01*
X1500000Y-51246228D01*
X1596074Y-51729223D01*
X1784529Y-52184194D01*
X2058124Y-52593657D01*
X2406343Y-52941876D01*
X2815806Y-53215471D01*
X3270777Y-53403926D01*
X3753772Y-53500000D01*
X4246228Y-53500000D01*
X4729223Y-53403926D01*
X5184194Y-53215471D01*
X5593657Y-52941876D01*
X5941876Y-52593657D01*
X6215471Y-52184194D01*
X6403926Y-51729223D01*
X6500000Y-51246228D01*
X6500000Y-50871961D01*
X7700000Y-50871961D01*
X7700000Y-51128039D01*
X7749958Y-51379196D01*
X7847955Y-51615781D01*
X7990224Y-51828702D01*
X8171298Y-52009776D01*
X8384219Y-52152045D01*
X8620804Y-52250042D01*
X8871961Y-52300000D01*
X9128039Y-52300000D01*
X9379196Y-52250042D01*
X9615781Y-52152045D01*
X9636503Y-52138199D01*
X12579590Y-52138199D01*
X12679181Y-52391762D01*
X12966472Y-52525154D01*
X13274265Y-52599934D01*
X13590735Y-52613230D01*
X13903716Y-52564531D01*
X14201184Y-52455708D01*
X14320819Y-52391762D01*
X14420410Y-52138199D01*
X15579590Y-52138199D01*
X15679181Y-52391762D01*
X15966472Y-52525154D01*
X16274265Y-52599934D01*
X16590735Y-52613230D01*
X16903716Y-52564531D01*
X17201184Y-52455708D01*
X17320819Y-52391762D01*
X17420410Y-52138199D01*
X16500000Y-51217789D01*
X15579590Y-52138199D01*
X14420410Y-52138199D01*
X13500000Y-51217789D01*
X12579590Y-52138199D01*
X9636503Y-52138199D01*
X9828702Y-52009776D01*
X10009776Y-51828702D01*
X10152045Y-51615781D01*
X10250042Y-51379196D01*
X10300000Y-51128039D01*
X10300000Y-51090735D01*
X11886770Y-51090735D01*
X11935469Y-51403716D01*
X12044292Y-51701184D01*
X12108238Y-51820819D01*
X12361801Y-51920410D01*
X13282211Y-51000000D01*
X13717789Y-51000000D01*
X14638199Y-51920410D01*
X14891762Y-51820819D01*
X15001553Y-51584358D01*
X15044292Y-51701184D01*
X15108238Y-51820819D01*
X15361801Y-51920410D01*
X16282211Y-51000000D01*
X16717789Y-51000000D01*
X17638199Y-51920410D01*
X17891762Y-51820819D01*
X18025154Y-51533528D01*
X18099934Y-51225735D01*
X18113230Y-50909265D01*
X18107426Y-50871961D01*
X19700000Y-50871961D01*
X19700000Y-51128039D01*
X19749958Y-51379196D01*
X19847955Y-51615781D01*
X19990224Y-51828702D01*
X20171298Y-52009776D01*
X20384219Y-52152045D01*
X20620804Y-52250042D01*
X20871961Y-52300000D01*
X21128039Y-52300000D01*
X21379196Y-52250042D01*
X21615781Y-52152045D01*
X21828702Y-52009776D01*
X22009776Y-51828702D01*
X22152045Y-51615781D01*
X22250042Y-51379196D01*
X22300000Y-51128039D01*
X22300000Y-50871961D01*
X22276491Y-50753772D01*
X23500000Y-50753772D01*
X23500000Y-51246228D01*
X23596074Y-51729223D01*
X23784529Y-52184194D01*
X24058124Y-52593657D01*
X24406343Y-52941876D01*
X24815806Y-53215471D01*
X25270777Y-53403926D01*
X25753772Y-53500000D01*
X26246228Y-53500000D01*
X26729223Y-53403926D01*
X27184194Y-53215471D01*
X27593657Y-52941876D01*
X27941876Y-52593657D01*
X28215471Y-52184194D01*
X28403926Y-51729223D01*
X28500000Y-51246228D01*
X28500000Y-50753772D01*
X28403926Y-50270777D01*
X28215471Y-49815806D01*
X27941876Y-49406343D01*
X27593657Y-49058124D01*
X27184194Y-48784529D01*
X26729223Y-48596074D01*
X26246228Y-48500000D01*
X25753772Y-48500000D01*
X25270777Y-48596074D01*
X24815806Y-48784529D01*
X24406343Y-49058124D01*
X24058124Y-49406343D01*
X23784529Y-49815806D01*
X23596074Y-50270777D01*
X23500000Y-50753772D01*
X22276491Y-50753772D01*
X22250042Y-50620804D01*
X22152045Y-50384219D01*
X22009776Y-50171298D01*
X21828702Y-49990224D01*
X21615781Y-49847955D01*
X21379196Y-49749958D01*
X21128039Y-49700000D01*
X20871961Y-49700000D01*
X20620804Y-49749958D01*
X20384219Y-49847955D01*
X20171298Y-49990224D01*
X19990224Y-50171298D01*
X19847955Y-50384219D01*
X19749958Y-50620804D01*
X19700000Y-50871961D01*
X18107426Y-50871961D01*
X18064531Y-50596284D01*
X17955708Y-50298816D01*
X17891762Y-50179181D01*
X17638199Y-50079590D01*
X16717789Y-51000000D01*
X16282211Y-51000000D01*
X15361801Y-50079590D01*
X15108238Y-50179181D01*
X14998447Y-50415642D01*
X14955708Y-50298816D01*
X14891762Y-50179181D01*
X14638199Y-50079590D01*
X13717789Y-51000000D01*
X13282211Y-51000000D01*
X12361801Y-50079590D01*
X12108238Y-50179181D01*
X11974846Y-50466472D01*
X11900066Y-50774265D01*
X11886770Y-51090735D01*
X10300000Y-51090735D01*
X10300000Y-50871961D01*
X10250042Y-50620804D01*
X10152045Y-50384219D01*
X10009776Y-50171298D01*
X9828702Y-49990224D01*
X9636504Y-49861801D01*
X12579590Y-49861801D01*
X13500000Y-50782211D01*
X14420410Y-49861801D01*
X15579590Y-49861801D01*
X16500000Y-50782211D01*
X17420410Y-49861801D01*
X17320819Y-49608238D01*
X17033528Y-49474846D01*
X16725735Y-49400066D01*
X16409265Y-49386770D01*
X16096284Y-49435469D01*
X15798816Y-49544292D01*
X15679181Y-49608238D01*
X15579590Y-49861801D01*
X14420410Y-49861801D01*
X14320819Y-49608238D01*
X14033528Y-49474846D01*
X13725735Y-49400066D01*
X13409265Y-49386770D01*
X13096284Y-49435469D01*
X12798816Y-49544292D01*
X12679181Y-49608238D01*
X12579590Y-49861801D01*
X9636504Y-49861801D01*
X9615781Y-49847955D01*
X9379196Y-49749958D01*
X9128039Y-49700000D01*
X8871961Y-49700000D01*
X8620804Y-49749958D01*
X8384219Y-49847955D01*
X8171298Y-49990224D01*
X7990224Y-50171298D01*
X7847955Y-50384219D01*
X7749958Y-50620804D01*
X7700000Y-50871961D01*
X6500000Y-50871961D01*
X6500000Y-50753772D01*
X6403926Y-50270777D01*
X6215471Y-49815806D01*
X5941876Y-49406343D01*
X5593657Y-49058124D01*
X5184194Y-48784529D01*
X4729223Y-48596074D01*
X4246228Y-48500000D01*
X3753772Y-48500000D01*
X3270777Y-48596074D01*
X2815806Y-48784529D01*
X2406343Y-49058124D01*
X2058124Y-49406343D01*
X1784529Y-49815806D01*
X1596074Y-50270777D01*
X1500000Y-50753772D01*
X325000Y-50753772D01*
X325000Y-44371961D01*
X7700000Y-44371961D01*
X7700000Y-44628039D01*
X7749958Y-44879196D01*
X7847955Y-45115781D01*
X7990224Y-45328702D01*
X8171298Y-45509776D01*
X8384219Y-45652045D01*
X8620804Y-45750042D01*
X8871961Y-45800000D01*
X9128039Y-45800000D01*
X9379196Y-45750042D01*
X9615781Y-45652045D01*
X9636503Y-45638199D01*
X12579590Y-45638199D01*
X12679181Y-45891762D01*
X12966472Y-46025154D01*
X13274265Y-46099934D01*
X13590735Y-46113230D01*
X13903716Y-46064531D01*
X14201184Y-45955708D01*
X14320819Y-45891762D01*
X14420410Y-45638199D01*
X15579590Y-45638199D01*
X15679181Y-45891762D01*
X15966472Y-46025154D01*
X16274265Y-46099934D01*
X16590735Y-46113230D01*
X16903716Y-46064531D01*
X17201184Y-45955708D01*
X17320819Y-45891762D01*
X17420410Y-45638199D01*
X16500000Y-44717789D01*
X15579590Y-45638199D01*
X14420410Y-45638199D01*
X13500000Y-44717789D01*
X12579590Y-45638199D01*
X9636503Y-45638199D01*
X9828702Y-45509776D01*
X10009776Y-45328702D01*
X10152045Y-45115781D01*
X10250042Y-44879196D01*
X10300000Y-44628039D01*
X10300000Y-44590735D01*
X11886770Y-44590735D01*
X11935469Y-44903716D01*
X12044292Y-45201184D01*
X12108238Y-45320819D01*
X12361801Y-45420410D01*
X13282211Y-44500000D01*
X13717789Y-44500000D01*
X14638199Y-45420410D01*
X14891762Y-45320819D01*
X15001553Y-45084358D01*
X15044292Y-45201184D01*
X15108238Y-45320819D01*
X15361801Y-45420410D01*
X16282211Y-44500000D01*
X16717789Y-44500000D01*
X17638199Y-45420410D01*
X17891762Y-45320819D01*
X18025154Y-45033528D01*
X18099934Y-44725735D01*
X18113230Y-44409265D01*
X18064531Y-44096284D01*
X17955708Y-43798816D01*
X17891762Y-43679181D01*
X17638199Y-43579590D01*
X16717789Y-44500000D01*
X16282211Y-44500000D01*
X15361801Y-43579590D01*
X15108238Y-43679181D01*
X14998447Y-43915642D01*
X14955708Y-43798816D01*
X14891762Y-43679181D01*
X14638199Y-43579590D01*
X13717789Y-44500000D01*
X13282211Y-44500000D01*
X12361801Y-43579590D01*
X12108238Y-43679181D01*
X11974846Y-43966472D01*
X11900066Y-44274265D01*
X11886770Y-44590735D01*
X10300000Y-44590735D01*
X10300000Y-44371961D01*
X10250042Y-44120804D01*
X10152045Y-43884219D01*
X10009776Y-43671298D01*
X9828702Y-43490224D01*
X9636504Y-43361801D01*
X12579590Y-43361801D01*
X13500000Y-44282211D01*
X14420410Y-43361801D01*
X15579590Y-43361801D01*
X16500000Y-44282211D01*
X17420410Y-43361801D01*
X17320819Y-43108238D01*
X17033528Y-42974846D01*
X16725735Y-42900066D01*
X16409265Y-42886770D01*
X16096284Y-42935469D01*
X15798816Y-43044292D01*
X15679181Y-43108238D01*
X15579590Y-43361801D01*
X14420410Y-43361801D01*
X14320819Y-43108238D01*
X14033528Y-42974846D01*
X13725735Y-42900066D01*
X13409265Y-42886770D01*
X13096284Y-42935469D01*
X12798816Y-43044292D01*
X12679181Y-43108238D01*
X12579590Y-43361801D01*
X9636504Y-43361801D01*
X9615781Y-43347955D01*
X9379196Y-43249958D01*
X9128039Y-43200000D01*
X8871961Y-43200000D01*
X8620804Y-43249958D01*
X8384219Y-43347955D01*
X8171298Y-43490224D01*
X7990224Y-43671298D01*
X7847955Y-43884219D01*
X7749958Y-44120804D01*
X7700000Y-44371961D01*
X325000Y-44371961D01*
X325000Y-31636735D01*
X1790000Y-31636735D01*
X1790000Y-31863265D01*
X1834194Y-32085443D01*
X1920884Y-32294729D01*
X2046737Y-32483082D01*
X2206918Y-32643263D01*
X2395271Y-32769116D01*
X2604557Y-32855806D01*
X2826735Y-32900000D01*
X3053265Y-32900000D01*
X3275443Y-32855806D01*
X3456142Y-32780957D01*
X4666832Y-32780957D01*
X4748221Y-33019207D01*
X5009891Y-33137583D01*
X5289628Y-33202634D01*
X5576681Y-33211862D01*
X5860018Y-33164911D01*
X6128752Y-33063587D01*
X6211779Y-33019207D01*
X6293168Y-32780957D01*
X5480000Y-31967789D01*
X4666832Y-32780957D01*
X3456142Y-32780957D01*
X3484729Y-32769116D01*
X3673082Y-32643263D01*
X3833263Y-32483082D01*
X3959116Y-32294729D01*
X4045806Y-32085443D01*
X4052296Y-32052816D01*
X4065089Y-32130018D01*
X4166413Y-32398752D01*
X4210793Y-32481779D01*
X4449043Y-32563168D01*
X5262211Y-31750000D01*
X4449043Y-30936832D01*
X4210793Y-31018221D01*
X4092417Y-31279891D01*
X4052858Y-31450007D01*
X4045806Y-31414557D01*
X3959116Y-31205271D01*
X3833263Y-31016918D01*
X3673082Y-30856737D01*
X3484729Y-30730884D01*
X3275443Y-30644194D01*
X3053265Y-30600000D01*
X2826735Y-30600000D01*
X2604557Y-30644194D01*
X2395271Y-30730884D01*
X2206918Y-30856737D01*
X2046737Y-31016918D01*
X1920884Y-31205271D01*
X1834194Y-31414557D01*
X1790000Y-31636735D01*
X325000Y-31636735D01*
X325000Y-23253772D01*
X1500000Y-23253772D01*
X1500000Y-23746228D01*
X1596074Y-24229223D01*
X1784529Y-24684194D01*
X2058124Y-25093657D01*
X2406343Y-25441876D01*
X2815806Y-25715471D01*
X3270777Y-25903926D01*
X3753772Y-26000000D01*
X4246228Y-26000000D01*
X4729223Y-25903926D01*
X5184194Y-25715471D01*
X5593657Y-25441876D01*
X5941876Y-25093657D01*
X6215471Y-24684194D01*
X6403926Y-24229223D01*
X6420000Y-24148416D01*
X6420000Y-30618784D01*
X6406712Y-30605496D01*
X6293167Y-30719041D01*
X6211779Y-30480793D01*
X5950109Y-30362417D01*
X5670372Y-30297366D01*
X5383319Y-30288138D01*
X5099982Y-30335089D01*
X4831248Y-30436413D01*
X4748221Y-30480793D01*
X4666832Y-30719043D01*
X5480000Y-31532211D01*
X5494142Y-31518069D01*
X5711931Y-31735858D01*
X5697789Y-31750000D01*
X6479428Y-32531639D01*
X6489916Y-32551261D01*
X6543026Y-32615975D01*
X6559238Y-32629280D01*
X9465714Y-35535756D01*
X9479024Y-35551974D01*
X9543738Y-35605084D01*
X9617571Y-35644548D01*
X9697684Y-35668850D01*
X9780998Y-35677056D01*
X9801872Y-35675000D01*
X19573960Y-35675000D01*
X20575000Y-36676041D01*
X20575001Y-43268930D01*
X20384219Y-43347955D01*
X20171298Y-43490224D01*
X19990224Y-43671298D01*
X19847955Y-43884219D01*
X19749958Y-44120804D01*
X19700000Y-44371961D01*
X19700000Y-44628039D01*
X19749958Y-44879196D01*
X19847955Y-45115781D01*
X19990224Y-45328702D01*
X20171298Y-45509776D01*
X20384219Y-45652045D01*
X20620804Y-45750042D01*
X20871961Y-45800000D01*
X21128039Y-45800000D01*
X21379196Y-45750042D01*
X21615781Y-45652045D01*
X21828702Y-45509776D01*
X22009776Y-45328702D01*
X22152045Y-45115781D01*
X22250042Y-44879196D01*
X22300000Y-44628039D01*
X22300000Y-44371961D01*
X22250042Y-44120804D01*
X22152045Y-43884219D01*
X22009776Y-43671298D01*
X21828702Y-43490224D01*
X21615781Y-43347955D01*
X21425000Y-43268931D01*
X21425000Y-36520867D01*
X21427055Y-36500000D01*
X21425000Y-36479133D01*
X21425000Y-36479126D01*
X21418850Y-36416686D01*
X21394548Y-36336573D01*
X21355084Y-36262740D01*
X21301974Y-36198026D01*
X21285763Y-36184722D01*
X20065283Y-34964243D01*
X20051974Y-34948026D01*
X19987260Y-34894916D01*
X19913427Y-34855452D01*
X19833314Y-34831150D01*
X19770874Y-34825000D01*
X19770867Y-34825000D01*
X19750000Y-34822945D01*
X19729133Y-34825000D01*
X9957038Y-34825000D01*
X8032038Y-32900000D01*
X8133265Y-32900000D01*
X8355443Y-32855806D01*
X8564729Y-32769116D01*
X8753082Y-32643263D01*
X8913263Y-32483082D01*
X9039116Y-32294729D01*
X9125806Y-32085443D01*
X9170000Y-31863265D01*
X9170000Y-31636735D01*
X9125806Y-31414557D01*
X9039116Y-31205271D01*
X8913263Y-31016918D01*
X8753082Y-30856737D01*
X8564729Y-30730884D01*
X8445000Y-30681290D01*
X8445000Y-30236040D01*
X9503788Y-31294828D01*
X9454194Y-31414557D01*
X9410000Y-31636735D01*
X9410000Y-31863265D01*
X9454194Y-32085443D01*
X9540884Y-32294729D01*
X9666737Y-32483082D01*
X9826918Y-32643263D01*
X10015271Y-32769116D01*
X10224557Y-32855806D01*
X10446735Y-32900000D01*
X10673265Y-32900000D01*
X10895443Y-32855806D01*
X11104729Y-32769116D01*
X11293082Y-32643263D01*
X11453263Y-32483082D01*
X11579116Y-32294729D01*
X11665806Y-32085443D01*
X11710000Y-31863265D01*
X11710000Y-31636735D01*
X11665806Y-31414557D01*
X11579116Y-31205271D01*
X11453263Y-31016918D01*
X11293082Y-30856737D01*
X11245584Y-30825000D01*
X12223960Y-30825000D01*
X13054980Y-31656021D01*
X13050000Y-31681056D01*
X13050000Y-31818944D01*
X13076901Y-31954182D01*
X13129668Y-32081574D01*
X13206274Y-32196224D01*
X13303776Y-32293726D01*
X13418426Y-32370332D01*
X13545818Y-32423099D01*
X13681056Y-32450000D01*
X13818944Y-32450000D01*
X13954182Y-32423099D01*
X14081574Y-32370332D01*
X14196224Y-32293726D01*
X14293726Y-32196224D01*
X14370332Y-32081574D01*
X14423099Y-31954182D01*
X14450000Y-31818944D01*
X14450000Y-31681056D01*
X14423099Y-31545818D01*
X14370332Y-31418426D01*
X14293726Y-31303776D01*
X14196224Y-31206274D01*
X14081574Y-31129668D01*
X13954182Y-31076901D01*
X13818944Y-31050000D01*
X13681056Y-31050000D01*
X13656021Y-31054980D01*
X12715283Y-30114243D01*
X12701974Y-30098026D01*
X12637260Y-30044916D01*
X12563427Y-30005452D01*
X12483314Y-29981150D01*
X12420874Y-29975000D01*
X12420867Y-29975000D01*
X12400000Y-29972945D01*
X12379133Y-29975000D01*
X10022451Y-29975000D01*
X9345020Y-29297570D01*
X9345020Y-23253772D01*
X23500000Y-23253772D01*
X23500000Y-23746228D01*
X23596074Y-24229223D01*
X23784529Y-24684194D01*
X24058124Y-25093657D01*
X24406343Y-25441876D01*
X24815806Y-25715471D01*
X25270777Y-25903926D01*
X25753772Y-26000000D01*
X26246228Y-26000000D01*
X26729223Y-25903926D01*
X27184194Y-25715471D01*
X27593657Y-25441876D01*
X27941876Y-25093657D01*
X28215471Y-24684194D01*
X28403926Y-24229223D01*
X28500000Y-23746228D01*
X28500000Y-23253772D01*
X28403926Y-22770777D01*
X28215471Y-22315806D01*
X27941876Y-21906343D01*
X27593657Y-21558124D01*
X27184194Y-21284529D01*
X26729223Y-21096074D01*
X26246228Y-21000000D01*
X25753772Y-21000000D01*
X25270777Y-21096074D01*
X24815806Y-21284529D01*
X24406343Y-21558124D01*
X24058124Y-21906343D01*
X23784529Y-22315806D01*
X23596074Y-22770777D01*
X23500000Y-23253772D01*
X9345020Y-23253772D01*
X9345020Y-16129381D01*
X9356274Y-16146224D01*
X9453776Y-16243726D01*
X9568426Y-16320332D01*
X9695818Y-16373099D01*
X9831056Y-16400000D01*
X9968944Y-16400000D01*
X10104182Y-16373099D01*
X10231574Y-16320332D01*
X10346224Y-16243726D01*
X10364950Y-16225000D01*
X14523960Y-16225000D01*
X20504980Y-22206021D01*
X20500000Y-22231056D01*
X20500000Y-22368944D01*
X20526901Y-22504182D01*
X20579668Y-22631574D01*
X20656274Y-22746224D01*
X20753776Y-22843726D01*
X20868426Y-22920332D01*
X20995818Y-22973099D01*
X21131056Y-23000000D01*
X21268944Y-23000000D01*
X21404182Y-22973099D01*
X21531574Y-22920332D01*
X21646224Y-22843726D01*
X21743726Y-22746224D01*
X21820332Y-22631574D01*
X21873099Y-22504182D01*
X21900000Y-22368944D01*
X21900000Y-22231056D01*
X21873099Y-22095818D01*
X21820332Y-21968426D01*
X21743726Y-21853776D01*
X21646224Y-21756274D01*
X21531574Y-21679668D01*
X21404182Y-21626901D01*
X21268944Y-21600000D01*
X21131056Y-21600000D01*
X21106021Y-21604980D01*
X16351041Y-16850000D01*
X25539058Y-16850000D01*
X25550797Y-16969189D01*
X25585563Y-17083797D01*
X25642020Y-17189421D01*
X25717999Y-17282001D01*
X25810579Y-17357980D01*
X25916203Y-17414437D01*
X26030811Y-17449203D01*
X26150000Y-17460942D01*
X26694000Y-17458000D01*
X26846000Y-17306000D01*
X26846000Y-16154000D01*
X27154000Y-16154000D01*
X27154000Y-17306000D01*
X27306000Y-17458000D01*
X27850000Y-17460942D01*
X27969189Y-17449203D01*
X28083797Y-17414437D01*
X28189421Y-17357980D01*
X28282001Y-17282001D01*
X28357980Y-17189421D01*
X28414437Y-17083797D01*
X28449203Y-16969189D01*
X28460942Y-16850000D01*
X28458000Y-16306000D01*
X28306000Y-16154000D01*
X27154000Y-16154000D01*
X26846000Y-16154000D01*
X25694000Y-16154000D01*
X25542000Y-16306000D01*
X25539058Y-16850000D01*
X16351041Y-16850000D01*
X15015284Y-15514244D01*
X15001974Y-15498026D01*
X14937260Y-15444916D01*
X14863427Y-15405452D01*
X14783314Y-15381150D01*
X14720874Y-15375000D01*
X14720867Y-15375000D01*
X14700000Y-15372945D01*
X14679133Y-15375000D01*
X10523055Y-15375000D01*
X10520332Y-15368426D01*
X10443726Y-15253776D01*
X10346224Y-15156274D01*
X10336835Y-15150000D01*
X25539058Y-15150000D01*
X25542000Y-15694000D01*
X25694000Y-15846000D01*
X26846000Y-15846000D01*
X26846000Y-15826000D01*
X27154000Y-15826000D01*
X27154000Y-15846000D01*
X28306000Y-15846000D01*
X28458000Y-15694000D01*
X28460942Y-15150000D01*
X28449203Y-15030811D01*
X28414437Y-14916203D01*
X28357980Y-14810579D01*
X28282001Y-14717999D01*
X28189421Y-14642020D01*
X28083797Y-14585563D01*
X27969189Y-14550797D01*
X27850000Y-14539058D01*
X27394065Y-14541524D01*
X27544729Y-14479116D01*
X27733082Y-14353263D01*
X27893263Y-14193082D01*
X28019116Y-14004729D01*
X28105806Y-13795443D01*
X28150000Y-13573265D01*
X28150000Y-13346735D01*
X28105806Y-13124557D01*
X28019116Y-12915271D01*
X27893263Y-12726918D01*
X27733082Y-12566737D01*
X27544729Y-12440884D01*
X27335443Y-12354194D01*
X27113265Y-12310000D01*
X26886735Y-12310000D01*
X26664557Y-12354194D01*
X26455271Y-12440884D01*
X26266918Y-12566737D01*
X26106737Y-12726918D01*
X25980884Y-12915271D01*
X25894194Y-13124557D01*
X25850000Y-13346735D01*
X25850000Y-13573265D01*
X25894194Y-13795443D01*
X25980884Y-14004729D01*
X26106737Y-14193082D01*
X26266918Y-14353263D01*
X26455271Y-14479116D01*
X26605935Y-14541524D01*
X26150000Y-14539058D01*
X26030811Y-14550797D01*
X25916203Y-14585563D01*
X25810579Y-14642020D01*
X25717999Y-14717999D01*
X25642020Y-14810579D01*
X25585563Y-14916203D01*
X25550797Y-15030811D01*
X25539058Y-15150000D01*
X10336835Y-15150000D01*
X10231574Y-15079668D01*
X10104182Y-15026901D01*
X9968944Y-15000000D01*
X9831056Y-15000000D01*
X9695818Y-15026901D01*
X9568426Y-15079668D01*
X9453776Y-15156274D01*
X9356274Y-15253776D01*
X9345020Y-15270619D01*
X9345020Y-11256020D01*
X9676040Y-10925000D01*
X12692093Y-10925000D01*
X12706274Y-10946224D01*
X12803776Y-11043726D01*
X12918426Y-11120332D01*
X13045818Y-11173099D01*
X13181056Y-11200000D01*
X13318944Y-11200000D01*
X13454182Y-11173099D01*
X13581574Y-11120332D01*
X13696224Y-11043726D01*
X13793726Y-10946224D01*
X13870332Y-10831574D01*
X13880620Y-10806735D01*
X25850000Y-10806735D01*
X25850000Y-11033265D01*
X25894194Y-11255443D01*
X25980884Y-11464729D01*
X26106737Y-11653082D01*
X26266918Y-11813263D01*
X26455271Y-11939116D01*
X26664557Y-12025806D01*
X26886735Y-12070000D01*
X27113265Y-12070000D01*
X27335443Y-12025806D01*
X27544729Y-11939116D01*
X27733082Y-11813263D01*
X27893263Y-11653082D01*
X28019116Y-11464729D01*
X28105806Y-11255443D01*
X28150000Y-11033265D01*
X28150000Y-10806735D01*
X28105806Y-10584557D01*
X28019116Y-10375271D01*
X27893263Y-10186918D01*
X27733082Y-10026737D01*
X27544729Y-9900884D01*
X27335443Y-9814194D01*
X27113265Y-9770000D01*
X26886735Y-9770000D01*
X26664557Y-9814194D01*
X26455271Y-9900884D01*
X26266918Y-10026737D01*
X26106737Y-10186918D01*
X25980884Y-10375271D01*
X25894194Y-10584557D01*
X25850000Y-10806735D01*
X13880620Y-10806735D01*
X13923099Y-10704182D01*
X13950000Y-10568944D01*
X13950000Y-10431056D01*
X13923099Y-10295818D01*
X13870332Y-10168426D01*
X13793726Y-10053776D01*
X13696224Y-9956274D01*
X13581574Y-9879668D01*
X13454182Y-9826901D01*
X13318944Y-9800000D01*
X13181056Y-9800000D01*
X13045818Y-9826901D01*
X12918426Y-9879668D01*
X12803776Y-9956274D01*
X12706274Y-10053776D01*
X12692093Y-10075000D01*
X9520874Y-10075000D01*
X9500000Y-10072944D01*
X9479126Y-10075000D01*
X9416686Y-10081150D01*
X9336573Y-10105452D01*
X9262740Y-10144916D01*
X9198026Y-10198026D01*
X9184716Y-10214244D01*
X8895010Y-10503950D01*
X8895010Y-9106030D01*
X9076041Y-8925000D01*
X10692093Y-8925000D01*
X10706274Y-8946224D01*
X10803776Y-9043726D01*
X10918426Y-9120332D01*
X11045818Y-9173099D01*
X11181056Y-9200000D01*
X11318944Y-9200000D01*
X11454182Y-9173099D01*
X11581574Y-9120332D01*
X11696224Y-9043726D01*
X11793726Y-8946224D01*
X11870332Y-8831574D01*
X11923099Y-8704182D01*
X11950000Y-8568944D01*
X11950000Y-8431056D01*
X11923099Y-8295818D01*
X11911053Y-8266735D01*
X25850000Y-8266735D01*
X25850000Y-8493265D01*
X25894194Y-8715443D01*
X25980884Y-8924729D01*
X26106737Y-9113082D01*
X26266918Y-9273263D01*
X26455271Y-9399116D01*
X26664557Y-9485806D01*
X26886735Y-9530000D01*
X27113265Y-9530000D01*
X27335443Y-9485806D01*
X27544729Y-9399116D01*
X27733082Y-9273263D01*
X27893263Y-9113082D01*
X28019116Y-8924729D01*
X28105806Y-8715443D01*
X28150000Y-8493265D01*
X28150000Y-8266735D01*
X28105806Y-8044557D01*
X28019116Y-7835271D01*
X27893263Y-7646918D01*
X27733082Y-7486737D01*
X27544729Y-7360884D01*
X27335443Y-7274194D01*
X27113265Y-7230000D01*
X26886735Y-7230000D01*
X26664557Y-7274194D01*
X26455271Y-7360884D01*
X26266918Y-7486737D01*
X26106737Y-7646918D01*
X25980884Y-7835271D01*
X25894194Y-8044557D01*
X25850000Y-8266735D01*
X11911053Y-8266735D01*
X11870332Y-8168426D01*
X11793726Y-8053776D01*
X11696224Y-7956274D01*
X11581574Y-7879668D01*
X11454182Y-7826901D01*
X11318944Y-7800000D01*
X11181056Y-7800000D01*
X11045818Y-7826901D01*
X10918426Y-7879668D01*
X10803776Y-7956274D01*
X10706274Y-8053776D01*
X10692093Y-8075000D01*
X8920867Y-8075000D01*
X8900000Y-8072945D01*
X8879133Y-8075000D01*
X8879126Y-8075000D01*
X8816686Y-8081150D01*
X8736572Y-8105452D01*
X8710855Y-8119199D01*
X8662740Y-8144916D01*
X8598026Y-8198026D01*
X8584721Y-8214238D01*
X8445000Y-8353959D01*
X8445000Y-8156040D01*
X9406021Y-7195020D01*
X9431056Y-7200000D01*
X9568944Y-7200000D01*
X9704182Y-7173099D01*
X9831574Y-7120332D01*
X9946224Y-7043726D01*
X10043726Y-6946224D01*
X10120332Y-6831574D01*
X10173099Y-6704182D01*
X10200000Y-6568944D01*
X10200000Y-6431056D01*
X10173099Y-6295818D01*
X10120332Y-6168426D01*
X10043726Y-6053776D01*
X9946224Y-5956274D01*
X9831574Y-5879668D01*
X9704182Y-5826901D01*
X9568944Y-5800000D01*
X9431056Y-5800000D01*
X9295818Y-5826901D01*
X9168426Y-5879668D01*
X9053776Y-5956274D01*
X8956274Y-6053776D01*
X8879668Y-6168426D01*
X8826901Y-6295818D01*
X8800000Y-6431056D01*
X8800000Y-6568944D01*
X8804980Y-6593979D01*
X7734239Y-7664721D01*
X7718027Y-7678026D01*
X7664917Y-7742740D01*
X7647924Y-7774532D01*
X7625453Y-7816573D01*
X7601150Y-7896686D01*
X7592945Y-7980000D01*
X7595001Y-8000877D01*
X7595000Y-30681290D01*
X7475271Y-30730884D01*
X7286918Y-30856737D01*
X7269999Y-30873656D01*
X7269999Y-10865866D01*
X7272054Y-10844999D01*
X7269999Y-10824132D01*
X7269999Y-8840559D01*
X7272054Y-8819692D01*
X7269999Y-8798825D01*
X7269999Y-8798819D01*
X7263849Y-8736379D01*
X7239547Y-8656266D01*
X7200083Y-8582433D01*
X7146973Y-8517719D01*
X7130762Y-8504415D01*
X5675000Y-7048654D01*
X5675000Y-5726735D01*
X25850000Y-5726735D01*
X25850000Y-5953265D01*
X25894194Y-6175443D01*
X25980884Y-6384729D01*
X26106737Y-6573082D01*
X26266918Y-6733263D01*
X26455271Y-6859116D01*
X26664557Y-6945806D01*
X26886735Y-6990000D01*
X27113265Y-6990000D01*
X27335443Y-6945806D01*
X27544729Y-6859116D01*
X27733082Y-6733263D01*
X27893263Y-6573082D01*
X28019116Y-6384729D01*
X28105806Y-6175443D01*
X28150000Y-5953265D01*
X28150000Y-5726735D01*
X28105806Y-5504557D01*
X28019116Y-5295271D01*
X27893263Y-5106918D01*
X27733082Y-4946737D01*
X27544729Y-4820884D01*
X27335443Y-4734194D01*
X27113265Y-4690000D01*
X26886735Y-4690000D01*
X26664557Y-4734194D01*
X26455271Y-4820884D01*
X26266918Y-4946737D01*
X26106737Y-5106918D01*
X25980884Y-5295271D01*
X25894194Y-5504557D01*
X25850000Y-5726735D01*
X5675000Y-5726735D01*
X5675000Y-3186735D01*
X25850000Y-3186735D01*
X25850000Y-3413265D01*
X25894194Y-3635443D01*
X25980884Y-3844729D01*
X26106737Y-4033082D01*
X26266918Y-4193263D01*
X26455271Y-4319116D01*
X26664557Y-4405806D01*
X26886735Y-4450000D01*
X27113265Y-4450000D01*
X27335443Y-4405806D01*
X27544729Y-4319116D01*
X27733082Y-4193263D01*
X27893263Y-4033082D01*
X28019116Y-3844729D01*
X28105806Y-3635443D01*
X28150000Y-3413265D01*
X28150000Y-3186735D01*
X28105806Y-2964557D01*
X28019116Y-2755271D01*
X27893263Y-2566918D01*
X27733082Y-2406737D01*
X27544729Y-2280884D01*
X27335443Y-2194194D01*
X27113265Y-2150000D01*
X26886735Y-2150000D01*
X26664557Y-2194194D01*
X26455271Y-2280884D01*
X26266918Y-2406737D01*
X26106737Y-2566918D01*
X25980884Y-2755271D01*
X25894194Y-2964557D01*
X25850000Y-3186735D01*
X5675000Y-3186735D01*
X5675000Y-3057907D01*
X5696224Y-3043726D01*
X5793726Y-2946224D01*
X5870332Y-2831574D01*
X5923099Y-2704182D01*
X5950000Y-2568944D01*
X5950000Y-2431056D01*
X5923099Y-2295818D01*
X5870332Y-2168426D01*
X5793726Y-2053776D01*
X5696224Y-1956274D01*
X5581574Y-1879668D01*
X5454182Y-1826901D01*
X5318944Y-1800000D01*
X5181056Y-1800000D01*
X5045818Y-1826901D01*
X4918426Y-1879668D01*
X4803776Y-1956274D01*
X4706274Y-2053776D01*
X4629668Y-2168426D01*
X4576901Y-2295818D01*
X4550000Y-2431056D01*
X4550000Y-2568944D01*
X4576901Y-2704182D01*
X4629668Y-2831574D01*
X4706274Y-2946224D01*
X4803776Y-3043726D01*
X4825000Y-3057907D01*
X4825001Y-6376945D01*
X4704182Y-6326901D01*
X4568944Y-6300000D01*
X4431056Y-6300000D01*
X4295818Y-6326901D01*
X4168426Y-6379668D01*
X4053776Y-6456274D01*
X3956274Y-6553776D01*
X3879668Y-6668426D01*
X3826901Y-6795818D01*
X3800000Y-6931056D01*
X3800000Y-7068944D01*
X3826901Y-7204182D01*
X3879668Y-7331574D01*
X3956274Y-7446224D01*
X4053776Y-7543726D01*
X4168426Y-7620332D01*
X4295818Y-7673099D01*
X4431056Y-7700000D01*
X4487855Y-7700000D01*
X4575002Y-7787147D01*
X4575001Y-15079134D01*
X4572946Y-15100001D01*
X4575001Y-15120868D01*
X4575001Y-15120874D01*
X4581151Y-15183314D01*
X4605453Y-15263427D01*
X4644917Y-15337260D01*
X4698027Y-15401975D01*
X4704696Y-15407448D01*
X4700000Y-15431056D01*
X4700000Y-15568944D01*
X4726901Y-15704182D01*
X4779668Y-15831574D01*
X4856274Y-15946224D01*
X4953776Y-16043726D01*
X5068426Y-16120332D01*
X5195818Y-16173099D01*
X5331056Y-16200000D01*
X5468944Y-16200000D01*
X5604182Y-16173099D01*
X5731574Y-16120332D01*
X5846224Y-16043726D01*
X5943726Y-15946224D01*
X6020332Y-15831574D01*
X6073099Y-15704182D01*
X6100000Y-15568944D01*
X6100000Y-15431056D01*
X6073099Y-15295818D01*
X6020332Y-15168426D01*
X5943726Y-15053776D01*
X5846224Y-14956274D01*
X5731574Y-14879668D01*
X5604182Y-14826901D01*
X5468944Y-14800000D01*
X5425001Y-14800000D01*
X5425001Y-11149420D01*
X5456274Y-11196224D01*
X5553776Y-11293726D01*
X5668426Y-11370332D01*
X5795818Y-11423099D01*
X5931056Y-11450000D01*
X6068944Y-11450000D01*
X6204182Y-11423099D01*
X6331574Y-11370332D01*
X6419999Y-11311249D01*
X6420000Y-22851584D01*
X6403926Y-22770777D01*
X6215471Y-22315806D01*
X5941876Y-21906343D01*
X5593657Y-21558124D01*
X5184194Y-21284529D01*
X4729223Y-21096074D01*
X4246228Y-21000000D01*
X3753772Y-21000000D01*
X3270777Y-21096074D01*
X2815806Y-21284529D01*
X2406343Y-21558124D01*
X2058124Y-21906343D01*
X1784529Y-22315806D01*
X1596074Y-22770777D01*
X1500000Y-23253772D01*
X325000Y-23253772D01*
X325000Y-325000D01*
X29675000Y-325000D01*
X29675001Y-54675000D01*
G37*
G04 #@! TD.AperFunction*
M02*
