G04 #@! TF.GenerationSoftware,KiCad,Pcbnew,5.99.0+really5.1.10+dfsg1-1*
G04 #@! TF.CreationDate,2022-07-07T23:47:34+02:00*
G04 #@! TF.ProjectId,sensorbox-battery-powered,73656e73-6f72-4626-9f78-2d6261747465,rev?*
G04 #@! TF.SameCoordinates,Original*
G04 #@! TF.FileFunction,Paste,Top*
G04 #@! TF.FilePolarity,Positive*
%FSLAX46Y46*%
G04 Gerber Fmt 4.6, Leading zero omitted, Abs format (unit mm)*
G04 Created by KiCad (PCBNEW 5.99.0+really5.1.10+dfsg1-1) date 2022-07-07 23:47:34*
%MOMM*%
%LPD*%
G01*
G04 APERTURE LIST*
%ADD10R,0.800000X0.900000*%
%ADD11R,1.100000X2.500000*%
%ADD12R,2.500000X1.100000*%
%ADD13C,0.100000*%
%ADD14R,1.300000X0.900000*%
G04 APERTURE END LIST*
G36*
G01*
X28950000Y-34800000D02*
X26050000Y-34800000D01*
G75*
G02*
X25800000Y-34550000I0J250000D01*
G01*
X25800000Y-33550000D01*
G75*
G02*
X26050000Y-33300000I250000J0D01*
G01*
X28950000Y-33300000D01*
G75*
G02*
X29200000Y-33550000I0J-250000D01*
G01*
X29200000Y-34550000D01*
G75*
G02*
X28950000Y-34800000I-250000J0D01*
G01*
G37*
G36*
G01*
X28950000Y-41500000D02*
X26050000Y-41500000D01*
G75*
G02*
X25800000Y-41250000I0J250000D01*
G01*
X25800000Y-40250000D01*
G75*
G02*
X26050000Y-40000000I250000J0D01*
G01*
X28950000Y-40000000D01*
G75*
G02*
X29200000Y-40250000I0J-250000D01*
G01*
X29200000Y-41250000D01*
G75*
G02*
X28950000Y-41500000I-250000J0D01*
G01*
G37*
G36*
G01*
X23250000Y-36900000D02*
X20250000Y-36900000D01*
G75*
G02*
X20000000Y-36650000I0J250000D01*
G01*
X20000000Y-36150000D01*
G75*
G02*
X20250000Y-35900000I250000J0D01*
G01*
X23250000Y-35900000D01*
G75*
G02*
X23500000Y-36150000I0J-250000D01*
G01*
X23500000Y-36650000D01*
G75*
G02*
X23250000Y-36900000I-250000J0D01*
G01*
G37*
G36*
G01*
X23250000Y-38900000D02*
X20250000Y-38900000D01*
G75*
G02*
X20000000Y-38650000I0J250000D01*
G01*
X20000000Y-38150000D01*
G75*
G02*
X20250000Y-37900000I250000J0D01*
G01*
X23250000Y-37900000D01*
G75*
G02*
X23500000Y-38150000I0J-250000D01*
G01*
X23500000Y-38650000D01*
G75*
G02*
X23250000Y-38900000I-250000J0D01*
G01*
G37*
G36*
G01*
X21650001Y-24100000D02*
X20749999Y-24100000D01*
G75*
G02*
X20500000Y-23850001I0J249999D01*
G01*
X20500000Y-23324999D01*
G75*
G02*
X20749999Y-23075000I249999J0D01*
G01*
X21650001Y-23075000D01*
G75*
G02*
X21900000Y-23324999I0J-249999D01*
G01*
X21900000Y-23850001D01*
G75*
G02*
X21650001Y-24100000I-249999J0D01*
G01*
G37*
G36*
G01*
X21650001Y-25925000D02*
X20749999Y-25925000D01*
G75*
G02*
X20500000Y-25675001I0J249999D01*
G01*
X20500000Y-25149999D01*
G75*
G02*
X20749999Y-24900000I249999J0D01*
G01*
X21650001Y-24900000D01*
G75*
G02*
X21900000Y-25149999I0J-249999D01*
G01*
X21900000Y-25675001D01*
G75*
G02*
X21650001Y-25925000I-249999J0D01*
G01*
G37*
D10*
X20100000Y-27200000D03*
X21050000Y-29200000D03*
X19150000Y-29200000D03*
G36*
G01*
X16549999Y-24900000D02*
X17450001Y-24900000D01*
G75*
G02*
X17700000Y-25149999I0J-249999D01*
G01*
X17700000Y-25675001D01*
G75*
G02*
X17450001Y-25925000I-249999J0D01*
G01*
X16549999Y-25925000D01*
G75*
G02*
X16300000Y-25675001I0J249999D01*
G01*
X16300000Y-25149999D01*
G75*
G02*
X16549999Y-24900000I249999J0D01*
G01*
G37*
G36*
G01*
X16549999Y-23075000D02*
X17450001Y-23075000D01*
G75*
G02*
X17700000Y-23324999I0J-249999D01*
G01*
X17700000Y-23850001D01*
G75*
G02*
X17450001Y-24100000I-249999J0D01*
G01*
X16549999Y-24100000D01*
G75*
G02*
X16300000Y-23850001I0J249999D01*
G01*
X16300000Y-23324999D01*
G75*
G02*
X16549999Y-23075000I249999J0D01*
G01*
G37*
G36*
G01*
X19350001Y-24100000D02*
X18449999Y-24100000D01*
G75*
G02*
X18200000Y-23850001I0J249999D01*
G01*
X18200000Y-23324999D01*
G75*
G02*
X18449999Y-23075000I249999J0D01*
G01*
X19350001Y-23075000D01*
G75*
G02*
X19600000Y-23324999I0J-249999D01*
G01*
X19600000Y-23850001D01*
G75*
G02*
X19350001Y-24100000I-249999J0D01*
G01*
G37*
G36*
G01*
X19350001Y-25925000D02*
X18449999Y-25925000D01*
G75*
G02*
X18200000Y-25675001I0J249999D01*
G01*
X18200000Y-25149999D01*
G75*
G02*
X18449999Y-24900000I249999J0D01*
G01*
X19350001Y-24900000D01*
G75*
G02*
X19600000Y-25149999I0J-249999D01*
G01*
X19600000Y-25675001D01*
G75*
G02*
X19350001Y-25925000I-249999J0D01*
G01*
G37*
D11*
X15490000Y-18200000D03*
X13490000Y-18200000D03*
X11490000Y-18200000D03*
X9490000Y-18200000D03*
X7490000Y-18200000D03*
X5490000Y-18200000D03*
D12*
X18200000Y-2500000D03*
X18200000Y-4500000D03*
X18200000Y-6500000D03*
X18200000Y-8500000D03*
X18200000Y-10500000D03*
X18200000Y-12500000D03*
X18200000Y-14500000D03*
X18200000Y-16500000D03*
X2800000Y-16500000D03*
X2800000Y-14500000D03*
X2800000Y-12500000D03*
X2800000Y-10500000D03*
X2800000Y-8500000D03*
X2800000Y-6500000D03*
X2800000Y-4500000D03*
X2800000Y-2500000D03*
G36*
G01*
X5475000Y-43550000D02*
X4525000Y-43550000D01*
G75*
G02*
X4275000Y-43300000I0J250000D01*
G01*
X4275000Y-42800000D01*
G75*
G02*
X4525000Y-42550000I250000J0D01*
G01*
X5475000Y-42550000D01*
G75*
G02*
X5725000Y-42800000I0J-250000D01*
G01*
X5725000Y-43300000D01*
G75*
G02*
X5475000Y-43550000I-250000J0D01*
G01*
G37*
G36*
G01*
X5475000Y-45450000D02*
X4525000Y-45450000D01*
G75*
G02*
X4275000Y-45200000I0J250000D01*
G01*
X4275000Y-44700000D01*
G75*
G02*
X4525000Y-44450000I250000J0D01*
G01*
X5475000Y-44450000D01*
G75*
G02*
X5725000Y-44700000I0J-250000D01*
G01*
X5725000Y-45200000D01*
G75*
G02*
X5475000Y-45450000I-250000J0D01*
G01*
G37*
G36*
G01*
X3450001Y-43600000D02*
X2549999Y-43600000D01*
G75*
G02*
X2300000Y-43350001I0J249999D01*
G01*
X2300000Y-42824999D01*
G75*
G02*
X2549999Y-42575000I249999J0D01*
G01*
X3450001Y-42575000D01*
G75*
G02*
X3700000Y-42824999I0J-249999D01*
G01*
X3700000Y-43350001D01*
G75*
G02*
X3450001Y-43600000I-249999J0D01*
G01*
G37*
G36*
G01*
X3450001Y-45425000D02*
X2549999Y-45425000D01*
G75*
G02*
X2300000Y-45175001I0J249999D01*
G01*
X2300000Y-44649999D01*
G75*
G02*
X2549999Y-44400000I249999J0D01*
G01*
X3450001Y-44400000D01*
G75*
G02*
X3700000Y-44649999I0J-249999D01*
G01*
X3700000Y-45175001D01*
G75*
G02*
X3450001Y-45425000I-249999J0D01*
G01*
G37*
G36*
G01*
X25475000Y-43550000D02*
X24525000Y-43550000D01*
G75*
G02*
X24275000Y-43300000I0J250000D01*
G01*
X24275000Y-42800000D01*
G75*
G02*
X24525000Y-42550000I250000J0D01*
G01*
X25475000Y-42550000D01*
G75*
G02*
X25725000Y-42800000I0J-250000D01*
G01*
X25725000Y-43300000D01*
G75*
G02*
X25475000Y-43550000I-250000J0D01*
G01*
G37*
G36*
G01*
X25475000Y-45450000D02*
X24525000Y-45450000D01*
G75*
G02*
X24275000Y-45200000I0J250000D01*
G01*
X24275000Y-44700000D01*
G75*
G02*
X24525000Y-44450000I250000J0D01*
G01*
X25475000Y-44450000D01*
G75*
G02*
X25725000Y-44700000I0J-250000D01*
G01*
X25725000Y-45200000D01*
G75*
G02*
X25475000Y-45450000I-250000J0D01*
G01*
G37*
D13*
G36*
X28000000Y-30766500D02*
G01*
X24875000Y-30766500D01*
X24875000Y-30350000D01*
X23400000Y-30350000D01*
X23400000Y-29450000D01*
X24875000Y-29450000D01*
X24875000Y-29033500D01*
X28000000Y-29033500D01*
X28000000Y-30766500D01*
G37*
D14*
X24050000Y-31400000D03*
X24050000Y-28400000D03*
G36*
G01*
X17775000Y-36850000D02*
X16825000Y-36850000D01*
G75*
G02*
X16575000Y-36600000I0J250000D01*
G01*
X16575000Y-36100000D01*
G75*
G02*
X16825000Y-35850000I250000J0D01*
G01*
X17775000Y-35850000D01*
G75*
G02*
X18025000Y-36100000I0J-250000D01*
G01*
X18025000Y-36600000D01*
G75*
G02*
X17775000Y-36850000I-250000J0D01*
G01*
G37*
G36*
G01*
X17775000Y-38750000D02*
X16825000Y-38750000D01*
G75*
G02*
X16575000Y-38500000I0J250000D01*
G01*
X16575000Y-38000000D01*
G75*
G02*
X16825000Y-37750000I250000J0D01*
G01*
X17775000Y-37750000D01*
G75*
G02*
X18025000Y-38000000I0J-250000D01*
G01*
X18025000Y-38500000D01*
G75*
G02*
X17775000Y-38750000I-250000J0D01*
G01*
G37*
G36*
G01*
X16750000Y-33025000D02*
X16750000Y-33975000D01*
G75*
G02*
X16500000Y-34225000I-250000J0D01*
G01*
X16000000Y-34225000D01*
G75*
G02*
X15750000Y-33975000I0J250000D01*
G01*
X15750000Y-33025000D01*
G75*
G02*
X16000000Y-32775000I250000J0D01*
G01*
X16500000Y-32775000D01*
G75*
G02*
X16750000Y-33025000I0J-250000D01*
G01*
G37*
G36*
G01*
X18650000Y-33025000D02*
X18650000Y-33975000D01*
G75*
G02*
X18400000Y-34225000I-250000J0D01*
G01*
X17900000Y-34225000D01*
G75*
G02*
X17650000Y-33975000I0J250000D01*
G01*
X17650000Y-33025000D01*
G75*
G02*
X17900000Y-32775000I250000J0D01*
G01*
X18400000Y-32775000D01*
G75*
G02*
X18650000Y-33025000I0J-250000D01*
G01*
G37*
G36*
G01*
X13650001Y-24100000D02*
X12749999Y-24100000D01*
G75*
G02*
X12500000Y-23850001I0J249999D01*
G01*
X12500000Y-23324999D01*
G75*
G02*
X12749999Y-23075000I249999J0D01*
G01*
X13650001Y-23075000D01*
G75*
G02*
X13900000Y-23324999I0J-249999D01*
G01*
X13900000Y-23850001D01*
G75*
G02*
X13650001Y-24100000I-249999J0D01*
G01*
G37*
G36*
G01*
X13650001Y-25925000D02*
X12749999Y-25925000D01*
G75*
G02*
X12500000Y-25675001I0J249999D01*
G01*
X12500000Y-25149999D01*
G75*
G02*
X12749999Y-24900000I249999J0D01*
G01*
X13650001Y-24900000D01*
G75*
G02*
X13900000Y-25149999I0J-249999D01*
G01*
X13900000Y-25675001D01*
G75*
G02*
X13650001Y-25925000I-249999J0D01*
G01*
G37*
G36*
G01*
X8825000Y-24950000D02*
X9775000Y-24950000D01*
G75*
G02*
X10025000Y-25200000I0J-250000D01*
G01*
X10025000Y-25700000D01*
G75*
G02*
X9775000Y-25950000I-250000J0D01*
G01*
X8825000Y-25950000D01*
G75*
G02*
X8575000Y-25700000I0J250000D01*
G01*
X8575000Y-25200000D01*
G75*
G02*
X8825000Y-24950000I250000J0D01*
G01*
G37*
G36*
G01*
X8825000Y-23050000D02*
X9775000Y-23050000D01*
G75*
G02*
X10025000Y-23300000I0J-250000D01*
G01*
X10025000Y-23800000D01*
G75*
G02*
X9775000Y-24050000I-250000J0D01*
G01*
X8825000Y-24050000D01*
G75*
G02*
X8575000Y-23800000I0J250000D01*
G01*
X8575000Y-23300000D01*
G75*
G02*
X8825000Y-23050000I250000J0D01*
G01*
G37*
G36*
G01*
X15550001Y-24100000D02*
X14649999Y-24100000D01*
G75*
G02*
X14400000Y-23850001I0J249999D01*
G01*
X14400000Y-23324999D01*
G75*
G02*
X14649999Y-23075000I249999J0D01*
G01*
X15550001Y-23075000D01*
G75*
G02*
X15800000Y-23324999I0J-249999D01*
G01*
X15800000Y-23850001D01*
G75*
G02*
X15550001Y-24100000I-249999J0D01*
G01*
G37*
G36*
G01*
X15550001Y-25925000D02*
X14649999Y-25925000D01*
G75*
G02*
X14400000Y-25675001I0J249999D01*
G01*
X14400000Y-25149999D01*
G75*
G02*
X14649999Y-24900000I249999J0D01*
G01*
X15550001Y-24900000D01*
G75*
G02*
X15800000Y-25149999I0J-249999D01*
G01*
X15800000Y-25675001D01*
G75*
G02*
X15550001Y-25925000I-249999J0D01*
G01*
G37*
G36*
G01*
X10849999Y-24900000D02*
X11750001Y-24900000D01*
G75*
G02*
X12000000Y-25149999I0J-249999D01*
G01*
X12000000Y-25675001D01*
G75*
G02*
X11750001Y-25925000I-249999J0D01*
G01*
X10849999Y-25925000D01*
G75*
G02*
X10600000Y-25675001I0J249999D01*
G01*
X10600000Y-25149999D01*
G75*
G02*
X10849999Y-24900000I249999J0D01*
G01*
G37*
G36*
G01*
X10849999Y-23075000D02*
X11750001Y-23075000D01*
G75*
G02*
X12000000Y-23324999I0J-249999D01*
G01*
X12000000Y-23850001D01*
G75*
G02*
X11750001Y-24100000I-249999J0D01*
G01*
X10849999Y-24100000D01*
G75*
G02*
X10600000Y-23850001I0J249999D01*
G01*
X10600000Y-23324999D01*
G75*
G02*
X10849999Y-23075000I249999J0D01*
G01*
G37*
G36*
G01*
X26549999Y-44400000D02*
X27450001Y-44400000D01*
G75*
G02*
X27700000Y-44649999I0J-249999D01*
G01*
X27700000Y-45175001D01*
G75*
G02*
X27450001Y-45425000I-249999J0D01*
G01*
X26549999Y-45425000D01*
G75*
G02*
X26300000Y-45175001I0J249999D01*
G01*
X26300000Y-44649999D01*
G75*
G02*
X26549999Y-44400000I249999J0D01*
G01*
G37*
G36*
G01*
X26549999Y-42575000D02*
X27450001Y-42575000D01*
G75*
G02*
X27700000Y-42824999I0J-249999D01*
G01*
X27700000Y-43350001D01*
G75*
G02*
X27450001Y-43600000I-249999J0D01*
G01*
X26549999Y-43600000D01*
G75*
G02*
X26300000Y-43350001I0J249999D01*
G01*
X26300000Y-42824999D01*
G75*
G02*
X26549999Y-42575000I249999J0D01*
G01*
G37*
M02*
