M48
; DRILL file {KiCad 5.99.0+really5.1.10+dfsg1-1} date Thu Jul  7 23:47:37 2022
; FORMAT={-:-/ absolute / metric / decimal}
; #@! TF.CreationDate,2022-07-07T23:47:37+02:00
; #@! TF.GenerationSoftware,Kicad,Pcbnew,5.99.0+really5.1.10+dfsg1-1
; #@! TF.FileFunction,Plated,1,2,PTH
FMAT,2
METRIC
T1C0.400
T2C1.000
T3C1.100
T4C2.200
%
G90
G05
T1
X4.5Y-7.0
X5.0Y-46.5
X5.25Y-2.5
X5.4Y-15.5
X6.0Y-10.75
X9.5Y-6.5
X9.645Y-27.0
X9.9Y-15.7
X11.25Y-8.5
X13.25Y-10.5
X13.75Y-31.75
X17.0Y-27.0
X18.95Y-36.35
X21.0Y-16.5
X21.2Y-22.3
X22.4Y-33.8
X22.4Y-35.0
X24.1Y-27.1
X25.0Y-46.5
T2
X2.94Y-31.75
X5.48Y-31.75
X8.02Y-31.75
X10.56Y-31.75
X27.0Y-3.3
X27.0Y-5.84
X27.0Y-8.38
X27.0Y-10.92
X27.0Y-13.46
X27.0Y-16.0
T3
X9.0Y-44.5
X9.0Y-51.0
X13.5Y-44.5
X13.5Y-51.0
X16.5Y-44.5
X16.5Y-51.0
X21.0Y-44.5
X21.0Y-51.0
T4
X4.0Y-23.5
X4.0Y-51.0
X26.0Y-23.5
X26.0Y-51.0
T0
M30
