%FSLAX45Y45*%
G04 Gerber Fmt 4.5, Leading zero omitted, Abs format (unit mm)*
G04 Created by KiCad (PCBNEW 5.99.0+really5.1.10+dfsg1-1) date 2022-07-07 23:47:38*
%MOMM*%
%LPD*%
G01*
G04 APERTURE LIST*
%TA.AperFunction,Profile*%
%ADD10C,0.050000*%
%TD*%
%ADD11C,0.200000*%
%ADD12C,0.300000*%
G04 APERTURE END LIST*
D10*
X0Y-5500000D02*
X0Y0D01*
X3000000Y-5500000D02*
X0Y-5500000D01*
X3000000Y0D02*
X3000000Y-5500000D01*
X0Y0D02*
X3000000Y0D01*
D11*
D12*
X283928Y-5968214D02*
X283928Y-5668214D01*
X355357Y-5668214D01*
X398214Y-5682500D01*
X426786Y-5711071D01*
X441071Y-5739643D01*
X455357Y-5796786D01*
X455357Y-5839643D01*
X441071Y-5896786D01*
X426786Y-5925357D01*
X398214Y-5953929D01*
X355357Y-5968214D01*
X283928Y-5968214D01*
X583928Y-5968214D02*
X583928Y-5768214D01*
X583928Y-5825357D02*
X598214Y-5796786D01*
X612500Y-5782500D01*
X641071Y-5768214D01*
X669643Y-5768214D01*
X769643Y-5968214D02*
X769643Y-5768214D01*
X769643Y-5668214D02*
X755357Y-5682500D01*
X769643Y-5696786D01*
X783928Y-5682500D01*
X769643Y-5668214D01*
X769643Y-5696786D01*
X955357Y-5968214D02*
X926786Y-5953929D01*
X912500Y-5925357D01*
X912500Y-5668214D01*
X1112500Y-5968214D02*
X1083928Y-5953929D01*
X1069643Y-5925357D01*
X1069643Y-5668214D01*
X1455357Y-5968214D02*
X1455357Y-5668214D01*
X1555357Y-5882500D01*
X1655357Y-5668214D01*
X1655357Y-5968214D01*
X1926786Y-5968214D02*
X1926786Y-5811071D01*
X1912500Y-5782500D01*
X1883928Y-5768214D01*
X1826786Y-5768214D01*
X1798214Y-5782500D01*
X1926786Y-5953929D02*
X1898214Y-5968214D01*
X1826786Y-5968214D01*
X1798214Y-5953929D01*
X1783928Y-5925357D01*
X1783928Y-5896786D01*
X1798214Y-5868214D01*
X1826786Y-5853929D01*
X1898214Y-5853929D01*
X1926786Y-5839643D01*
X2069643Y-5768214D02*
X2069643Y-6068214D01*
X2069643Y-5782500D02*
X2098214Y-5768214D01*
X2155357Y-5768214D01*
X2183928Y-5782500D01*
X2198214Y-5796786D01*
X2212500Y-5825357D01*
X2212500Y-5911071D01*
X2198214Y-5939643D01*
X2183928Y-5953929D01*
X2155357Y-5968214D01*
X2098214Y-5968214D01*
X2069643Y-5953929D01*
X2341071Y-5939643D02*
X2355357Y-5953929D01*
X2341071Y-5968214D01*
X2326786Y-5953929D01*
X2341071Y-5939643D01*
X2341071Y-5968214D01*
X2341071Y-5782500D02*
X2355357Y-5796786D01*
X2341071Y-5811071D01*
X2326786Y-5796786D01*
X2341071Y-5782500D01*
X2341071Y-5811071D01*
M02*
