M48
; DRILL file {KiCad 5.1.5+dfsg1-2build2} date Sat 24 Oct 2020 03:12:57 PM CEST
; FORMAT={-:-/ absolute / inch / decimal}
; #@! TF.CreationDate,2020-10-24T15:12:57+02:00
; #@! TF.GenerationSoftware,Kicad,Pcbnew,5.1.5+dfsg1-2build2
FMAT,2
INCH
T1C0.0157
T2C0.0300
T3C0.0354
T4C0.0394
T5C0.0433
T6C0.1260
%
G90
G05
T1
X1.1024Y-2.6772
X1.1417Y-2.7559
X1.2992Y-2.8346
X1.378Y-2.7559
X1.5354Y-2.8346
X1.6142Y-2.7559
X1.7717Y-2.8346
X1.7791Y-2.6205
X1.9291Y-1.9685
X1.9291Y-2.4803
T2
X2.4213Y-2.2122
X2.4213Y-2.3122
X2.4213Y-2.4122
X2.4213Y-2.5122
X0.4921Y-2.9602
X0.4921Y-3.0602
X0.4921Y-3.1602
X0.4921Y-3.2602
X1.7791Y-1.8701
X1.8791Y-1.8701
X1.9791Y-1.8701
X2.0791Y-1.8701
T3
X1.4961Y-3.1496
X1.5961Y-3.1496
X1.2598Y-3.1496
X1.3598Y-3.1496
X1.0236Y-3.1496
X1.1236Y-3.1496
T4
X0.315Y-1.8728
X0.315Y-2.7728
X0.415Y-1.8728
X0.415Y-2.7728
X0.515Y-1.8728
X0.515Y-2.7728
X0.615Y-1.8728
X0.615Y-2.7728
X0.715Y-1.8728
X0.715Y-2.7728
X0.815Y-1.8728
X0.815Y-2.7728
X0.915Y-1.8728
X0.915Y-2.7728
X1.015Y-1.8728
X1.015Y-2.7728
X1.0272Y-0.4606
X1.0272Y-0.5606
X1.1272Y-0.4606
X1.1272Y-0.5606
X1.2272Y-0.4606
X1.2272Y-0.5606
X1.3272Y-0.4606
X1.3272Y-0.5606
X1.4272Y-0.4606
X1.4272Y-0.5606
X1.5272Y-0.4606
X1.5272Y-0.5606
X1.6272Y-0.4606
X1.6272Y-0.5606
X1.7272Y-0.4606
X1.7272Y-0.5606
T5
X1.8504Y-3.0315
X1.8504Y-3.2087
X2.1063Y-3.0315
X2.1063Y-3.2087
T6
X2.3622Y-0.1969
X0.1969Y-3.1496
X0.1969Y-0.1969
X2.3622Y-3.1496
T0
M30
