G04 #@! TF.GenerationSoftware,KiCad,Pcbnew,5.1.6+dfsg1-1*
G04 #@! TF.CreationDate,2020-12-01T22:33:45+01:00*
G04 #@! TF.ProjectId,sensorbox,73656e73-6f72-4626-9f78-2e6b69636164,rev?*
G04 #@! TF.SameCoordinates,Original*
G04 #@! TF.FileFunction,Copper,L1,Top*
G04 #@! TF.FilePolarity,Positive*
%FSLAX46Y46*%
G04 Gerber Fmt 4.6, Leading zero omitted, Abs format (unit mm)*
G04 Created by KiCad (PCBNEW 5.1.6+dfsg1-1) date 2020-12-01 22:33:45*
%MOMM*%
%LPD*%
G01*
G04 APERTURE LIST*
G04 #@! TA.AperFunction,ComponentPad*
%ADD10C,1.700000*%
G04 #@! TD*
G04 #@! TA.AperFunction,ComponentPad*
%ADD11C,1.800000*%
G04 #@! TD*
G04 #@! TA.AperFunction,ComponentPad*
%ADD12R,1.800000X1.800000*%
G04 #@! TD*
G04 #@! TA.AperFunction,ComponentPad*
%ADD13C,6.400000*%
G04 #@! TD*
G04 #@! TA.AperFunction,ComponentPad*
%ADD14C,2.000000*%
G04 #@! TD*
G04 #@! TA.AperFunction,ViaPad*
%ADD15C,0.800000*%
G04 #@! TD*
G04 #@! TA.AperFunction,Conductor*
%ADD16C,0.250000*%
G04 #@! TD*
G04 APERTURE END LIST*
D10*
X35240000Y-36710000D03*
X35240000Y-31630000D03*
X35240000Y-34170000D03*
X35240000Y-39250000D03*
X35240000Y-46870000D03*
X35240000Y-49410000D03*
X35240000Y-44330000D03*
X35240000Y-41790000D03*
X32700000Y-49410000D03*
X32700000Y-46870000D03*
X32700000Y-44330000D03*
X32700000Y-41790000D03*
X32700000Y-39250000D03*
X32700000Y-36710000D03*
X32700000Y-34170000D03*
X32700000Y-31630000D03*
X11190000Y-35819999D03*
X13730000Y-35819999D03*
X16270000Y-35819999D03*
X18810000Y-35819999D03*
X27500000Y-27129999D03*
X27500000Y-24589999D03*
X27500000Y-22049999D03*
X27500000Y-19509999D03*
X45690000Y-11500000D03*
X48230000Y-11500000D03*
X50770000Y-11500000D03*
X53310000Y-11500000D03*
X27430000Y-45220000D03*
X27430000Y-60460000D03*
X27430000Y-63000000D03*
X27430000Y-47760000D03*
X27430000Y-50300000D03*
X27430000Y-57920000D03*
X27430000Y-55380000D03*
X27430000Y-52840000D03*
X4570000Y-45220000D03*
X4570000Y-47760000D03*
X4570000Y-50300000D03*
X4570000Y-52840000D03*
X4570000Y-55380000D03*
X4570000Y-57920000D03*
X4570000Y-60460000D03*
X4570000Y-63000000D03*
D11*
X13460000Y-5000000D03*
D12*
X16000000Y-5000000D03*
D11*
X19460000Y-5000000D03*
D12*
X22000000Y-5000000D03*
D13*
X60000000Y-76000000D03*
D11*
X25460000Y-5000000D03*
D12*
X28000000Y-5000000D03*
D14*
X32500000Y-8000000D03*
X32500000Y-3500000D03*
X39000000Y-8000000D03*
X39000000Y-3500000D03*
D13*
X5000000Y-76000000D03*
X60000000Y-5000000D03*
X5000000Y-5000000D03*
D15*
X27500000Y-17000000D03*
X32725000Y-59500000D03*
X46000000Y-23000000D03*
X44000000Y-25314999D03*
X28394693Y-33919998D03*
X28000000Y-12500000D03*
X22000000Y-12500000D03*
X16000000Y-12500000D03*
X4500000Y-42000000D03*
D16*
X27500000Y-19509999D02*
X27500000Y-17000000D01*
X32725000Y-59500000D02*
X32500000Y-59275000D01*
X32500000Y-59275000D02*
X32500000Y-51985412D01*
X35075412Y-49410000D02*
X35240000Y-49410000D01*
X32500000Y-51985412D02*
X35075412Y-49410000D01*
X47270000Y-8000000D02*
X50770000Y-11500000D01*
X39000000Y-8000000D02*
X47270000Y-8000000D01*
X32500000Y-8000000D02*
X39000000Y-8000000D01*
X30500000Y-61032592D02*
X28532592Y-63000000D01*
X28532592Y-63000000D02*
X27430000Y-63000000D01*
X30500000Y-61000000D02*
X30500000Y-61032592D01*
X31000000Y-60500000D02*
X30500000Y-61000000D01*
X31000000Y-38410000D02*
X31000000Y-60500000D01*
X32700000Y-36710000D02*
X31000000Y-38410000D01*
X27500000Y-22049999D02*
X29589990Y-24139989D01*
X29589990Y-24139989D02*
X41500000Y-24139989D01*
X41500000Y-24139989D02*
X45360011Y-24139989D01*
X45360011Y-24139989D02*
X46000000Y-23500000D01*
X46000000Y-23500000D02*
X46000000Y-23000000D01*
X27994001Y-64175001D02*
X31500000Y-60669002D01*
X8285001Y-64175001D02*
X27994001Y-64175001D01*
X4570000Y-60460000D02*
X8285001Y-64175001D01*
X31500000Y-50610000D02*
X32700000Y-49410000D01*
X31500000Y-60669002D02*
X31500000Y-50610000D01*
X34064999Y-49784003D02*
X34064999Y-48045001D01*
X32000000Y-51849002D02*
X34064999Y-49784003D01*
X32000000Y-60805412D02*
X32000000Y-51849002D01*
X34064999Y-48045001D02*
X35240000Y-46870000D01*
X28180402Y-64625010D02*
X32000000Y-60805412D01*
X4456009Y-64625011D02*
X28180402Y-64625010D01*
X3394999Y-63564001D02*
X4456009Y-64625011D01*
X3394999Y-59095001D02*
X3394999Y-63564001D01*
X4570000Y-57920000D02*
X3394999Y-59095001D01*
X27500000Y-27129999D02*
X29589990Y-25040009D01*
X43725010Y-25040009D02*
X44000000Y-25314999D01*
X29589990Y-25040009D02*
X43725010Y-25040009D01*
X27500000Y-32000000D02*
X27500000Y-27129999D01*
X30500000Y-35000000D02*
X27500000Y-32000000D01*
X30500000Y-49770000D02*
X30500000Y-35000000D01*
X27430000Y-52840000D02*
X30500000Y-49770000D01*
X30000000Y-47730000D02*
X30000000Y-36000000D01*
X27430000Y-50300000D02*
X30000000Y-47730000D01*
X30000000Y-36000000D02*
X30000000Y-35500000D01*
X30000000Y-35500000D02*
X28500000Y-34000000D01*
X28419998Y-33919998D02*
X28394693Y-33919998D01*
X28500000Y-34000000D02*
X28419998Y-33919998D01*
X45546411Y-24589999D02*
X27500000Y-24589999D01*
X48230000Y-21906410D02*
X45546411Y-24589999D01*
X48230000Y-11500000D02*
X48230000Y-21906410D01*
X28000000Y-12500000D02*
X28000000Y-5000000D01*
X22000000Y-12500000D02*
X22000000Y-5000000D01*
X16000000Y-12500000D02*
X16000000Y-5000000D01*
X3394999Y-49124999D02*
X3394999Y-44605001D01*
X4570000Y-50300000D02*
X3394999Y-49124999D01*
X4500000Y-43500000D02*
X4500000Y-42000000D01*
X3394999Y-44605001D02*
X4500000Y-43500000D01*
M02*
