G04 #@! TF.GenerationSoftware,KiCad,Pcbnew,5.1.5+dfsg1-2build2*
G04 #@! TF.CreationDate,2020-10-24T15:12:09+02:00*
G04 #@! TF.ProjectId,sensorbox,73656e73-6f72-4626-9f78-2e6b69636164,rev?*
G04 #@! TF.SameCoordinates,Original*
G04 #@! TF.FileFunction,Copper,L2,Bot*
G04 #@! TF.FilePolarity,Positive*
%FSLAX46Y46*%
G04 Gerber Fmt 4.6, Leading zero omitted, Abs format (unit mm)*
G04 Created by KiCad (PCBNEW 5.1.5+dfsg1-2build2) date 2020-10-24 15:12:09*
%MOMM*%
%LPD*%
G04 APERTURE LIST*
%ADD10C,1.524000*%
%ADD11C,0.100000*%
%ADD12R,0.900000X0.800000*%
%ADD13C,1.800000*%
%ADD14R,1.800000X1.800000*%
%ADD15C,2.000000*%
%ADD16C,1.700000*%
%ADD17C,6.400000*%
%ADD18C,0.800000*%
%ADD19C,0.250000*%
G04 APERTURE END LIST*
D10*
X52810000Y-47500000D03*
X50270000Y-47500000D03*
X47730000Y-47500000D03*
X45190000Y-47500000D03*
X61500000Y-63810000D03*
X61500000Y-61270000D03*
X61500000Y-58730000D03*
X61500000Y-56190000D03*
G04 #@! TA.AperFunction,SMDPad,CuDef*
D11*
G36*
X35480142Y-75451174D02*
G01*
X35503803Y-75454684D01*
X35527007Y-75460496D01*
X35549529Y-75468554D01*
X35571153Y-75478782D01*
X35591670Y-75491079D01*
X35610883Y-75505329D01*
X35628607Y-75521393D01*
X35644671Y-75539117D01*
X35658921Y-75558330D01*
X35671218Y-75578847D01*
X35681446Y-75600471D01*
X35689504Y-75622993D01*
X35695316Y-75646197D01*
X35698826Y-75669858D01*
X35700000Y-75693750D01*
X35700000Y-76181250D01*
X35698826Y-76205142D01*
X35695316Y-76228803D01*
X35689504Y-76252007D01*
X35681446Y-76274529D01*
X35671218Y-76296153D01*
X35658921Y-76316670D01*
X35644671Y-76335883D01*
X35628607Y-76353607D01*
X35610883Y-76369671D01*
X35591670Y-76383921D01*
X35571153Y-76396218D01*
X35549529Y-76406446D01*
X35527007Y-76414504D01*
X35503803Y-76420316D01*
X35480142Y-76423826D01*
X35456250Y-76425000D01*
X34543750Y-76425000D01*
X34519858Y-76423826D01*
X34496197Y-76420316D01*
X34472993Y-76414504D01*
X34450471Y-76406446D01*
X34428847Y-76396218D01*
X34408330Y-76383921D01*
X34389117Y-76369671D01*
X34371393Y-76353607D01*
X34355329Y-76335883D01*
X34341079Y-76316670D01*
X34328782Y-76296153D01*
X34318554Y-76274529D01*
X34310496Y-76252007D01*
X34304684Y-76228803D01*
X34301174Y-76205142D01*
X34300000Y-76181250D01*
X34300000Y-75693750D01*
X34301174Y-75669858D01*
X34304684Y-75646197D01*
X34310496Y-75622993D01*
X34318554Y-75600471D01*
X34328782Y-75578847D01*
X34341079Y-75558330D01*
X34355329Y-75539117D01*
X34371393Y-75521393D01*
X34389117Y-75505329D01*
X34408330Y-75491079D01*
X34428847Y-75478782D01*
X34450471Y-75468554D01*
X34472993Y-75460496D01*
X34496197Y-75454684D01*
X34519858Y-75451174D01*
X34543750Y-75450000D01*
X35456250Y-75450000D01*
X35480142Y-75451174D01*
G37*
G04 #@! TD.AperFunction*
G04 #@! TA.AperFunction,SMDPad,CuDef*
G36*
X35480142Y-73576174D02*
G01*
X35503803Y-73579684D01*
X35527007Y-73585496D01*
X35549529Y-73593554D01*
X35571153Y-73603782D01*
X35591670Y-73616079D01*
X35610883Y-73630329D01*
X35628607Y-73646393D01*
X35644671Y-73664117D01*
X35658921Y-73683330D01*
X35671218Y-73703847D01*
X35681446Y-73725471D01*
X35689504Y-73747993D01*
X35695316Y-73771197D01*
X35698826Y-73794858D01*
X35700000Y-73818750D01*
X35700000Y-74306250D01*
X35698826Y-74330142D01*
X35695316Y-74353803D01*
X35689504Y-74377007D01*
X35681446Y-74399529D01*
X35671218Y-74421153D01*
X35658921Y-74441670D01*
X35644671Y-74460883D01*
X35628607Y-74478607D01*
X35610883Y-74494671D01*
X35591670Y-74508921D01*
X35571153Y-74521218D01*
X35549529Y-74531446D01*
X35527007Y-74539504D01*
X35503803Y-74545316D01*
X35480142Y-74548826D01*
X35456250Y-74550000D01*
X34543750Y-74550000D01*
X34519858Y-74548826D01*
X34496197Y-74545316D01*
X34472993Y-74539504D01*
X34450471Y-74531446D01*
X34428847Y-74521218D01*
X34408330Y-74508921D01*
X34389117Y-74494671D01*
X34371393Y-74478607D01*
X34355329Y-74460883D01*
X34341079Y-74441670D01*
X34328782Y-74421153D01*
X34318554Y-74399529D01*
X34310496Y-74377007D01*
X34304684Y-74353803D01*
X34301174Y-74330142D01*
X34300000Y-74306250D01*
X34300000Y-73818750D01*
X34301174Y-73794858D01*
X34304684Y-73771197D01*
X34310496Y-73747993D01*
X34318554Y-73725471D01*
X34328782Y-73703847D01*
X34341079Y-73683330D01*
X34355329Y-73664117D01*
X34371393Y-73646393D01*
X34389117Y-73630329D01*
X34408330Y-73616079D01*
X34428847Y-73603782D01*
X34450471Y-73593554D01*
X34472993Y-73585496D01*
X34496197Y-73579684D01*
X34519858Y-73576174D01*
X34543750Y-73575000D01*
X35456250Y-73575000D01*
X35480142Y-73576174D01*
G37*
G04 #@! TD.AperFunction*
G04 #@! TA.AperFunction,SMDPad,CuDef*
G36*
X29480142Y-75451174D02*
G01*
X29503803Y-75454684D01*
X29527007Y-75460496D01*
X29549529Y-75468554D01*
X29571153Y-75478782D01*
X29591670Y-75491079D01*
X29610883Y-75505329D01*
X29628607Y-75521393D01*
X29644671Y-75539117D01*
X29658921Y-75558330D01*
X29671218Y-75578847D01*
X29681446Y-75600471D01*
X29689504Y-75622993D01*
X29695316Y-75646197D01*
X29698826Y-75669858D01*
X29700000Y-75693750D01*
X29700000Y-76181250D01*
X29698826Y-76205142D01*
X29695316Y-76228803D01*
X29689504Y-76252007D01*
X29681446Y-76274529D01*
X29671218Y-76296153D01*
X29658921Y-76316670D01*
X29644671Y-76335883D01*
X29628607Y-76353607D01*
X29610883Y-76369671D01*
X29591670Y-76383921D01*
X29571153Y-76396218D01*
X29549529Y-76406446D01*
X29527007Y-76414504D01*
X29503803Y-76420316D01*
X29480142Y-76423826D01*
X29456250Y-76425000D01*
X28543750Y-76425000D01*
X28519858Y-76423826D01*
X28496197Y-76420316D01*
X28472993Y-76414504D01*
X28450471Y-76406446D01*
X28428847Y-76396218D01*
X28408330Y-76383921D01*
X28389117Y-76369671D01*
X28371393Y-76353607D01*
X28355329Y-76335883D01*
X28341079Y-76316670D01*
X28328782Y-76296153D01*
X28318554Y-76274529D01*
X28310496Y-76252007D01*
X28304684Y-76228803D01*
X28301174Y-76205142D01*
X28300000Y-76181250D01*
X28300000Y-75693750D01*
X28301174Y-75669858D01*
X28304684Y-75646197D01*
X28310496Y-75622993D01*
X28318554Y-75600471D01*
X28328782Y-75578847D01*
X28341079Y-75558330D01*
X28355329Y-75539117D01*
X28371393Y-75521393D01*
X28389117Y-75505329D01*
X28408330Y-75491079D01*
X28428847Y-75478782D01*
X28450471Y-75468554D01*
X28472993Y-75460496D01*
X28496197Y-75454684D01*
X28519858Y-75451174D01*
X28543750Y-75450000D01*
X29456250Y-75450000D01*
X29480142Y-75451174D01*
G37*
G04 #@! TD.AperFunction*
G04 #@! TA.AperFunction,SMDPad,CuDef*
G36*
X29480142Y-73576174D02*
G01*
X29503803Y-73579684D01*
X29527007Y-73585496D01*
X29549529Y-73593554D01*
X29571153Y-73603782D01*
X29591670Y-73616079D01*
X29610883Y-73630329D01*
X29628607Y-73646393D01*
X29644671Y-73664117D01*
X29658921Y-73683330D01*
X29671218Y-73703847D01*
X29681446Y-73725471D01*
X29689504Y-73747993D01*
X29695316Y-73771197D01*
X29698826Y-73794858D01*
X29700000Y-73818750D01*
X29700000Y-74306250D01*
X29698826Y-74330142D01*
X29695316Y-74353803D01*
X29689504Y-74377007D01*
X29681446Y-74399529D01*
X29671218Y-74421153D01*
X29658921Y-74441670D01*
X29644671Y-74460883D01*
X29628607Y-74478607D01*
X29610883Y-74494671D01*
X29591670Y-74508921D01*
X29571153Y-74521218D01*
X29549529Y-74531446D01*
X29527007Y-74539504D01*
X29503803Y-74545316D01*
X29480142Y-74548826D01*
X29456250Y-74550000D01*
X28543750Y-74550000D01*
X28519858Y-74548826D01*
X28496197Y-74545316D01*
X28472993Y-74539504D01*
X28450471Y-74531446D01*
X28428847Y-74521218D01*
X28408330Y-74508921D01*
X28389117Y-74494671D01*
X28371393Y-74478607D01*
X28355329Y-74460883D01*
X28341079Y-74441670D01*
X28328782Y-74421153D01*
X28318554Y-74399529D01*
X28310496Y-74377007D01*
X28304684Y-74353803D01*
X28301174Y-74330142D01*
X28300000Y-74306250D01*
X28300000Y-73818750D01*
X28301174Y-73794858D01*
X28304684Y-73771197D01*
X28310496Y-73747993D01*
X28318554Y-73725471D01*
X28328782Y-73703847D01*
X28341079Y-73683330D01*
X28355329Y-73664117D01*
X28371393Y-73646393D01*
X28389117Y-73630329D01*
X28408330Y-73616079D01*
X28428847Y-73603782D01*
X28450471Y-73593554D01*
X28472993Y-73585496D01*
X28496197Y-73579684D01*
X28519858Y-73576174D01*
X28543750Y-73575000D01*
X29456250Y-73575000D01*
X29480142Y-73576174D01*
G37*
G04 #@! TD.AperFunction*
D12*
X45000000Y-69000000D03*
X43000000Y-68050000D03*
X43000000Y-69950000D03*
X39000000Y-69000000D03*
X37000000Y-68050000D03*
X37000000Y-69950000D03*
D13*
X40540000Y-80000000D03*
D14*
X38000000Y-80000000D03*
D13*
X34540000Y-80000000D03*
D14*
X32000000Y-80000000D03*
G04 #@! TA.AperFunction,SMDPad,CuDef*
D11*
G36*
X41480142Y-75451174D02*
G01*
X41503803Y-75454684D01*
X41527007Y-75460496D01*
X41549529Y-75468554D01*
X41571153Y-75478782D01*
X41591670Y-75491079D01*
X41610883Y-75505329D01*
X41628607Y-75521393D01*
X41644671Y-75539117D01*
X41658921Y-75558330D01*
X41671218Y-75578847D01*
X41681446Y-75600471D01*
X41689504Y-75622993D01*
X41695316Y-75646197D01*
X41698826Y-75669858D01*
X41700000Y-75693750D01*
X41700000Y-76181250D01*
X41698826Y-76205142D01*
X41695316Y-76228803D01*
X41689504Y-76252007D01*
X41681446Y-76274529D01*
X41671218Y-76296153D01*
X41658921Y-76316670D01*
X41644671Y-76335883D01*
X41628607Y-76353607D01*
X41610883Y-76369671D01*
X41591670Y-76383921D01*
X41571153Y-76396218D01*
X41549529Y-76406446D01*
X41527007Y-76414504D01*
X41503803Y-76420316D01*
X41480142Y-76423826D01*
X41456250Y-76425000D01*
X40543750Y-76425000D01*
X40519858Y-76423826D01*
X40496197Y-76420316D01*
X40472993Y-76414504D01*
X40450471Y-76406446D01*
X40428847Y-76396218D01*
X40408330Y-76383921D01*
X40389117Y-76369671D01*
X40371393Y-76353607D01*
X40355329Y-76335883D01*
X40341079Y-76316670D01*
X40328782Y-76296153D01*
X40318554Y-76274529D01*
X40310496Y-76252007D01*
X40304684Y-76228803D01*
X40301174Y-76205142D01*
X40300000Y-76181250D01*
X40300000Y-75693750D01*
X40301174Y-75669858D01*
X40304684Y-75646197D01*
X40310496Y-75622993D01*
X40318554Y-75600471D01*
X40328782Y-75578847D01*
X40341079Y-75558330D01*
X40355329Y-75539117D01*
X40371393Y-75521393D01*
X40389117Y-75505329D01*
X40408330Y-75491079D01*
X40428847Y-75478782D01*
X40450471Y-75468554D01*
X40472993Y-75460496D01*
X40496197Y-75454684D01*
X40519858Y-75451174D01*
X40543750Y-75450000D01*
X41456250Y-75450000D01*
X41480142Y-75451174D01*
G37*
G04 #@! TD.AperFunction*
G04 #@! TA.AperFunction,SMDPad,CuDef*
G36*
X41480142Y-73576174D02*
G01*
X41503803Y-73579684D01*
X41527007Y-73585496D01*
X41549529Y-73593554D01*
X41571153Y-73603782D01*
X41591670Y-73616079D01*
X41610883Y-73630329D01*
X41628607Y-73646393D01*
X41644671Y-73664117D01*
X41658921Y-73683330D01*
X41671218Y-73703847D01*
X41681446Y-73725471D01*
X41689504Y-73747993D01*
X41695316Y-73771197D01*
X41698826Y-73794858D01*
X41700000Y-73818750D01*
X41700000Y-74306250D01*
X41698826Y-74330142D01*
X41695316Y-74353803D01*
X41689504Y-74377007D01*
X41681446Y-74399529D01*
X41671218Y-74421153D01*
X41658921Y-74441670D01*
X41644671Y-74460883D01*
X41628607Y-74478607D01*
X41610883Y-74494671D01*
X41591670Y-74508921D01*
X41571153Y-74521218D01*
X41549529Y-74531446D01*
X41527007Y-74539504D01*
X41503803Y-74545316D01*
X41480142Y-74548826D01*
X41456250Y-74550000D01*
X40543750Y-74550000D01*
X40519858Y-74548826D01*
X40496197Y-74545316D01*
X40472993Y-74539504D01*
X40450471Y-74531446D01*
X40428847Y-74521218D01*
X40408330Y-74508921D01*
X40389117Y-74494671D01*
X40371393Y-74478607D01*
X40355329Y-74460883D01*
X40341079Y-74441670D01*
X40328782Y-74421153D01*
X40318554Y-74399529D01*
X40310496Y-74377007D01*
X40304684Y-74353803D01*
X40301174Y-74330142D01*
X40300000Y-74306250D01*
X40300000Y-73818750D01*
X40301174Y-73794858D01*
X40304684Y-73771197D01*
X40310496Y-73747993D01*
X40318554Y-73725471D01*
X40328782Y-73703847D01*
X40341079Y-73683330D01*
X40355329Y-73664117D01*
X40371393Y-73646393D01*
X40389117Y-73630329D01*
X40408330Y-73616079D01*
X40428847Y-73603782D01*
X40450471Y-73593554D01*
X40472993Y-73585496D01*
X40496197Y-73579684D01*
X40519858Y-73576174D01*
X40543750Y-73575000D01*
X41456250Y-73575000D01*
X41480142Y-73576174D01*
G37*
G04 #@! TD.AperFunction*
G04 #@! TA.AperFunction,SMDPad,CuDef*
G36*
X17330142Y-77301174D02*
G01*
X17353803Y-77304684D01*
X17377007Y-77310496D01*
X17399529Y-77318554D01*
X17421153Y-77328782D01*
X17441670Y-77341079D01*
X17460883Y-77355329D01*
X17478607Y-77371393D01*
X17494671Y-77389117D01*
X17508921Y-77408330D01*
X17521218Y-77428847D01*
X17531446Y-77450471D01*
X17539504Y-77472993D01*
X17545316Y-77496197D01*
X17548826Y-77519858D01*
X17550000Y-77543750D01*
X17550000Y-78456250D01*
X17548826Y-78480142D01*
X17545316Y-78503803D01*
X17539504Y-78527007D01*
X17531446Y-78549529D01*
X17521218Y-78571153D01*
X17508921Y-78591670D01*
X17494671Y-78610883D01*
X17478607Y-78628607D01*
X17460883Y-78644671D01*
X17441670Y-78658921D01*
X17421153Y-78671218D01*
X17399529Y-78681446D01*
X17377007Y-78689504D01*
X17353803Y-78695316D01*
X17330142Y-78698826D01*
X17306250Y-78700000D01*
X16818750Y-78700000D01*
X16794858Y-78698826D01*
X16771197Y-78695316D01*
X16747993Y-78689504D01*
X16725471Y-78681446D01*
X16703847Y-78671218D01*
X16683330Y-78658921D01*
X16664117Y-78644671D01*
X16646393Y-78628607D01*
X16630329Y-78610883D01*
X16616079Y-78591670D01*
X16603782Y-78571153D01*
X16593554Y-78549529D01*
X16585496Y-78527007D01*
X16579684Y-78503803D01*
X16576174Y-78480142D01*
X16575000Y-78456250D01*
X16575000Y-77543750D01*
X16576174Y-77519858D01*
X16579684Y-77496197D01*
X16585496Y-77472993D01*
X16593554Y-77450471D01*
X16603782Y-77428847D01*
X16616079Y-77408330D01*
X16630329Y-77389117D01*
X16646393Y-77371393D01*
X16664117Y-77355329D01*
X16683330Y-77341079D01*
X16703847Y-77328782D01*
X16725471Y-77318554D01*
X16747993Y-77310496D01*
X16771197Y-77304684D01*
X16794858Y-77301174D01*
X16818750Y-77300000D01*
X17306250Y-77300000D01*
X17330142Y-77301174D01*
G37*
G04 #@! TD.AperFunction*
G04 #@! TA.AperFunction,SMDPad,CuDef*
G36*
X19205142Y-77301174D02*
G01*
X19228803Y-77304684D01*
X19252007Y-77310496D01*
X19274529Y-77318554D01*
X19296153Y-77328782D01*
X19316670Y-77341079D01*
X19335883Y-77355329D01*
X19353607Y-77371393D01*
X19369671Y-77389117D01*
X19383921Y-77408330D01*
X19396218Y-77428847D01*
X19406446Y-77450471D01*
X19414504Y-77472993D01*
X19420316Y-77496197D01*
X19423826Y-77519858D01*
X19425000Y-77543750D01*
X19425000Y-78456250D01*
X19423826Y-78480142D01*
X19420316Y-78503803D01*
X19414504Y-78527007D01*
X19406446Y-78549529D01*
X19396218Y-78571153D01*
X19383921Y-78591670D01*
X19369671Y-78610883D01*
X19353607Y-78628607D01*
X19335883Y-78644671D01*
X19316670Y-78658921D01*
X19296153Y-78671218D01*
X19274529Y-78681446D01*
X19252007Y-78689504D01*
X19228803Y-78695316D01*
X19205142Y-78698826D01*
X19181250Y-78700000D01*
X18693750Y-78700000D01*
X18669858Y-78698826D01*
X18646197Y-78695316D01*
X18622993Y-78689504D01*
X18600471Y-78681446D01*
X18578847Y-78671218D01*
X18558330Y-78658921D01*
X18539117Y-78644671D01*
X18521393Y-78628607D01*
X18505329Y-78610883D01*
X18491079Y-78591670D01*
X18478782Y-78571153D01*
X18468554Y-78549529D01*
X18460496Y-78527007D01*
X18454684Y-78503803D01*
X18451174Y-78480142D01*
X18450000Y-78456250D01*
X18450000Y-77543750D01*
X18451174Y-77519858D01*
X18454684Y-77496197D01*
X18460496Y-77472993D01*
X18468554Y-77450471D01*
X18478782Y-77428847D01*
X18491079Y-77408330D01*
X18505329Y-77389117D01*
X18521393Y-77371393D01*
X18539117Y-77355329D01*
X18558330Y-77341079D01*
X18578847Y-77328782D01*
X18600471Y-77318554D01*
X18622993Y-77310496D01*
X18646197Y-77304684D01*
X18669858Y-77301174D01*
X18693750Y-77300000D01*
X19181250Y-77300000D01*
X19205142Y-77301174D01*
G37*
G04 #@! TD.AperFunction*
G04 #@! TA.AperFunction,SMDPad,CuDef*
G36*
X17330142Y-75301174D02*
G01*
X17353803Y-75304684D01*
X17377007Y-75310496D01*
X17399529Y-75318554D01*
X17421153Y-75328782D01*
X17441670Y-75341079D01*
X17460883Y-75355329D01*
X17478607Y-75371393D01*
X17494671Y-75389117D01*
X17508921Y-75408330D01*
X17521218Y-75428847D01*
X17531446Y-75450471D01*
X17539504Y-75472993D01*
X17545316Y-75496197D01*
X17548826Y-75519858D01*
X17550000Y-75543750D01*
X17550000Y-76456250D01*
X17548826Y-76480142D01*
X17545316Y-76503803D01*
X17539504Y-76527007D01*
X17531446Y-76549529D01*
X17521218Y-76571153D01*
X17508921Y-76591670D01*
X17494671Y-76610883D01*
X17478607Y-76628607D01*
X17460883Y-76644671D01*
X17441670Y-76658921D01*
X17421153Y-76671218D01*
X17399529Y-76681446D01*
X17377007Y-76689504D01*
X17353803Y-76695316D01*
X17330142Y-76698826D01*
X17306250Y-76700000D01*
X16818750Y-76700000D01*
X16794858Y-76698826D01*
X16771197Y-76695316D01*
X16747993Y-76689504D01*
X16725471Y-76681446D01*
X16703847Y-76671218D01*
X16683330Y-76658921D01*
X16664117Y-76644671D01*
X16646393Y-76628607D01*
X16630329Y-76610883D01*
X16616079Y-76591670D01*
X16603782Y-76571153D01*
X16593554Y-76549529D01*
X16585496Y-76527007D01*
X16579684Y-76503803D01*
X16576174Y-76480142D01*
X16575000Y-76456250D01*
X16575000Y-75543750D01*
X16576174Y-75519858D01*
X16579684Y-75496197D01*
X16585496Y-75472993D01*
X16593554Y-75450471D01*
X16603782Y-75428847D01*
X16616079Y-75408330D01*
X16630329Y-75389117D01*
X16646393Y-75371393D01*
X16664117Y-75355329D01*
X16683330Y-75341079D01*
X16703847Y-75328782D01*
X16725471Y-75318554D01*
X16747993Y-75310496D01*
X16771197Y-75304684D01*
X16794858Y-75301174D01*
X16818750Y-75300000D01*
X17306250Y-75300000D01*
X17330142Y-75301174D01*
G37*
G04 #@! TD.AperFunction*
G04 #@! TA.AperFunction,SMDPad,CuDef*
G36*
X19205142Y-75301174D02*
G01*
X19228803Y-75304684D01*
X19252007Y-75310496D01*
X19274529Y-75318554D01*
X19296153Y-75328782D01*
X19316670Y-75341079D01*
X19335883Y-75355329D01*
X19353607Y-75371393D01*
X19369671Y-75389117D01*
X19383921Y-75408330D01*
X19396218Y-75428847D01*
X19406446Y-75450471D01*
X19414504Y-75472993D01*
X19420316Y-75496197D01*
X19423826Y-75519858D01*
X19425000Y-75543750D01*
X19425000Y-76456250D01*
X19423826Y-76480142D01*
X19420316Y-76503803D01*
X19414504Y-76527007D01*
X19406446Y-76549529D01*
X19396218Y-76571153D01*
X19383921Y-76591670D01*
X19369671Y-76610883D01*
X19353607Y-76628607D01*
X19335883Y-76644671D01*
X19316670Y-76658921D01*
X19296153Y-76671218D01*
X19274529Y-76681446D01*
X19252007Y-76689504D01*
X19228803Y-76695316D01*
X19205142Y-76698826D01*
X19181250Y-76700000D01*
X18693750Y-76700000D01*
X18669858Y-76698826D01*
X18646197Y-76695316D01*
X18622993Y-76689504D01*
X18600471Y-76681446D01*
X18578847Y-76671218D01*
X18558330Y-76658921D01*
X18539117Y-76644671D01*
X18521393Y-76628607D01*
X18505329Y-76610883D01*
X18491079Y-76591670D01*
X18478782Y-76571153D01*
X18468554Y-76549529D01*
X18460496Y-76527007D01*
X18454684Y-76503803D01*
X18451174Y-76480142D01*
X18450000Y-76456250D01*
X18450000Y-75543750D01*
X18451174Y-75519858D01*
X18454684Y-75496197D01*
X18460496Y-75472993D01*
X18468554Y-75450471D01*
X18478782Y-75428847D01*
X18491079Y-75408330D01*
X18505329Y-75389117D01*
X18521393Y-75371393D01*
X18539117Y-75355329D01*
X18558330Y-75341079D01*
X18578847Y-75328782D01*
X18600471Y-75318554D01*
X18622993Y-75310496D01*
X18646197Y-75304684D01*
X18669858Y-75301174D01*
X18693750Y-75300000D01*
X19181250Y-75300000D01*
X19205142Y-75301174D01*
G37*
G04 #@! TD.AperFunction*
D13*
X28540000Y-80000000D03*
D14*
X26000000Y-80000000D03*
D12*
X33000000Y-69000000D03*
X31000000Y-68050000D03*
X31000000Y-69950000D03*
D15*
X53500000Y-77000000D03*
X53500000Y-81500000D03*
X47000000Y-77000000D03*
X47000000Y-81500000D03*
D16*
X8000000Y-47570000D03*
X10540000Y-47570000D03*
X13080000Y-47570000D03*
X15620000Y-47570000D03*
X18160000Y-47570000D03*
X20700000Y-47570000D03*
X23240000Y-47570000D03*
X25780000Y-47570000D03*
X18160000Y-70430000D03*
X15620000Y-70430000D03*
X13080000Y-70430000D03*
X20700000Y-70430000D03*
X23240000Y-70430000D03*
X8000000Y-70430000D03*
X10540000Y-70430000D03*
X25780000Y-70430000D03*
D10*
X12500000Y-75190000D03*
X12500000Y-77730000D03*
X12500000Y-80270000D03*
X12500000Y-82810000D03*
D16*
X38790000Y-14240000D03*
X43870000Y-14240000D03*
X41330000Y-14240000D03*
X36250000Y-14240000D03*
X28630000Y-14240000D03*
X26090000Y-14240000D03*
X31170000Y-14240000D03*
X33710000Y-14240000D03*
X26090000Y-11700000D03*
X28630000Y-11700000D03*
X31170000Y-11700000D03*
X33710000Y-11700000D03*
X36250000Y-11700000D03*
X38790000Y-11700000D03*
X41330000Y-11700000D03*
X43870000Y-11700000D03*
D17*
X60000000Y-80000000D03*
X5000000Y-80000000D03*
X60000000Y-5000000D03*
X5000000Y-5000000D03*
D18*
X45190000Y-66560000D03*
X28000000Y-68000000D03*
X49000000Y-50000000D03*
X49000000Y-63000000D03*
X33000000Y-72000000D03*
X39000000Y-72000000D03*
X45000000Y-72000000D03*
X29000000Y-70000000D03*
X35000000Y-70000000D03*
X41000000Y-70000000D03*
D19*
X31700000Y-68050000D02*
X37000000Y-68050000D01*
X31000000Y-68050000D02*
X31700000Y-68050000D01*
X37000000Y-68050000D02*
X43000000Y-68050000D01*
X47000000Y-75585787D02*
X47000000Y-77000000D01*
X47000000Y-69564998D02*
X47000000Y-75585787D01*
X45485002Y-68050000D02*
X47000000Y-69564998D01*
X43000000Y-68050000D02*
X45485002Y-68050000D01*
X47000000Y-77000000D02*
X53500000Y-77000000D01*
X43700000Y-68050000D02*
X45190000Y-66560000D01*
X43000000Y-68050000D02*
X43700000Y-68050000D01*
X28050000Y-68050000D02*
X28000000Y-68000000D01*
X31000000Y-68050000D02*
X28050000Y-68050000D01*
X25830000Y-14500000D02*
X26090000Y-14240000D01*
X25000000Y-15000000D02*
X25760000Y-14240000D01*
X12500000Y-15000000D02*
X25000000Y-15000000D01*
X12000000Y-15500000D02*
X12500000Y-15000000D01*
X11715001Y-47031409D02*
X12000000Y-46746410D01*
X10000000Y-50000000D02*
X11715001Y-48284999D01*
X12000000Y-46746410D02*
X12000000Y-15500000D01*
X10000000Y-68687919D02*
X10000000Y-50000000D01*
X10540000Y-69227919D02*
X10000000Y-68687919D01*
X25760000Y-14240000D02*
X26090000Y-14240000D01*
X11715001Y-48284999D02*
X11715001Y-47031409D01*
X10540000Y-70430000D02*
X10540000Y-69227919D01*
X41000000Y-74062500D02*
X35000000Y-74062500D01*
X35000000Y-74062500D02*
X29000000Y-74062500D01*
X29000000Y-74062500D02*
X28000000Y-73062500D01*
X10632500Y-73062500D02*
X8000000Y-70430000D01*
X10632500Y-73062500D02*
X28000000Y-73062500D01*
X8000000Y-70430000D02*
X9000000Y-69430000D01*
X9175001Y-48134001D02*
X9175001Y-46824999D01*
X9000000Y-48309002D02*
X9175001Y-48134001D01*
X9000000Y-69430000D02*
X9000000Y-48309002D01*
X9175001Y-46824999D02*
X11000000Y-45000000D01*
X11000000Y-45000000D02*
X11000000Y-11500000D01*
X11000000Y-11500000D02*
X12000000Y-10500000D01*
X37590000Y-10500000D02*
X38790000Y-11700000D01*
X12000000Y-10500000D02*
X37590000Y-10500000D01*
X18937500Y-76000000D02*
X18937500Y-78000000D01*
X14127500Y-82810000D02*
X12500000Y-82810000D01*
X18937500Y-78000000D02*
X14127500Y-82810000D01*
X12136410Y-11000000D02*
X25390000Y-11000000D01*
X25390000Y-11000000D02*
X26090000Y-11700000D01*
X11500000Y-11636410D02*
X12136410Y-11000000D01*
X11500000Y-46610000D02*
X11500000Y-11636410D01*
X10540000Y-47570000D02*
X11500000Y-46610000D01*
X12500000Y-16000000D02*
X13000000Y-15500000D01*
X12500000Y-45787919D02*
X12500000Y-16000000D01*
X13080000Y-46367919D02*
X12500000Y-45787919D01*
X13080000Y-47570000D02*
X13080000Y-46367919D01*
X27780001Y-15089999D02*
X27410001Y-15089999D01*
X28630000Y-14240000D02*
X27780001Y-15089999D01*
X27000000Y-15500000D02*
X13000000Y-15500000D01*
X27410001Y-15089999D02*
X27000000Y-15500000D01*
X13310000Y-76000000D02*
X12500000Y-75190000D01*
X17062500Y-76000000D02*
X13310000Y-76000000D01*
X49000000Y-63000000D02*
X49000000Y-50000000D01*
X20249990Y-68340010D02*
X18160000Y-70430000D01*
X20249991Y-66113599D02*
X20249990Y-68340010D01*
X21863590Y-64500000D02*
X20249991Y-66113599D01*
X47500000Y-64500000D02*
X21863590Y-64500000D01*
X49000000Y-63000000D02*
X47500000Y-64500000D01*
X16792500Y-77730000D02*
X17062500Y-78000000D01*
X12500000Y-77730000D02*
X16792500Y-77730000D01*
X20700000Y-66300000D02*
X20700000Y-70430000D01*
X22000000Y-65000000D02*
X20700000Y-66300000D01*
X49000000Y-65000000D02*
X22000000Y-65000000D01*
X50270000Y-63730000D02*
X49000000Y-65000000D01*
X61500000Y-61270000D02*
X50270000Y-61270000D01*
X50270000Y-61270000D02*
X50270000Y-63730000D01*
X50270000Y-47500000D02*
X50270000Y-61270000D01*
X17802490Y-72612490D02*
X15620000Y-70430000D01*
X44000000Y-73000000D02*
X28573910Y-73000000D01*
X28573910Y-73000000D02*
X28186400Y-72612490D01*
X45000000Y-74000000D02*
X44000000Y-73000000D01*
X28186400Y-72612490D02*
X17802490Y-72612490D01*
X45000000Y-79500000D02*
X45000000Y-74000000D01*
X47000000Y-81500000D02*
X45000000Y-79500000D01*
X52085787Y-81500000D02*
X47000000Y-81500000D01*
X53500000Y-81500000D02*
X52085787Y-81500000D01*
X33000000Y-72000000D02*
X33000000Y-69000000D01*
X28540000Y-76397500D02*
X29000000Y-75937500D01*
X28540000Y-80000000D02*
X28540000Y-76397500D01*
X34540000Y-76397500D02*
X35000000Y-75937500D01*
X34540000Y-80000000D02*
X34540000Y-76397500D01*
X39000000Y-72000000D02*
X39000000Y-69000000D01*
X40540000Y-76397500D02*
X41000000Y-75937500D01*
X40540000Y-80000000D02*
X40540000Y-76397500D01*
X45000000Y-72000000D02*
X45000000Y-69000000D01*
X29050000Y-69950000D02*
X29000000Y-70000000D01*
X31000000Y-69950000D02*
X29050000Y-69950000D01*
X35050000Y-69950000D02*
X35000000Y-70000000D01*
X37000000Y-69950000D02*
X35050000Y-69950000D01*
X43000000Y-69950000D02*
X41050000Y-69950000D01*
X41050000Y-69950000D02*
X41000000Y-70000000D01*
M02*
