G04 #@! TF.GenerationSoftware,KiCad,Pcbnew,5.1.5+dfsg1-2build2*
G04 #@! TF.CreationDate,2020-10-24T15:12:09+02:00*
G04 #@! TF.ProjectId,sensorbox,73656e73-6f72-4626-9f78-2e6b69636164,rev?*
G04 #@! TF.SameCoordinates,Original*
G04 #@! TF.FileFunction,Legend,Bot*
G04 #@! TF.FilePolarity,Positive*
%FSLAX46Y46*%
G04 Gerber Fmt 4.6, Leading zero omitted, Abs format (unit mm)*
G04 Created by KiCad (PCBNEW 5.1.5+dfsg1-2build2) date 2020-10-24 15:12:09*
%MOMM*%
%LPD*%
G04 APERTURE LIST*
%ADD10C,0.120000*%
%ADD11C,0.150000*%
G04 APERTURE END LIST*
D10*
X35710000Y-74741422D02*
X35710000Y-75258578D01*
X34290000Y-74741422D02*
X34290000Y-75258578D01*
X29710000Y-74741422D02*
X29710000Y-75258578D01*
X28290000Y-74741422D02*
X28290000Y-75258578D01*
X44760000Y-67420000D02*
X43300000Y-67420000D01*
X44760000Y-70580000D02*
X42600000Y-70580000D01*
X44760000Y-70580000D02*
X44760000Y-69650000D01*
X44760000Y-67420000D02*
X44760000Y-68350000D01*
X38760000Y-67420000D02*
X37300000Y-67420000D01*
X38760000Y-70580000D02*
X36600000Y-70580000D01*
X38760000Y-70580000D02*
X38760000Y-69650000D01*
X38760000Y-67420000D02*
X38760000Y-68350000D01*
X41710000Y-74741422D02*
X41710000Y-75258578D01*
X40290000Y-74741422D02*
X40290000Y-75258578D01*
X18258578Y-78710000D02*
X17741422Y-78710000D01*
X18258578Y-77290000D02*
X17741422Y-77290000D01*
X18258578Y-76710000D02*
X17741422Y-76710000D01*
X18258578Y-75290000D02*
X17741422Y-75290000D01*
X32760000Y-67420000D02*
X31300000Y-67420000D01*
X32760000Y-70580000D02*
X30600000Y-70580000D01*
X32760000Y-70580000D02*
X32760000Y-69650000D01*
X32760000Y-67420000D02*
X32760000Y-68350000D01*
D11*
X33802380Y-74833333D02*
X33326190Y-74500000D01*
X33802380Y-74261904D02*
X32802380Y-74261904D01*
X32802380Y-74642857D01*
X32850000Y-74738095D01*
X32897619Y-74785714D01*
X32992857Y-74833333D01*
X33135714Y-74833333D01*
X33230952Y-74785714D01*
X33278571Y-74738095D01*
X33326190Y-74642857D01*
X33326190Y-74261904D01*
X33135714Y-75690476D02*
X33802380Y-75690476D01*
X32754761Y-75452380D02*
X33469047Y-75214285D01*
X33469047Y-75833333D01*
X27802380Y-74833333D02*
X27326190Y-74500000D01*
X27802380Y-74261904D02*
X26802380Y-74261904D01*
X26802380Y-74642857D01*
X26850000Y-74738095D01*
X26897619Y-74785714D01*
X26992857Y-74833333D01*
X27135714Y-74833333D01*
X27230952Y-74785714D01*
X27278571Y-74738095D01*
X27326190Y-74642857D01*
X27326190Y-74261904D01*
X26802380Y-75166666D02*
X26802380Y-75785714D01*
X27183333Y-75452380D01*
X27183333Y-75595238D01*
X27230952Y-75690476D01*
X27278571Y-75738095D01*
X27373809Y-75785714D01*
X27611904Y-75785714D01*
X27707142Y-75738095D01*
X27754761Y-75690476D01*
X27802380Y-75595238D01*
X27802380Y-75309523D01*
X27754761Y-75214285D01*
X27707142Y-75166666D01*
X44095238Y-72047619D02*
X44190476Y-72000000D01*
X44285714Y-71904761D01*
X44428571Y-71761904D01*
X44523809Y-71714285D01*
X44619047Y-71714285D01*
X44571428Y-71952380D02*
X44666666Y-71904761D01*
X44761904Y-71809523D01*
X44809523Y-71619047D01*
X44809523Y-71285714D01*
X44761904Y-71095238D01*
X44666666Y-71000000D01*
X44571428Y-70952380D01*
X44380952Y-70952380D01*
X44285714Y-71000000D01*
X44190476Y-71095238D01*
X44142857Y-71285714D01*
X44142857Y-71619047D01*
X44190476Y-71809523D01*
X44285714Y-71904761D01*
X44380952Y-71952380D01*
X44571428Y-71952380D01*
X43809523Y-70952380D02*
X43190476Y-70952380D01*
X43523809Y-71333333D01*
X43380952Y-71333333D01*
X43285714Y-71380952D01*
X43238095Y-71428571D01*
X43190476Y-71523809D01*
X43190476Y-71761904D01*
X43238095Y-71857142D01*
X43285714Y-71904761D01*
X43380952Y-71952380D01*
X43666666Y-71952380D01*
X43761904Y-71904761D01*
X43809523Y-71857142D01*
X38095238Y-72047619D02*
X38190476Y-72000000D01*
X38285714Y-71904761D01*
X38428571Y-71761904D01*
X38523809Y-71714285D01*
X38619047Y-71714285D01*
X38571428Y-71952380D02*
X38666666Y-71904761D01*
X38761904Y-71809523D01*
X38809523Y-71619047D01*
X38809523Y-71285714D01*
X38761904Y-71095238D01*
X38666666Y-71000000D01*
X38571428Y-70952380D01*
X38380952Y-70952380D01*
X38285714Y-71000000D01*
X38190476Y-71095238D01*
X38142857Y-71285714D01*
X38142857Y-71619047D01*
X38190476Y-71809523D01*
X38285714Y-71904761D01*
X38380952Y-71952380D01*
X38571428Y-71952380D01*
X37761904Y-71047619D02*
X37714285Y-71000000D01*
X37619047Y-70952380D01*
X37380952Y-70952380D01*
X37285714Y-71000000D01*
X37238095Y-71047619D01*
X37190476Y-71142857D01*
X37190476Y-71238095D01*
X37238095Y-71380952D01*
X37809523Y-71952380D01*
X37190476Y-71952380D01*
X39802380Y-74833333D02*
X39326190Y-74500000D01*
X39802380Y-74261904D02*
X38802380Y-74261904D01*
X38802380Y-74642857D01*
X38850000Y-74738095D01*
X38897619Y-74785714D01*
X38992857Y-74833333D01*
X39135714Y-74833333D01*
X39230952Y-74785714D01*
X39278571Y-74738095D01*
X39326190Y-74642857D01*
X39326190Y-74261904D01*
X38802380Y-75738095D02*
X38802380Y-75261904D01*
X39278571Y-75214285D01*
X39230952Y-75261904D01*
X39183333Y-75357142D01*
X39183333Y-75595238D01*
X39230952Y-75690476D01*
X39278571Y-75738095D01*
X39373809Y-75785714D01*
X39611904Y-75785714D01*
X39707142Y-75738095D01*
X39754761Y-75690476D01*
X39802380Y-75595238D01*
X39802380Y-75357142D01*
X39754761Y-75261904D01*
X39707142Y-75214285D01*
X21166666Y-78452380D02*
X21500000Y-77976190D01*
X21738095Y-78452380D02*
X21738095Y-77452380D01*
X21357142Y-77452380D01*
X21261904Y-77500000D01*
X21214285Y-77547619D01*
X21166666Y-77642857D01*
X21166666Y-77785714D01*
X21214285Y-77880952D01*
X21261904Y-77928571D01*
X21357142Y-77976190D01*
X21738095Y-77976190D01*
X20785714Y-77547619D02*
X20738095Y-77500000D01*
X20642857Y-77452380D01*
X20404761Y-77452380D01*
X20309523Y-77500000D01*
X20261904Y-77547619D01*
X20214285Y-77642857D01*
X20214285Y-77738095D01*
X20261904Y-77880952D01*
X20833333Y-78452380D01*
X20214285Y-78452380D01*
X22928571Y-79785714D02*
X22928571Y-80452380D01*
X23166666Y-79404761D02*
X23404761Y-80119047D01*
X22785714Y-80119047D01*
X22404761Y-80357142D02*
X22357142Y-80404761D01*
X22404761Y-80452380D01*
X22452380Y-80404761D01*
X22404761Y-80357142D01*
X22404761Y-80452380D01*
X22023809Y-79452380D02*
X21357142Y-79452380D01*
X21785714Y-80452380D01*
X20976190Y-80452380D02*
X20976190Y-79452380D01*
X20880952Y-80071428D02*
X20595238Y-80452380D01*
X20595238Y-79785714D02*
X20976190Y-80166666D01*
X21166666Y-76452380D02*
X21500000Y-75976190D01*
X21738095Y-76452380D02*
X21738095Y-75452380D01*
X21357142Y-75452380D01*
X21261904Y-75500000D01*
X21214285Y-75547619D01*
X21166666Y-75642857D01*
X21166666Y-75785714D01*
X21214285Y-75880952D01*
X21261904Y-75928571D01*
X21357142Y-75976190D01*
X21738095Y-75976190D01*
X20214285Y-76452380D02*
X20785714Y-76452380D01*
X20500000Y-76452380D02*
X20500000Y-75452380D01*
X20595238Y-75595238D01*
X20690476Y-75690476D01*
X20785714Y-75738095D01*
X22928571Y-73785714D02*
X22928571Y-74452380D01*
X23166666Y-73404761D02*
X23404761Y-74119047D01*
X22785714Y-74119047D01*
X22404761Y-74357142D02*
X22357142Y-74404761D01*
X22404761Y-74452380D01*
X22452380Y-74404761D01*
X22404761Y-74357142D01*
X22404761Y-74452380D01*
X22023809Y-73452380D02*
X21357142Y-73452380D01*
X21785714Y-74452380D01*
X20976190Y-74452380D02*
X20976190Y-73452380D01*
X20880952Y-74071428D02*
X20595238Y-74452380D01*
X20595238Y-73785714D02*
X20976190Y-74166666D01*
X32095238Y-72047619D02*
X32190476Y-72000000D01*
X32285714Y-71904761D01*
X32428571Y-71761904D01*
X32523809Y-71714285D01*
X32619047Y-71714285D01*
X32571428Y-71952380D02*
X32666666Y-71904761D01*
X32761904Y-71809523D01*
X32809523Y-71619047D01*
X32809523Y-71285714D01*
X32761904Y-71095238D01*
X32666666Y-71000000D01*
X32571428Y-70952380D01*
X32380952Y-70952380D01*
X32285714Y-71000000D01*
X32190476Y-71095238D01*
X32142857Y-71285714D01*
X32142857Y-71619047D01*
X32190476Y-71809523D01*
X32285714Y-71904761D01*
X32380952Y-71952380D01*
X32571428Y-71952380D01*
X31190476Y-71952380D02*
X31761904Y-71952380D01*
X31476190Y-71952380D02*
X31476190Y-70952380D01*
X31571428Y-71095238D01*
X31666666Y-71190476D01*
X31761904Y-71238095D01*
M02*
