G04 #@! TF.GenerationSoftware,KiCad,Pcbnew,5.1.5+dfsg1-2build2*
G04 #@! TF.CreationDate,2020-10-24T15:12:09+02:00*
G04 #@! TF.ProjectId,sensorbox,73656e73-6f72-4626-9f78-2e6b69636164,rev?*
G04 #@! TF.SameCoordinates,Original*
G04 #@! TF.FileFunction,Legend,Top*
G04 #@! TF.FilePolarity,Positive*
%FSLAX46Y46*%
G04 Gerber Fmt 4.6, Leading zero omitted, Abs format (unit mm)*
G04 Created by KiCad (PCBNEW 5.1.5+dfsg1-2build2) date 2020-10-24 15:12:09*
%MOMM*%
%LPD*%
G04 APERTURE LIST*
%ADD10C,0.120000*%
%ADD11C,0.150000*%
G04 APERTURE END LIST*
D10*
X35000000Y-74000000D02*
X35000000Y-46000000D01*
X63000000Y-74000000D02*
X35000000Y-74000000D01*
X63000000Y-46000000D02*
X63000000Y-74000000D01*
X35000000Y-46000000D02*
X63000000Y-46000000D01*
X35000000Y-46000000D02*
X63000000Y-46000000D01*
X35000000Y-74000000D02*
X35000000Y-46000000D01*
X63000000Y-74000000D02*
X35000000Y-74000000D01*
X63000000Y-46000000D02*
X63000000Y-74000000D01*
X37710000Y-81080000D02*
X37710000Y-81236000D01*
X37710000Y-78764000D02*
X37710000Y-78920000D01*
X40311130Y-81079837D02*
G75*
G02X38229039Y-81080000I-1041130J1079837D01*
G01*
X40311130Y-78920163D02*
G75*
G03X38229039Y-78920000I-1041130J-1079837D01*
G01*
X40942335Y-81078608D02*
G75*
G02X37710000Y-81235516I-1672335J1078608D01*
G01*
X40942335Y-78921392D02*
G75*
G03X37710000Y-78764484I-1672335J-1078608D01*
G01*
X31710000Y-81080000D02*
X31710000Y-81236000D01*
X31710000Y-78764000D02*
X31710000Y-78920000D01*
X34311130Y-81079837D02*
G75*
G02X32229039Y-81080000I-1041130J1079837D01*
G01*
X34311130Y-78920163D02*
G75*
G03X32229039Y-78920000I-1041130J-1079837D01*
G01*
X34942335Y-81078608D02*
G75*
G02X31710000Y-81235516I-1672335J1078608D01*
G01*
X34942335Y-78921392D02*
G75*
G03X31710000Y-78764484I-1672335J-1078608D01*
G01*
X25710000Y-81080000D02*
X25710000Y-81236000D01*
X25710000Y-78764000D02*
X25710000Y-78920000D01*
X28311130Y-81079837D02*
G75*
G02X26229039Y-81080000I-1041130J1079837D01*
G01*
X28311130Y-78920163D02*
G75*
G03X26229039Y-78920000I-1041130J-1079837D01*
G01*
X28942335Y-81078608D02*
G75*
G02X25710000Y-81235516I-1672335J1078608D01*
G01*
X28942335Y-78921392D02*
G75*
G03X25710000Y-78764484I-1672335J-1078608D01*
G01*
X53750000Y-80000000D02*
X53750000Y-78500000D01*
X52500000Y-76000000D02*
X48000000Y-76000000D01*
X46750000Y-78500000D02*
X46750000Y-80000000D01*
X48000000Y-82500000D02*
X52500000Y-82500000D01*
X-1000000Y-46000000D02*
X33000000Y-46000000D01*
X33000000Y-46000000D02*
X33000000Y-72000000D01*
X33000000Y-72000000D02*
X-1000000Y-72000000D01*
X-1000000Y-72000000D02*
X-1000000Y-46000000D01*
X3500000Y-9300000D02*
X3500000Y-44000000D01*
X61000000Y-44000000D02*
X61000000Y-9300000D01*
X61000000Y-9300000D02*
X3500000Y-9300000D01*
X61000000Y-44000000D02*
X3500000Y-44000000D01*
D11*
X48238095Y-60452380D02*
X48238095Y-61261904D01*
X48285714Y-61357142D01*
X48333333Y-61404761D01*
X48428571Y-61452380D01*
X48619047Y-61452380D01*
X48714285Y-61404761D01*
X48761904Y-61357142D01*
X48809523Y-61261904D01*
X48809523Y-60452380D01*
X49714285Y-60785714D02*
X49714285Y-61452380D01*
X49476190Y-60404761D02*
X49238095Y-61119047D01*
X49857142Y-61119047D01*
X38531904Y-77492380D02*
X38531904Y-76492380D01*
X38770000Y-76492380D01*
X38912857Y-76540000D01*
X39008095Y-76635238D01*
X39055714Y-76730476D01*
X39103333Y-76920952D01*
X39103333Y-77063809D01*
X39055714Y-77254285D01*
X39008095Y-77349523D01*
X38912857Y-77444761D01*
X38770000Y-77492380D01*
X38531904Y-77492380D01*
X39436666Y-76492380D02*
X40055714Y-76492380D01*
X39722380Y-76873333D01*
X39865238Y-76873333D01*
X39960476Y-76920952D01*
X40008095Y-76968571D01*
X40055714Y-77063809D01*
X40055714Y-77301904D01*
X40008095Y-77397142D01*
X39960476Y-77444761D01*
X39865238Y-77492380D01*
X39579523Y-77492380D01*
X39484285Y-77444761D01*
X39436666Y-77397142D01*
X32531904Y-77492380D02*
X32531904Y-76492380D01*
X32770000Y-76492380D01*
X32912857Y-76540000D01*
X33008095Y-76635238D01*
X33055714Y-76730476D01*
X33103333Y-76920952D01*
X33103333Y-77063809D01*
X33055714Y-77254285D01*
X33008095Y-77349523D01*
X32912857Y-77444761D01*
X32770000Y-77492380D01*
X32531904Y-77492380D01*
X33484285Y-76587619D02*
X33531904Y-76540000D01*
X33627142Y-76492380D01*
X33865238Y-76492380D01*
X33960476Y-76540000D01*
X34008095Y-76587619D01*
X34055714Y-76682857D01*
X34055714Y-76778095D01*
X34008095Y-76920952D01*
X33436666Y-77492380D01*
X34055714Y-77492380D01*
X26531904Y-77492380D02*
X26531904Y-76492380D01*
X26770000Y-76492380D01*
X26912857Y-76540000D01*
X27008095Y-76635238D01*
X27055714Y-76730476D01*
X27103333Y-76920952D01*
X27103333Y-77063809D01*
X27055714Y-77254285D01*
X27008095Y-77349523D01*
X26912857Y-77444761D01*
X26770000Y-77492380D01*
X26531904Y-77492380D01*
X28055714Y-77492380D02*
X27484285Y-77492380D01*
X27770000Y-77492380D02*
X27770000Y-76492380D01*
X27674761Y-76635238D01*
X27579523Y-76730476D01*
X27484285Y-76778095D01*
X48916666Y-75404761D02*
X49059523Y-75452380D01*
X49297619Y-75452380D01*
X49392857Y-75404761D01*
X49440476Y-75357142D01*
X49488095Y-75261904D01*
X49488095Y-75166666D01*
X49440476Y-75071428D01*
X49392857Y-75023809D01*
X49297619Y-74976190D01*
X49107142Y-74928571D01*
X49011904Y-74880952D01*
X48964285Y-74833333D01*
X48916666Y-74738095D01*
X48916666Y-74642857D01*
X48964285Y-74547619D01*
X49011904Y-74500000D01*
X49107142Y-74452380D01*
X49345238Y-74452380D01*
X49488095Y-74500000D01*
X49821428Y-74452380D02*
X50059523Y-75452380D01*
X50250000Y-74738095D01*
X50440476Y-75452380D01*
X50678571Y-74452380D01*
X51583333Y-75452380D02*
X51011904Y-75452380D01*
X51297619Y-75452380D02*
X51297619Y-74452380D01*
X51202380Y-74595238D01*
X51107142Y-74690476D01*
X51011904Y-74738095D01*
X17238095Y-58452380D02*
X17238095Y-59261904D01*
X17285714Y-59357142D01*
X17333333Y-59404761D01*
X17428571Y-59452380D01*
X17619047Y-59452380D01*
X17714285Y-59404761D01*
X17761904Y-59357142D01*
X17809523Y-59261904D01*
X17809523Y-58452380D01*
X18809523Y-59452380D02*
X18238095Y-59452380D01*
X18523809Y-59452380D02*
X18523809Y-58452380D01*
X18428571Y-58595238D01*
X18333333Y-58690476D01*
X18238095Y-58738095D01*
X17452380Y-79761904D02*
X18261904Y-79761904D01*
X18357142Y-79714285D01*
X18404761Y-79666666D01*
X18452380Y-79571428D01*
X18452380Y-79380952D01*
X18404761Y-79285714D01*
X18357142Y-79238095D01*
X18261904Y-79190476D01*
X17452380Y-79190476D01*
X17452380Y-78809523D02*
X17452380Y-78190476D01*
X17833333Y-78523809D01*
X17833333Y-78380952D01*
X17880952Y-78285714D01*
X17928571Y-78238095D01*
X18023809Y-78190476D01*
X18261904Y-78190476D01*
X18357142Y-78238095D01*
X18404761Y-78285714D01*
X18452380Y-78380952D01*
X18452380Y-78666666D01*
X18404761Y-78761904D01*
X18357142Y-78809523D01*
X31238095Y-29452380D02*
X31238095Y-30261904D01*
X31285714Y-30357142D01*
X31333333Y-30404761D01*
X31428571Y-30452380D01*
X31619047Y-30452380D01*
X31714285Y-30404761D01*
X31761904Y-30357142D01*
X31809523Y-30261904D01*
X31809523Y-29452380D01*
X32238095Y-29547619D02*
X32285714Y-29500000D01*
X32380952Y-29452380D01*
X32619047Y-29452380D01*
X32714285Y-29500000D01*
X32761904Y-29547619D01*
X32809523Y-29642857D01*
X32809523Y-29738095D01*
X32761904Y-29880952D01*
X32190476Y-30452380D01*
X32809523Y-30452380D01*
M02*
