G04 #@! TF.GenerationSoftware,KiCad,Pcbnew,5.1.5+dfsg1-2build2*
G04 #@! TF.CreationDate,2020-10-24T15:12:09+02:00*
G04 #@! TF.ProjectId,sensorbox,73656e73-6f72-4626-9f78-2e6b69636164,rev?*
G04 #@! TF.SameCoordinates,Original*
G04 #@! TF.FileFunction,Soldermask,Top*
G04 #@! TF.FilePolarity,Negative*
%FSLAX46Y46*%
G04 Gerber Fmt 4.6, Leading zero omitted, Abs format (unit mm)*
G04 Created by KiCad (PCBNEW 5.1.5+dfsg1-2build2) date 2020-10-24 15:12:09*
%MOMM*%
%LPD*%
G04 APERTURE LIST*
%ADD10C,0.100000*%
G04 APERTURE END LIST*
D10*
G36*
X12737142Y-82028242D02*
G01*
X12885101Y-82089529D01*
X13018255Y-82178499D01*
X13131501Y-82291745D01*
X13220471Y-82424899D01*
X13281758Y-82572858D01*
X13313000Y-82729925D01*
X13313000Y-82890075D01*
X13281758Y-83047142D01*
X13220471Y-83195101D01*
X13131501Y-83328255D01*
X13018255Y-83441501D01*
X12885101Y-83530471D01*
X12737142Y-83591758D01*
X12580075Y-83623000D01*
X12419925Y-83623000D01*
X12262858Y-83591758D01*
X12114899Y-83530471D01*
X11981745Y-83441501D01*
X11868499Y-83328255D01*
X11779529Y-83195101D01*
X11718242Y-83047142D01*
X11687000Y-82890075D01*
X11687000Y-82729925D01*
X11718242Y-82572858D01*
X11779529Y-82424899D01*
X11868499Y-82291745D01*
X11981745Y-82178499D01*
X12114899Y-82089529D01*
X12262858Y-82028242D01*
X12419925Y-81997000D01*
X12580075Y-81997000D01*
X12737142Y-82028242D01*
G37*
G36*
X60634239Y-76811467D02*
G01*
X60948282Y-76873934D01*
X61539926Y-77119001D01*
X61878007Y-77344900D01*
X62072391Y-77474783D01*
X62525217Y-77927609D01*
X62580676Y-78010610D01*
X62880999Y-78460074D01*
X63126066Y-79051718D01*
X63167756Y-79261309D01*
X63251000Y-79679803D01*
X63251000Y-80320197D01*
X63217345Y-80489390D01*
X63126066Y-80948282D01*
X62880999Y-81539926D01*
X62702836Y-81806565D01*
X62554716Y-82028243D01*
X62525216Y-82072392D01*
X62072392Y-82525216D01*
X61539926Y-82880999D01*
X60948282Y-83126066D01*
X60634239Y-83188533D01*
X60320197Y-83251000D01*
X59679803Y-83251000D01*
X59365761Y-83188533D01*
X59051718Y-83126066D01*
X58460074Y-82880999D01*
X57927608Y-82525216D01*
X57474784Y-82072392D01*
X57445285Y-82028243D01*
X57297164Y-81806565D01*
X57119001Y-81539926D01*
X56873934Y-80948282D01*
X56782655Y-80489390D01*
X56749000Y-80320197D01*
X56749000Y-79679803D01*
X56832244Y-79261309D01*
X56873934Y-79051718D01*
X57119001Y-78460074D01*
X57419324Y-78010610D01*
X57474783Y-77927609D01*
X57927609Y-77474783D01*
X58121993Y-77344900D01*
X58460074Y-77119001D01*
X59051718Y-76873934D01*
X59365761Y-76811467D01*
X59679803Y-76749000D01*
X60320197Y-76749000D01*
X60634239Y-76811467D01*
G37*
G36*
X5634239Y-76811467D02*
G01*
X5948282Y-76873934D01*
X6539926Y-77119001D01*
X6878007Y-77344900D01*
X7072391Y-77474783D01*
X7525217Y-77927609D01*
X7580676Y-78010610D01*
X7880999Y-78460074D01*
X8126066Y-79051718D01*
X8167756Y-79261309D01*
X8251000Y-79679803D01*
X8251000Y-80320197D01*
X8217345Y-80489390D01*
X8126066Y-80948282D01*
X7880999Y-81539926D01*
X7702836Y-81806565D01*
X7554716Y-82028243D01*
X7525216Y-82072392D01*
X7072392Y-82525216D01*
X6539926Y-82880999D01*
X5948282Y-83126066D01*
X5634239Y-83188533D01*
X5320197Y-83251000D01*
X4679803Y-83251000D01*
X4365761Y-83188533D01*
X4051718Y-83126066D01*
X3460074Y-82880999D01*
X2927608Y-82525216D01*
X2474784Y-82072392D01*
X2445285Y-82028243D01*
X2297164Y-81806565D01*
X2119001Y-81539926D01*
X1873934Y-80948282D01*
X1782655Y-80489390D01*
X1749000Y-80320197D01*
X1749000Y-79679803D01*
X1832244Y-79261309D01*
X1873934Y-79051718D01*
X2119001Y-78460074D01*
X2419324Y-78010610D01*
X2474783Y-77927609D01*
X2927609Y-77474783D01*
X3121993Y-77344900D01*
X3460074Y-77119001D01*
X4051718Y-76873934D01*
X4365761Y-76811467D01*
X4679803Y-76749000D01*
X5320197Y-76749000D01*
X5634239Y-76811467D01*
G37*
G36*
X53806564Y-80489389D02*
G01*
X53997833Y-80568615D01*
X53997835Y-80568616D01*
X54169973Y-80683635D01*
X54316365Y-80830027D01*
X54397197Y-80951000D01*
X54431385Y-81002167D01*
X54510611Y-81193436D01*
X54551000Y-81396484D01*
X54551000Y-81603516D01*
X54510611Y-81806564D01*
X54431730Y-81997000D01*
X54431384Y-81997835D01*
X54316365Y-82169973D01*
X54169973Y-82316365D01*
X53997835Y-82431384D01*
X53997834Y-82431385D01*
X53997833Y-82431385D01*
X53806564Y-82510611D01*
X53603516Y-82551000D01*
X53396484Y-82551000D01*
X53193436Y-82510611D01*
X53002167Y-82431385D01*
X53002166Y-82431385D01*
X53002165Y-82431384D01*
X52830027Y-82316365D01*
X52683635Y-82169973D01*
X52568616Y-81997835D01*
X52568270Y-81997000D01*
X52489389Y-81806564D01*
X52449000Y-81603516D01*
X52449000Y-81396484D01*
X52489389Y-81193436D01*
X52568615Y-81002167D01*
X52602804Y-80951000D01*
X52683635Y-80830027D01*
X52830027Y-80683635D01*
X53002165Y-80568616D01*
X53002167Y-80568615D01*
X53193436Y-80489389D01*
X53396484Y-80449000D01*
X53603516Y-80449000D01*
X53806564Y-80489389D01*
G37*
G36*
X47306564Y-80489389D02*
G01*
X47497833Y-80568615D01*
X47497835Y-80568616D01*
X47669973Y-80683635D01*
X47816365Y-80830027D01*
X47897197Y-80951000D01*
X47931385Y-81002167D01*
X48010611Y-81193436D01*
X48051000Y-81396484D01*
X48051000Y-81603516D01*
X48010611Y-81806564D01*
X47931730Y-81997000D01*
X47931384Y-81997835D01*
X47816365Y-82169973D01*
X47669973Y-82316365D01*
X47497835Y-82431384D01*
X47497834Y-82431385D01*
X47497833Y-82431385D01*
X47306564Y-82510611D01*
X47103516Y-82551000D01*
X46896484Y-82551000D01*
X46693436Y-82510611D01*
X46502167Y-82431385D01*
X46502166Y-82431385D01*
X46502165Y-82431384D01*
X46330027Y-82316365D01*
X46183635Y-82169973D01*
X46068616Y-81997835D01*
X46068270Y-81997000D01*
X45989389Y-81806564D01*
X45949000Y-81603516D01*
X45949000Y-81396484D01*
X45989389Y-81193436D01*
X46068615Y-81002167D01*
X46102804Y-80951000D01*
X46183635Y-80830027D01*
X46330027Y-80683635D01*
X46502165Y-80568616D01*
X46502167Y-80568615D01*
X46693436Y-80489389D01*
X46896484Y-80449000D01*
X47103516Y-80449000D01*
X47306564Y-80489389D01*
G37*
G36*
X12737142Y-79488242D02*
G01*
X12885101Y-79549529D01*
X13018255Y-79638499D01*
X13131501Y-79751745D01*
X13220471Y-79884899D01*
X13281758Y-80032858D01*
X13313000Y-80189925D01*
X13313000Y-80350075D01*
X13281758Y-80507142D01*
X13220471Y-80655101D01*
X13131501Y-80788255D01*
X13018255Y-80901501D01*
X12885101Y-80990471D01*
X12737142Y-81051758D01*
X12580075Y-81083000D01*
X12419925Y-81083000D01*
X12262858Y-81051758D01*
X12114899Y-80990471D01*
X11981745Y-80901501D01*
X11868499Y-80788255D01*
X11779529Y-80655101D01*
X11718242Y-80507142D01*
X11687000Y-80350075D01*
X11687000Y-80189925D01*
X11718242Y-80032858D01*
X11779529Y-79884899D01*
X11868499Y-79751745D01*
X11981745Y-79638499D01*
X12114899Y-79549529D01*
X12262858Y-79488242D01*
X12419925Y-79457000D01*
X12580075Y-79457000D01*
X12737142Y-79488242D01*
G37*
G36*
X34817395Y-79085546D02*
G01*
X34990466Y-79157234D01*
X34990467Y-79157235D01*
X35146227Y-79261310D01*
X35278690Y-79393773D01*
X35278691Y-79393775D01*
X35382766Y-79549534D01*
X35454454Y-79722605D01*
X35491000Y-79906333D01*
X35491000Y-80093667D01*
X35454454Y-80277395D01*
X35382766Y-80450466D01*
X35331081Y-80527818D01*
X35278690Y-80606227D01*
X35146227Y-80738690D01*
X35072047Y-80788255D01*
X34990466Y-80842766D01*
X34817395Y-80914454D01*
X34633667Y-80951000D01*
X34446333Y-80951000D01*
X34262605Y-80914454D01*
X34089534Y-80842766D01*
X34007953Y-80788255D01*
X33933773Y-80738690D01*
X33801310Y-80606227D01*
X33748919Y-80527818D01*
X33697234Y-80450466D01*
X33625546Y-80277395D01*
X33589000Y-80093667D01*
X33589000Y-79906333D01*
X33625546Y-79722605D01*
X33697234Y-79549534D01*
X33801309Y-79393775D01*
X33801310Y-79393773D01*
X33933773Y-79261310D01*
X34089533Y-79157235D01*
X34089534Y-79157234D01*
X34262605Y-79085546D01*
X34446333Y-79049000D01*
X34633667Y-79049000D01*
X34817395Y-79085546D01*
G37*
G36*
X38951000Y-80951000D02*
G01*
X37049000Y-80951000D01*
X37049000Y-79049000D01*
X38951000Y-79049000D01*
X38951000Y-80951000D01*
G37*
G36*
X32951000Y-80951000D02*
G01*
X31049000Y-80951000D01*
X31049000Y-79049000D01*
X32951000Y-79049000D01*
X32951000Y-80951000D01*
G37*
G36*
X28817395Y-79085546D02*
G01*
X28990466Y-79157234D01*
X28990467Y-79157235D01*
X29146227Y-79261310D01*
X29278690Y-79393773D01*
X29278691Y-79393775D01*
X29382766Y-79549534D01*
X29454454Y-79722605D01*
X29491000Y-79906333D01*
X29491000Y-80093667D01*
X29454454Y-80277395D01*
X29382766Y-80450466D01*
X29331081Y-80527818D01*
X29278690Y-80606227D01*
X29146227Y-80738690D01*
X29072047Y-80788255D01*
X28990466Y-80842766D01*
X28817395Y-80914454D01*
X28633667Y-80951000D01*
X28446333Y-80951000D01*
X28262605Y-80914454D01*
X28089534Y-80842766D01*
X28007953Y-80788255D01*
X27933773Y-80738690D01*
X27801310Y-80606227D01*
X27748919Y-80527818D01*
X27697234Y-80450466D01*
X27625546Y-80277395D01*
X27589000Y-80093667D01*
X27589000Y-79906333D01*
X27625546Y-79722605D01*
X27697234Y-79549534D01*
X27801309Y-79393775D01*
X27801310Y-79393773D01*
X27933773Y-79261310D01*
X28089533Y-79157235D01*
X28089534Y-79157234D01*
X28262605Y-79085546D01*
X28446333Y-79049000D01*
X28633667Y-79049000D01*
X28817395Y-79085546D01*
G37*
G36*
X26951000Y-80951000D02*
G01*
X25049000Y-80951000D01*
X25049000Y-79049000D01*
X26951000Y-79049000D01*
X26951000Y-80951000D01*
G37*
G36*
X40817395Y-79085546D02*
G01*
X40990466Y-79157234D01*
X40990467Y-79157235D01*
X41146227Y-79261310D01*
X41278690Y-79393773D01*
X41278691Y-79393775D01*
X41382766Y-79549534D01*
X41454454Y-79722605D01*
X41491000Y-79906333D01*
X41491000Y-80093667D01*
X41454454Y-80277395D01*
X41382766Y-80450466D01*
X41331081Y-80527818D01*
X41278690Y-80606227D01*
X41146227Y-80738690D01*
X41072047Y-80788255D01*
X40990466Y-80842766D01*
X40817395Y-80914454D01*
X40633667Y-80951000D01*
X40446333Y-80951000D01*
X40262605Y-80914454D01*
X40089534Y-80842766D01*
X40007953Y-80788255D01*
X39933773Y-80738690D01*
X39801310Y-80606227D01*
X39748919Y-80527818D01*
X39697234Y-80450466D01*
X39625546Y-80277395D01*
X39589000Y-80093667D01*
X39589000Y-79906333D01*
X39625546Y-79722605D01*
X39697234Y-79549534D01*
X39801309Y-79393775D01*
X39801310Y-79393773D01*
X39933773Y-79261310D01*
X40089533Y-79157235D01*
X40089534Y-79157234D01*
X40262605Y-79085546D01*
X40446333Y-79049000D01*
X40633667Y-79049000D01*
X40817395Y-79085546D01*
G37*
G36*
X12737142Y-76948242D02*
G01*
X12885101Y-77009529D01*
X13018255Y-77098499D01*
X13131501Y-77211745D01*
X13220471Y-77344899D01*
X13281758Y-77492858D01*
X13313000Y-77649925D01*
X13313000Y-77810075D01*
X13281758Y-77967142D01*
X13220471Y-78115101D01*
X13131501Y-78248255D01*
X13018255Y-78361501D01*
X12885101Y-78450471D01*
X12737142Y-78511758D01*
X12580075Y-78543000D01*
X12419925Y-78543000D01*
X12262858Y-78511758D01*
X12114899Y-78450471D01*
X11981745Y-78361501D01*
X11868499Y-78248255D01*
X11779529Y-78115101D01*
X11718242Y-77967142D01*
X11687000Y-77810075D01*
X11687000Y-77649925D01*
X11718242Y-77492858D01*
X11779529Y-77344899D01*
X11868499Y-77211745D01*
X11981745Y-77098499D01*
X12114899Y-77009529D01*
X12262858Y-76948242D01*
X12419925Y-76917000D01*
X12580075Y-76917000D01*
X12737142Y-76948242D01*
G37*
G36*
X53806564Y-75989389D02*
G01*
X53997833Y-76068615D01*
X53997835Y-76068616D01*
X54169973Y-76183635D01*
X54316365Y-76330027D01*
X54431385Y-76502167D01*
X54510611Y-76693436D01*
X54551000Y-76896484D01*
X54551000Y-77103516D01*
X54510611Y-77306564D01*
X54440932Y-77474784D01*
X54431384Y-77497835D01*
X54316365Y-77669973D01*
X54169973Y-77816365D01*
X53997835Y-77931384D01*
X53997834Y-77931385D01*
X53997833Y-77931385D01*
X53806564Y-78010611D01*
X53603516Y-78051000D01*
X53396484Y-78051000D01*
X53193436Y-78010611D01*
X53002167Y-77931385D01*
X53002166Y-77931385D01*
X53002165Y-77931384D01*
X52830027Y-77816365D01*
X52683635Y-77669973D01*
X52568616Y-77497835D01*
X52559068Y-77474784D01*
X52489389Y-77306564D01*
X52449000Y-77103516D01*
X52449000Y-76896484D01*
X52489389Y-76693436D01*
X52568615Y-76502167D01*
X52683635Y-76330027D01*
X52830027Y-76183635D01*
X53002165Y-76068616D01*
X53002167Y-76068615D01*
X53193436Y-75989389D01*
X53396484Y-75949000D01*
X53603516Y-75949000D01*
X53806564Y-75989389D01*
G37*
G36*
X47306564Y-75989389D02*
G01*
X47497833Y-76068615D01*
X47497835Y-76068616D01*
X47669973Y-76183635D01*
X47816365Y-76330027D01*
X47931385Y-76502167D01*
X48010611Y-76693436D01*
X48051000Y-76896484D01*
X48051000Y-77103516D01*
X48010611Y-77306564D01*
X47940932Y-77474784D01*
X47931384Y-77497835D01*
X47816365Y-77669973D01*
X47669973Y-77816365D01*
X47497835Y-77931384D01*
X47497834Y-77931385D01*
X47497833Y-77931385D01*
X47306564Y-78010611D01*
X47103516Y-78051000D01*
X46896484Y-78051000D01*
X46693436Y-78010611D01*
X46502167Y-77931385D01*
X46502166Y-77931385D01*
X46502165Y-77931384D01*
X46330027Y-77816365D01*
X46183635Y-77669973D01*
X46068616Y-77497835D01*
X46059068Y-77474784D01*
X45989389Y-77306564D01*
X45949000Y-77103516D01*
X45949000Y-76896484D01*
X45989389Y-76693436D01*
X46068615Y-76502167D01*
X46183635Y-76330027D01*
X46330027Y-76183635D01*
X46502165Y-76068616D01*
X46502167Y-76068615D01*
X46693436Y-75989389D01*
X46896484Y-75949000D01*
X47103516Y-75949000D01*
X47306564Y-75989389D01*
G37*
G36*
X12737142Y-74408242D02*
G01*
X12885101Y-74469529D01*
X13018255Y-74558499D01*
X13131501Y-74671745D01*
X13220471Y-74804899D01*
X13281758Y-74952858D01*
X13313000Y-75109925D01*
X13313000Y-75270075D01*
X13281758Y-75427142D01*
X13220471Y-75575101D01*
X13131501Y-75708255D01*
X13018255Y-75821501D01*
X12885101Y-75910471D01*
X12737142Y-75971758D01*
X12580075Y-76003000D01*
X12419925Y-76003000D01*
X12262858Y-75971758D01*
X12114899Y-75910471D01*
X11981745Y-75821501D01*
X11868499Y-75708255D01*
X11779529Y-75575101D01*
X11718242Y-75427142D01*
X11687000Y-75270075D01*
X11687000Y-75109925D01*
X11718242Y-74952858D01*
X11779529Y-74804899D01*
X11868499Y-74671745D01*
X11981745Y-74558499D01*
X12114899Y-74469529D01*
X12262858Y-74408242D01*
X12419925Y-74377000D01*
X12580075Y-74377000D01*
X12737142Y-74408242D01*
G37*
G36*
X18273512Y-69533927D02*
G01*
X18422812Y-69563624D01*
X18586784Y-69631544D01*
X18734354Y-69730147D01*
X18859853Y-69855646D01*
X18958456Y-70003216D01*
X19026376Y-70167188D01*
X19061000Y-70341259D01*
X19061000Y-70518741D01*
X19026376Y-70692812D01*
X18958456Y-70856784D01*
X18859853Y-71004354D01*
X18734354Y-71129853D01*
X18586784Y-71228456D01*
X18422812Y-71296376D01*
X18273512Y-71326073D01*
X18248742Y-71331000D01*
X18071258Y-71331000D01*
X18046488Y-71326073D01*
X17897188Y-71296376D01*
X17733216Y-71228456D01*
X17585646Y-71129853D01*
X17460147Y-71004354D01*
X17361544Y-70856784D01*
X17293624Y-70692812D01*
X17259000Y-70518741D01*
X17259000Y-70341259D01*
X17293624Y-70167188D01*
X17361544Y-70003216D01*
X17460147Y-69855646D01*
X17585646Y-69730147D01*
X17733216Y-69631544D01*
X17897188Y-69563624D01*
X18046488Y-69533927D01*
X18071258Y-69529000D01*
X18248742Y-69529000D01*
X18273512Y-69533927D01*
G37*
G36*
X20813512Y-69533927D02*
G01*
X20962812Y-69563624D01*
X21126784Y-69631544D01*
X21274354Y-69730147D01*
X21399853Y-69855646D01*
X21498456Y-70003216D01*
X21566376Y-70167188D01*
X21601000Y-70341259D01*
X21601000Y-70518741D01*
X21566376Y-70692812D01*
X21498456Y-70856784D01*
X21399853Y-71004354D01*
X21274354Y-71129853D01*
X21126784Y-71228456D01*
X20962812Y-71296376D01*
X20813512Y-71326073D01*
X20788742Y-71331000D01*
X20611258Y-71331000D01*
X20586488Y-71326073D01*
X20437188Y-71296376D01*
X20273216Y-71228456D01*
X20125646Y-71129853D01*
X20000147Y-71004354D01*
X19901544Y-70856784D01*
X19833624Y-70692812D01*
X19799000Y-70518741D01*
X19799000Y-70341259D01*
X19833624Y-70167188D01*
X19901544Y-70003216D01*
X20000147Y-69855646D01*
X20125646Y-69730147D01*
X20273216Y-69631544D01*
X20437188Y-69563624D01*
X20586488Y-69533927D01*
X20611258Y-69529000D01*
X20788742Y-69529000D01*
X20813512Y-69533927D01*
G37*
G36*
X25893512Y-69533927D02*
G01*
X26042812Y-69563624D01*
X26206784Y-69631544D01*
X26354354Y-69730147D01*
X26479853Y-69855646D01*
X26578456Y-70003216D01*
X26646376Y-70167188D01*
X26681000Y-70341259D01*
X26681000Y-70518741D01*
X26646376Y-70692812D01*
X26578456Y-70856784D01*
X26479853Y-71004354D01*
X26354354Y-71129853D01*
X26206784Y-71228456D01*
X26042812Y-71296376D01*
X25893512Y-71326073D01*
X25868742Y-71331000D01*
X25691258Y-71331000D01*
X25666488Y-71326073D01*
X25517188Y-71296376D01*
X25353216Y-71228456D01*
X25205646Y-71129853D01*
X25080147Y-71004354D01*
X24981544Y-70856784D01*
X24913624Y-70692812D01*
X24879000Y-70518741D01*
X24879000Y-70341259D01*
X24913624Y-70167188D01*
X24981544Y-70003216D01*
X25080147Y-69855646D01*
X25205646Y-69730147D01*
X25353216Y-69631544D01*
X25517188Y-69563624D01*
X25666488Y-69533927D01*
X25691258Y-69529000D01*
X25868742Y-69529000D01*
X25893512Y-69533927D01*
G37*
G36*
X10653512Y-69533927D02*
G01*
X10802812Y-69563624D01*
X10966784Y-69631544D01*
X11114354Y-69730147D01*
X11239853Y-69855646D01*
X11338456Y-70003216D01*
X11406376Y-70167188D01*
X11441000Y-70341259D01*
X11441000Y-70518741D01*
X11406376Y-70692812D01*
X11338456Y-70856784D01*
X11239853Y-71004354D01*
X11114354Y-71129853D01*
X10966784Y-71228456D01*
X10802812Y-71296376D01*
X10653512Y-71326073D01*
X10628742Y-71331000D01*
X10451258Y-71331000D01*
X10426488Y-71326073D01*
X10277188Y-71296376D01*
X10113216Y-71228456D01*
X9965646Y-71129853D01*
X9840147Y-71004354D01*
X9741544Y-70856784D01*
X9673624Y-70692812D01*
X9639000Y-70518741D01*
X9639000Y-70341259D01*
X9673624Y-70167188D01*
X9741544Y-70003216D01*
X9840147Y-69855646D01*
X9965646Y-69730147D01*
X10113216Y-69631544D01*
X10277188Y-69563624D01*
X10426488Y-69533927D01*
X10451258Y-69529000D01*
X10628742Y-69529000D01*
X10653512Y-69533927D01*
G37*
G36*
X8113512Y-69533927D02*
G01*
X8262812Y-69563624D01*
X8426784Y-69631544D01*
X8574354Y-69730147D01*
X8699853Y-69855646D01*
X8798456Y-70003216D01*
X8866376Y-70167188D01*
X8901000Y-70341259D01*
X8901000Y-70518741D01*
X8866376Y-70692812D01*
X8798456Y-70856784D01*
X8699853Y-71004354D01*
X8574354Y-71129853D01*
X8426784Y-71228456D01*
X8262812Y-71296376D01*
X8113512Y-71326073D01*
X8088742Y-71331000D01*
X7911258Y-71331000D01*
X7886488Y-71326073D01*
X7737188Y-71296376D01*
X7573216Y-71228456D01*
X7425646Y-71129853D01*
X7300147Y-71004354D01*
X7201544Y-70856784D01*
X7133624Y-70692812D01*
X7099000Y-70518741D01*
X7099000Y-70341259D01*
X7133624Y-70167188D01*
X7201544Y-70003216D01*
X7300147Y-69855646D01*
X7425646Y-69730147D01*
X7573216Y-69631544D01*
X7737188Y-69563624D01*
X7886488Y-69533927D01*
X7911258Y-69529000D01*
X8088742Y-69529000D01*
X8113512Y-69533927D01*
G37*
G36*
X23353512Y-69533927D02*
G01*
X23502812Y-69563624D01*
X23666784Y-69631544D01*
X23814354Y-69730147D01*
X23939853Y-69855646D01*
X24038456Y-70003216D01*
X24106376Y-70167188D01*
X24141000Y-70341259D01*
X24141000Y-70518741D01*
X24106376Y-70692812D01*
X24038456Y-70856784D01*
X23939853Y-71004354D01*
X23814354Y-71129853D01*
X23666784Y-71228456D01*
X23502812Y-71296376D01*
X23353512Y-71326073D01*
X23328742Y-71331000D01*
X23151258Y-71331000D01*
X23126488Y-71326073D01*
X22977188Y-71296376D01*
X22813216Y-71228456D01*
X22665646Y-71129853D01*
X22540147Y-71004354D01*
X22441544Y-70856784D01*
X22373624Y-70692812D01*
X22339000Y-70518741D01*
X22339000Y-70341259D01*
X22373624Y-70167188D01*
X22441544Y-70003216D01*
X22540147Y-69855646D01*
X22665646Y-69730147D01*
X22813216Y-69631544D01*
X22977188Y-69563624D01*
X23126488Y-69533927D01*
X23151258Y-69529000D01*
X23328742Y-69529000D01*
X23353512Y-69533927D01*
G37*
G36*
X13193512Y-69533927D02*
G01*
X13342812Y-69563624D01*
X13506784Y-69631544D01*
X13654354Y-69730147D01*
X13779853Y-69855646D01*
X13878456Y-70003216D01*
X13946376Y-70167188D01*
X13981000Y-70341259D01*
X13981000Y-70518741D01*
X13946376Y-70692812D01*
X13878456Y-70856784D01*
X13779853Y-71004354D01*
X13654354Y-71129853D01*
X13506784Y-71228456D01*
X13342812Y-71296376D01*
X13193512Y-71326073D01*
X13168742Y-71331000D01*
X12991258Y-71331000D01*
X12966488Y-71326073D01*
X12817188Y-71296376D01*
X12653216Y-71228456D01*
X12505646Y-71129853D01*
X12380147Y-71004354D01*
X12281544Y-70856784D01*
X12213624Y-70692812D01*
X12179000Y-70518741D01*
X12179000Y-70341259D01*
X12213624Y-70167188D01*
X12281544Y-70003216D01*
X12380147Y-69855646D01*
X12505646Y-69730147D01*
X12653216Y-69631544D01*
X12817188Y-69563624D01*
X12966488Y-69533927D01*
X12991258Y-69529000D01*
X13168742Y-69529000D01*
X13193512Y-69533927D01*
G37*
G36*
X15733512Y-69533927D02*
G01*
X15882812Y-69563624D01*
X16046784Y-69631544D01*
X16194354Y-69730147D01*
X16319853Y-69855646D01*
X16418456Y-70003216D01*
X16486376Y-70167188D01*
X16521000Y-70341259D01*
X16521000Y-70518741D01*
X16486376Y-70692812D01*
X16418456Y-70856784D01*
X16319853Y-71004354D01*
X16194354Y-71129853D01*
X16046784Y-71228456D01*
X15882812Y-71296376D01*
X15733512Y-71326073D01*
X15708742Y-71331000D01*
X15531258Y-71331000D01*
X15506488Y-71326073D01*
X15357188Y-71296376D01*
X15193216Y-71228456D01*
X15045646Y-71129853D01*
X14920147Y-71004354D01*
X14821544Y-70856784D01*
X14753624Y-70692812D01*
X14719000Y-70518741D01*
X14719000Y-70341259D01*
X14753624Y-70167188D01*
X14821544Y-70003216D01*
X14920147Y-69855646D01*
X15045646Y-69730147D01*
X15193216Y-69631544D01*
X15357188Y-69563624D01*
X15506488Y-69533927D01*
X15531258Y-69529000D01*
X15708742Y-69529000D01*
X15733512Y-69533927D01*
G37*
G36*
X61737142Y-63028242D02*
G01*
X61885101Y-63089529D01*
X62018255Y-63178499D01*
X62131501Y-63291745D01*
X62220471Y-63424899D01*
X62281758Y-63572858D01*
X62313000Y-63729925D01*
X62313000Y-63890075D01*
X62281758Y-64047142D01*
X62220471Y-64195101D01*
X62131501Y-64328255D01*
X62018255Y-64441501D01*
X61885101Y-64530471D01*
X61737142Y-64591758D01*
X61580075Y-64623000D01*
X61419925Y-64623000D01*
X61262858Y-64591758D01*
X61114899Y-64530471D01*
X60981745Y-64441501D01*
X60868499Y-64328255D01*
X60779529Y-64195101D01*
X60718242Y-64047142D01*
X60687000Y-63890075D01*
X60687000Y-63729925D01*
X60718242Y-63572858D01*
X60779529Y-63424899D01*
X60868499Y-63291745D01*
X60981745Y-63178499D01*
X61114899Y-63089529D01*
X61262858Y-63028242D01*
X61419925Y-62997000D01*
X61580075Y-62997000D01*
X61737142Y-63028242D01*
G37*
G36*
X61737142Y-60488242D02*
G01*
X61885101Y-60549529D01*
X62018255Y-60638499D01*
X62131501Y-60751745D01*
X62220471Y-60884899D01*
X62281758Y-61032858D01*
X62313000Y-61189925D01*
X62313000Y-61350075D01*
X62281758Y-61507142D01*
X62220471Y-61655101D01*
X62131501Y-61788255D01*
X62018255Y-61901501D01*
X61885101Y-61990471D01*
X61737142Y-62051758D01*
X61580075Y-62083000D01*
X61419925Y-62083000D01*
X61262858Y-62051758D01*
X61114899Y-61990471D01*
X60981745Y-61901501D01*
X60868499Y-61788255D01*
X60779529Y-61655101D01*
X60718242Y-61507142D01*
X60687000Y-61350075D01*
X60687000Y-61189925D01*
X60718242Y-61032858D01*
X60779529Y-60884899D01*
X60868499Y-60751745D01*
X60981745Y-60638499D01*
X61114899Y-60549529D01*
X61262858Y-60488242D01*
X61419925Y-60457000D01*
X61580075Y-60457000D01*
X61737142Y-60488242D01*
G37*
G36*
X61737142Y-57948242D02*
G01*
X61885101Y-58009529D01*
X62018255Y-58098499D01*
X62131501Y-58211745D01*
X62220471Y-58344899D01*
X62281758Y-58492858D01*
X62313000Y-58649925D01*
X62313000Y-58810075D01*
X62281758Y-58967142D01*
X62220471Y-59115101D01*
X62131501Y-59248255D01*
X62018255Y-59361501D01*
X61885101Y-59450471D01*
X61737142Y-59511758D01*
X61580075Y-59543000D01*
X61419925Y-59543000D01*
X61262858Y-59511758D01*
X61114899Y-59450471D01*
X60981745Y-59361501D01*
X60868499Y-59248255D01*
X60779529Y-59115101D01*
X60718242Y-58967142D01*
X60687000Y-58810075D01*
X60687000Y-58649925D01*
X60718242Y-58492858D01*
X60779529Y-58344899D01*
X60868499Y-58211745D01*
X60981745Y-58098499D01*
X61114899Y-58009529D01*
X61262858Y-57948242D01*
X61419925Y-57917000D01*
X61580075Y-57917000D01*
X61737142Y-57948242D01*
G37*
G36*
X61737142Y-55408242D02*
G01*
X61885101Y-55469529D01*
X62018255Y-55558499D01*
X62131501Y-55671745D01*
X62220471Y-55804899D01*
X62281758Y-55952858D01*
X62313000Y-56109925D01*
X62313000Y-56270075D01*
X62281758Y-56427142D01*
X62220471Y-56575101D01*
X62131501Y-56708255D01*
X62018255Y-56821501D01*
X61885101Y-56910471D01*
X61737142Y-56971758D01*
X61580075Y-57003000D01*
X61419925Y-57003000D01*
X61262858Y-56971758D01*
X61114899Y-56910471D01*
X60981745Y-56821501D01*
X60868499Y-56708255D01*
X60779529Y-56575101D01*
X60718242Y-56427142D01*
X60687000Y-56270075D01*
X60687000Y-56109925D01*
X60718242Y-55952858D01*
X60779529Y-55804899D01*
X60868499Y-55671745D01*
X60981745Y-55558499D01*
X61114899Y-55469529D01*
X61262858Y-55408242D01*
X61419925Y-55377000D01*
X61580075Y-55377000D01*
X61737142Y-55408242D01*
G37*
G36*
X20813512Y-46673927D02*
G01*
X20962812Y-46703624D01*
X21126784Y-46771544D01*
X21274354Y-46870147D01*
X21399853Y-46995646D01*
X21498456Y-47143216D01*
X21566376Y-47307188D01*
X21601000Y-47481259D01*
X21601000Y-47658741D01*
X21566376Y-47832812D01*
X21498456Y-47996784D01*
X21399853Y-48144354D01*
X21274354Y-48269853D01*
X21126784Y-48368456D01*
X20962812Y-48436376D01*
X20813512Y-48466073D01*
X20788742Y-48471000D01*
X20611258Y-48471000D01*
X20586488Y-48466073D01*
X20437188Y-48436376D01*
X20273216Y-48368456D01*
X20125646Y-48269853D01*
X20000147Y-48144354D01*
X19901544Y-47996784D01*
X19833624Y-47832812D01*
X19799000Y-47658741D01*
X19799000Y-47481259D01*
X19833624Y-47307188D01*
X19901544Y-47143216D01*
X20000147Y-46995646D01*
X20125646Y-46870147D01*
X20273216Y-46771544D01*
X20437188Y-46703624D01*
X20586488Y-46673927D01*
X20611258Y-46669000D01*
X20788742Y-46669000D01*
X20813512Y-46673927D01*
G37*
G36*
X8113512Y-46673927D02*
G01*
X8262812Y-46703624D01*
X8426784Y-46771544D01*
X8574354Y-46870147D01*
X8699853Y-46995646D01*
X8798456Y-47143216D01*
X8866376Y-47307188D01*
X8901000Y-47481259D01*
X8901000Y-47658741D01*
X8866376Y-47832812D01*
X8798456Y-47996784D01*
X8699853Y-48144354D01*
X8574354Y-48269853D01*
X8426784Y-48368456D01*
X8262812Y-48436376D01*
X8113512Y-48466073D01*
X8088742Y-48471000D01*
X7911258Y-48471000D01*
X7886488Y-48466073D01*
X7737188Y-48436376D01*
X7573216Y-48368456D01*
X7425646Y-48269853D01*
X7300147Y-48144354D01*
X7201544Y-47996784D01*
X7133624Y-47832812D01*
X7099000Y-47658741D01*
X7099000Y-47481259D01*
X7133624Y-47307188D01*
X7201544Y-47143216D01*
X7300147Y-46995646D01*
X7425646Y-46870147D01*
X7573216Y-46771544D01*
X7737188Y-46703624D01*
X7886488Y-46673927D01*
X7911258Y-46669000D01*
X8088742Y-46669000D01*
X8113512Y-46673927D01*
G37*
G36*
X18273512Y-46673927D02*
G01*
X18422812Y-46703624D01*
X18586784Y-46771544D01*
X18734354Y-46870147D01*
X18859853Y-46995646D01*
X18958456Y-47143216D01*
X19026376Y-47307188D01*
X19061000Y-47481259D01*
X19061000Y-47658741D01*
X19026376Y-47832812D01*
X18958456Y-47996784D01*
X18859853Y-48144354D01*
X18734354Y-48269853D01*
X18586784Y-48368456D01*
X18422812Y-48436376D01*
X18273512Y-48466073D01*
X18248742Y-48471000D01*
X18071258Y-48471000D01*
X18046488Y-48466073D01*
X17897188Y-48436376D01*
X17733216Y-48368456D01*
X17585646Y-48269853D01*
X17460147Y-48144354D01*
X17361544Y-47996784D01*
X17293624Y-47832812D01*
X17259000Y-47658741D01*
X17259000Y-47481259D01*
X17293624Y-47307188D01*
X17361544Y-47143216D01*
X17460147Y-46995646D01*
X17585646Y-46870147D01*
X17733216Y-46771544D01*
X17897188Y-46703624D01*
X18046488Y-46673927D01*
X18071258Y-46669000D01*
X18248742Y-46669000D01*
X18273512Y-46673927D01*
G37*
G36*
X15733512Y-46673927D02*
G01*
X15882812Y-46703624D01*
X16046784Y-46771544D01*
X16194354Y-46870147D01*
X16319853Y-46995646D01*
X16418456Y-47143216D01*
X16486376Y-47307188D01*
X16521000Y-47481259D01*
X16521000Y-47658741D01*
X16486376Y-47832812D01*
X16418456Y-47996784D01*
X16319853Y-48144354D01*
X16194354Y-48269853D01*
X16046784Y-48368456D01*
X15882812Y-48436376D01*
X15733512Y-48466073D01*
X15708742Y-48471000D01*
X15531258Y-48471000D01*
X15506488Y-48466073D01*
X15357188Y-48436376D01*
X15193216Y-48368456D01*
X15045646Y-48269853D01*
X14920147Y-48144354D01*
X14821544Y-47996784D01*
X14753624Y-47832812D01*
X14719000Y-47658741D01*
X14719000Y-47481259D01*
X14753624Y-47307188D01*
X14821544Y-47143216D01*
X14920147Y-46995646D01*
X15045646Y-46870147D01*
X15193216Y-46771544D01*
X15357188Y-46703624D01*
X15506488Y-46673927D01*
X15531258Y-46669000D01*
X15708742Y-46669000D01*
X15733512Y-46673927D01*
G37*
G36*
X25893512Y-46673927D02*
G01*
X26042812Y-46703624D01*
X26206784Y-46771544D01*
X26354354Y-46870147D01*
X26479853Y-46995646D01*
X26578456Y-47143216D01*
X26646376Y-47307188D01*
X26681000Y-47481259D01*
X26681000Y-47658741D01*
X26646376Y-47832812D01*
X26578456Y-47996784D01*
X26479853Y-48144354D01*
X26354354Y-48269853D01*
X26206784Y-48368456D01*
X26042812Y-48436376D01*
X25893512Y-48466073D01*
X25868742Y-48471000D01*
X25691258Y-48471000D01*
X25666488Y-48466073D01*
X25517188Y-48436376D01*
X25353216Y-48368456D01*
X25205646Y-48269853D01*
X25080147Y-48144354D01*
X24981544Y-47996784D01*
X24913624Y-47832812D01*
X24879000Y-47658741D01*
X24879000Y-47481259D01*
X24913624Y-47307188D01*
X24981544Y-47143216D01*
X25080147Y-46995646D01*
X25205646Y-46870147D01*
X25353216Y-46771544D01*
X25517188Y-46703624D01*
X25666488Y-46673927D01*
X25691258Y-46669000D01*
X25868742Y-46669000D01*
X25893512Y-46673927D01*
G37*
G36*
X10653512Y-46673927D02*
G01*
X10802812Y-46703624D01*
X10966784Y-46771544D01*
X11114354Y-46870147D01*
X11239853Y-46995646D01*
X11338456Y-47143216D01*
X11406376Y-47307188D01*
X11441000Y-47481259D01*
X11441000Y-47658741D01*
X11406376Y-47832812D01*
X11338456Y-47996784D01*
X11239853Y-48144354D01*
X11114354Y-48269853D01*
X10966784Y-48368456D01*
X10802812Y-48436376D01*
X10653512Y-48466073D01*
X10628742Y-48471000D01*
X10451258Y-48471000D01*
X10426488Y-48466073D01*
X10277188Y-48436376D01*
X10113216Y-48368456D01*
X9965646Y-48269853D01*
X9840147Y-48144354D01*
X9741544Y-47996784D01*
X9673624Y-47832812D01*
X9639000Y-47658741D01*
X9639000Y-47481259D01*
X9673624Y-47307188D01*
X9741544Y-47143216D01*
X9840147Y-46995646D01*
X9965646Y-46870147D01*
X10113216Y-46771544D01*
X10277188Y-46703624D01*
X10426488Y-46673927D01*
X10451258Y-46669000D01*
X10628742Y-46669000D01*
X10653512Y-46673927D01*
G37*
G36*
X23353512Y-46673927D02*
G01*
X23502812Y-46703624D01*
X23666784Y-46771544D01*
X23814354Y-46870147D01*
X23939853Y-46995646D01*
X24038456Y-47143216D01*
X24106376Y-47307188D01*
X24141000Y-47481259D01*
X24141000Y-47658741D01*
X24106376Y-47832812D01*
X24038456Y-47996784D01*
X23939853Y-48144354D01*
X23814354Y-48269853D01*
X23666784Y-48368456D01*
X23502812Y-48436376D01*
X23353512Y-48466073D01*
X23328742Y-48471000D01*
X23151258Y-48471000D01*
X23126488Y-48466073D01*
X22977188Y-48436376D01*
X22813216Y-48368456D01*
X22665646Y-48269853D01*
X22540147Y-48144354D01*
X22441544Y-47996784D01*
X22373624Y-47832812D01*
X22339000Y-47658741D01*
X22339000Y-47481259D01*
X22373624Y-47307188D01*
X22441544Y-47143216D01*
X22540147Y-46995646D01*
X22665646Y-46870147D01*
X22813216Y-46771544D01*
X22977188Y-46703624D01*
X23126488Y-46673927D01*
X23151258Y-46669000D01*
X23328742Y-46669000D01*
X23353512Y-46673927D01*
G37*
G36*
X13193512Y-46673927D02*
G01*
X13342812Y-46703624D01*
X13506784Y-46771544D01*
X13654354Y-46870147D01*
X13779853Y-46995646D01*
X13878456Y-47143216D01*
X13946376Y-47307188D01*
X13981000Y-47481259D01*
X13981000Y-47658741D01*
X13946376Y-47832812D01*
X13878456Y-47996784D01*
X13779853Y-48144354D01*
X13654354Y-48269853D01*
X13506784Y-48368456D01*
X13342812Y-48436376D01*
X13193512Y-48466073D01*
X13168742Y-48471000D01*
X12991258Y-48471000D01*
X12966488Y-48466073D01*
X12817188Y-48436376D01*
X12653216Y-48368456D01*
X12505646Y-48269853D01*
X12380147Y-48144354D01*
X12281544Y-47996784D01*
X12213624Y-47832812D01*
X12179000Y-47658741D01*
X12179000Y-47481259D01*
X12213624Y-47307188D01*
X12281544Y-47143216D01*
X12380147Y-46995646D01*
X12505646Y-46870147D01*
X12653216Y-46771544D01*
X12817188Y-46703624D01*
X12966488Y-46673927D01*
X12991258Y-46669000D01*
X13168742Y-46669000D01*
X13193512Y-46673927D01*
G37*
G36*
X53047142Y-46718242D02*
G01*
X53195101Y-46779529D01*
X53328255Y-46868499D01*
X53441501Y-46981745D01*
X53530471Y-47114899D01*
X53591758Y-47262858D01*
X53623000Y-47419925D01*
X53623000Y-47580075D01*
X53591758Y-47737142D01*
X53530471Y-47885101D01*
X53441501Y-48018255D01*
X53328255Y-48131501D01*
X53195101Y-48220471D01*
X53047142Y-48281758D01*
X52890075Y-48313000D01*
X52729925Y-48313000D01*
X52572858Y-48281758D01*
X52424899Y-48220471D01*
X52291745Y-48131501D01*
X52178499Y-48018255D01*
X52089529Y-47885101D01*
X52028242Y-47737142D01*
X51997000Y-47580075D01*
X51997000Y-47419925D01*
X52028242Y-47262858D01*
X52089529Y-47114899D01*
X52178499Y-46981745D01*
X52291745Y-46868499D01*
X52424899Y-46779529D01*
X52572858Y-46718242D01*
X52729925Y-46687000D01*
X52890075Y-46687000D01*
X53047142Y-46718242D01*
G37*
G36*
X47967142Y-46718242D02*
G01*
X48115101Y-46779529D01*
X48248255Y-46868499D01*
X48361501Y-46981745D01*
X48450471Y-47114899D01*
X48511758Y-47262858D01*
X48543000Y-47419925D01*
X48543000Y-47580075D01*
X48511758Y-47737142D01*
X48450471Y-47885101D01*
X48361501Y-48018255D01*
X48248255Y-48131501D01*
X48115101Y-48220471D01*
X47967142Y-48281758D01*
X47810075Y-48313000D01*
X47649925Y-48313000D01*
X47492858Y-48281758D01*
X47344899Y-48220471D01*
X47211745Y-48131501D01*
X47098499Y-48018255D01*
X47009529Y-47885101D01*
X46948242Y-47737142D01*
X46917000Y-47580075D01*
X46917000Y-47419925D01*
X46948242Y-47262858D01*
X47009529Y-47114899D01*
X47098499Y-46981745D01*
X47211745Y-46868499D01*
X47344899Y-46779529D01*
X47492858Y-46718242D01*
X47649925Y-46687000D01*
X47810075Y-46687000D01*
X47967142Y-46718242D01*
G37*
G36*
X50507142Y-46718242D02*
G01*
X50655101Y-46779529D01*
X50788255Y-46868499D01*
X50901501Y-46981745D01*
X50990471Y-47114899D01*
X51051758Y-47262858D01*
X51083000Y-47419925D01*
X51083000Y-47580075D01*
X51051758Y-47737142D01*
X50990471Y-47885101D01*
X50901501Y-48018255D01*
X50788255Y-48131501D01*
X50655101Y-48220471D01*
X50507142Y-48281758D01*
X50350075Y-48313000D01*
X50189925Y-48313000D01*
X50032858Y-48281758D01*
X49884899Y-48220471D01*
X49751745Y-48131501D01*
X49638499Y-48018255D01*
X49549529Y-47885101D01*
X49488242Y-47737142D01*
X49457000Y-47580075D01*
X49457000Y-47419925D01*
X49488242Y-47262858D01*
X49549529Y-47114899D01*
X49638499Y-46981745D01*
X49751745Y-46868499D01*
X49884899Y-46779529D01*
X50032858Y-46718242D01*
X50189925Y-46687000D01*
X50350075Y-46687000D01*
X50507142Y-46718242D01*
G37*
G36*
X45427142Y-46718242D02*
G01*
X45575101Y-46779529D01*
X45708255Y-46868499D01*
X45821501Y-46981745D01*
X45910471Y-47114899D01*
X45971758Y-47262858D01*
X46003000Y-47419925D01*
X46003000Y-47580075D01*
X45971758Y-47737142D01*
X45910471Y-47885101D01*
X45821501Y-48018255D01*
X45708255Y-48131501D01*
X45575101Y-48220471D01*
X45427142Y-48281758D01*
X45270075Y-48313000D01*
X45109925Y-48313000D01*
X44952858Y-48281758D01*
X44804899Y-48220471D01*
X44671745Y-48131501D01*
X44558499Y-48018255D01*
X44469529Y-47885101D01*
X44408242Y-47737142D01*
X44377000Y-47580075D01*
X44377000Y-47419925D01*
X44408242Y-47262858D01*
X44469529Y-47114899D01*
X44558499Y-46981745D01*
X44671745Y-46868499D01*
X44804899Y-46779529D01*
X44952858Y-46718242D01*
X45109925Y-46687000D01*
X45270075Y-46687000D01*
X45427142Y-46718242D01*
G37*
G36*
X41443512Y-13343927D02*
G01*
X41592812Y-13373624D01*
X41756784Y-13441544D01*
X41904354Y-13540147D01*
X42029853Y-13665646D01*
X42128456Y-13813216D01*
X42196376Y-13977188D01*
X42231000Y-14151259D01*
X42231000Y-14328741D01*
X42196376Y-14502812D01*
X42128456Y-14666784D01*
X42029853Y-14814354D01*
X41904354Y-14939853D01*
X41756784Y-15038456D01*
X41592812Y-15106376D01*
X41443512Y-15136073D01*
X41418742Y-15141000D01*
X41241258Y-15141000D01*
X41216488Y-15136073D01*
X41067188Y-15106376D01*
X40903216Y-15038456D01*
X40755646Y-14939853D01*
X40630147Y-14814354D01*
X40531544Y-14666784D01*
X40463624Y-14502812D01*
X40429000Y-14328741D01*
X40429000Y-14151259D01*
X40463624Y-13977188D01*
X40531544Y-13813216D01*
X40630147Y-13665646D01*
X40755646Y-13540147D01*
X40903216Y-13441544D01*
X41067188Y-13373624D01*
X41216488Y-13343927D01*
X41241258Y-13339000D01*
X41418742Y-13339000D01*
X41443512Y-13343927D01*
G37*
G36*
X38903512Y-13343927D02*
G01*
X39052812Y-13373624D01*
X39216784Y-13441544D01*
X39364354Y-13540147D01*
X39489853Y-13665646D01*
X39588456Y-13813216D01*
X39656376Y-13977188D01*
X39691000Y-14151259D01*
X39691000Y-14328741D01*
X39656376Y-14502812D01*
X39588456Y-14666784D01*
X39489853Y-14814354D01*
X39364354Y-14939853D01*
X39216784Y-15038456D01*
X39052812Y-15106376D01*
X38903512Y-15136073D01*
X38878742Y-15141000D01*
X38701258Y-15141000D01*
X38676488Y-15136073D01*
X38527188Y-15106376D01*
X38363216Y-15038456D01*
X38215646Y-14939853D01*
X38090147Y-14814354D01*
X37991544Y-14666784D01*
X37923624Y-14502812D01*
X37889000Y-14328741D01*
X37889000Y-14151259D01*
X37923624Y-13977188D01*
X37991544Y-13813216D01*
X38090147Y-13665646D01*
X38215646Y-13540147D01*
X38363216Y-13441544D01*
X38527188Y-13373624D01*
X38676488Y-13343927D01*
X38701258Y-13339000D01*
X38878742Y-13339000D01*
X38903512Y-13343927D01*
G37*
G36*
X43983512Y-13343927D02*
G01*
X44132812Y-13373624D01*
X44296784Y-13441544D01*
X44444354Y-13540147D01*
X44569853Y-13665646D01*
X44668456Y-13813216D01*
X44736376Y-13977188D01*
X44771000Y-14151259D01*
X44771000Y-14328741D01*
X44736376Y-14502812D01*
X44668456Y-14666784D01*
X44569853Y-14814354D01*
X44444354Y-14939853D01*
X44296784Y-15038456D01*
X44132812Y-15106376D01*
X43983512Y-15136073D01*
X43958742Y-15141000D01*
X43781258Y-15141000D01*
X43756488Y-15136073D01*
X43607188Y-15106376D01*
X43443216Y-15038456D01*
X43295646Y-14939853D01*
X43170147Y-14814354D01*
X43071544Y-14666784D01*
X43003624Y-14502812D01*
X42969000Y-14328741D01*
X42969000Y-14151259D01*
X43003624Y-13977188D01*
X43071544Y-13813216D01*
X43170147Y-13665646D01*
X43295646Y-13540147D01*
X43443216Y-13441544D01*
X43607188Y-13373624D01*
X43756488Y-13343927D01*
X43781258Y-13339000D01*
X43958742Y-13339000D01*
X43983512Y-13343927D01*
G37*
G36*
X36363512Y-13343927D02*
G01*
X36512812Y-13373624D01*
X36676784Y-13441544D01*
X36824354Y-13540147D01*
X36949853Y-13665646D01*
X37048456Y-13813216D01*
X37116376Y-13977188D01*
X37151000Y-14151259D01*
X37151000Y-14328741D01*
X37116376Y-14502812D01*
X37048456Y-14666784D01*
X36949853Y-14814354D01*
X36824354Y-14939853D01*
X36676784Y-15038456D01*
X36512812Y-15106376D01*
X36363512Y-15136073D01*
X36338742Y-15141000D01*
X36161258Y-15141000D01*
X36136488Y-15136073D01*
X35987188Y-15106376D01*
X35823216Y-15038456D01*
X35675646Y-14939853D01*
X35550147Y-14814354D01*
X35451544Y-14666784D01*
X35383624Y-14502812D01*
X35349000Y-14328741D01*
X35349000Y-14151259D01*
X35383624Y-13977188D01*
X35451544Y-13813216D01*
X35550147Y-13665646D01*
X35675646Y-13540147D01*
X35823216Y-13441544D01*
X35987188Y-13373624D01*
X36136488Y-13343927D01*
X36161258Y-13339000D01*
X36338742Y-13339000D01*
X36363512Y-13343927D01*
G37*
G36*
X28743512Y-13343927D02*
G01*
X28892812Y-13373624D01*
X29056784Y-13441544D01*
X29204354Y-13540147D01*
X29329853Y-13665646D01*
X29428456Y-13813216D01*
X29496376Y-13977188D01*
X29531000Y-14151259D01*
X29531000Y-14328741D01*
X29496376Y-14502812D01*
X29428456Y-14666784D01*
X29329853Y-14814354D01*
X29204354Y-14939853D01*
X29056784Y-15038456D01*
X28892812Y-15106376D01*
X28743512Y-15136073D01*
X28718742Y-15141000D01*
X28541258Y-15141000D01*
X28516488Y-15136073D01*
X28367188Y-15106376D01*
X28203216Y-15038456D01*
X28055646Y-14939853D01*
X27930147Y-14814354D01*
X27831544Y-14666784D01*
X27763624Y-14502812D01*
X27729000Y-14328741D01*
X27729000Y-14151259D01*
X27763624Y-13977188D01*
X27831544Y-13813216D01*
X27930147Y-13665646D01*
X28055646Y-13540147D01*
X28203216Y-13441544D01*
X28367188Y-13373624D01*
X28516488Y-13343927D01*
X28541258Y-13339000D01*
X28718742Y-13339000D01*
X28743512Y-13343927D01*
G37*
G36*
X26203512Y-13343927D02*
G01*
X26352812Y-13373624D01*
X26516784Y-13441544D01*
X26664354Y-13540147D01*
X26789853Y-13665646D01*
X26888456Y-13813216D01*
X26956376Y-13977188D01*
X26991000Y-14151259D01*
X26991000Y-14328741D01*
X26956376Y-14502812D01*
X26888456Y-14666784D01*
X26789853Y-14814354D01*
X26664354Y-14939853D01*
X26516784Y-15038456D01*
X26352812Y-15106376D01*
X26203512Y-15136073D01*
X26178742Y-15141000D01*
X26001258Y-15141000D01*
X25976488Y-15136073D01*
X25827188Y-15106376D01*
X25663216Y-15038456D01*
X25515646Y-14939853D01*
X25390147Y-14814354D01*
X25291544Y-14666784D01*
X25223624Y-14502812D01*
X25189000Y-14328741D01*
X25189000Y-14151259D01*
X25223624Y-13977188D01*
X25291544Y-13813216D01*
X25390147Y-13665646D01*
X25515646Y-13540147D01*
X25663216Y-13441544D01*
X25827188Y-13373624D01*
X25976488Y-13343927D01*
X26001258Y-13339000D01*
X26178742Y-13339000D01*
X26203512Y-13343927D01*
G37*
G36*
X31283512Y-13343927D02*
G01*
X31432812Y-13373624D01*
X31596784Y-13441544D01*
X31744354Y-13540147D01*
X31869853Y-13665646D01*
X31968456Y-13813216D01*
X32036376Y-13977188D01*
X32071000Y-14151259D01*
X32071000Y-14328741D01*
X32036376Y-14502812D01*
X31968456Y-14666784D01*
X31869853Y-14814354D01*
X31744354Y-14939853D01*
X31596784Y-15038456D01*
X31432812Y-15106376D01*
X31283512Y-15136073D01*
X31258742Y-15141000D01*
X31081258Y-15141000D01*
X31056488Y-15136073D01*
X30907188Y-15106376D01*
X30743216Y-15038456D01*
X30595646Y-14939853D01*
X30470147Y-14814354D01*
X30371544Y-14666784D01*
X30303624Y-14502812D01*
X30269000Y-14328741D01*
X30269000Y-14151259D01*
X30303624Y-13977188D01*
X30371544Y-13813216D01*
X30470147Y-13665646D01*
X30595646Y-13540147D01*
X30743216Y-13441544D01*
X30907188Y-13373624D01*
X31056488Y-13343927D01*
X31081258Y-13339000D01*
X31258742Y-13339000D01*
X31283512Y-13343927D01*
G37*
G36*
X33823512Y-13343927D02*
G01*
X33972812Y-13373624D01*
X34136784Y-13441544D01*
X34284354Y-13540147D01*
X34409853Y-13665646D01*
X34508456Y-13813216D01*
X34576376Y-13977188D01*
X34611000Y-14151259D01*
X34611000Y-14328741D01*
X34576376Y-14502812D01*
X34508456Y-14666784D01*
X34409853Y-14814354D01*
X34284354Y-14939853D01*
X34136784Y-15038456D01*
X33972812Y-15106376D01*
X33823512Y-15136073D01*
X33798742Y-15141000D01*
X33621258Y-15141000D01*
X33596488Y-15136073D01*
X33447188Y-15106376D01*
X33283216Y-15038456D01*
X33135646Y-14939853D01*
X33010147Y-14814354D01*
X32911544Y-14666784D01*
X32843624Y-14502812D01*
X32809000Y-14328741D01*
X32809000Y-14151259D01*
X32843624Y-13977188D01*
X32911544Y-13813216D01*
X33010147Y-13665646D01*
X33135646Y-13540147D01*
X33283216Y-13441544D01*
X33447188Y-13373624D01*
X33596488Y-13343927D01*
X33621258Y-13339000D01*
X33798742Y-13339000D01*
X33823512Y-13343927D01*
G37*
G36*
X31283512Y-10803927D02*
G01*
X31432812Y-10833624D01*
X31596784Y-10901544D01*
X31744354Y-11000147D01*
X31869853Y-11125646D01*
X31968456Y-11273216D01*
X32036376Y-11437188D01*
X32071000Y-11611259D01*
X32071000Y-11788741D01*
X32036376Y-11962812D01*
X31968456Y-12126784D01*
X31869853Y-12274354D01*
X31744354Y-12399853D01*
X31596784Y-12498456D01*
X31432812Y-12566376D01*
X31283512Y-12596073D01*
X31258742Y-12601000D01*
X31081258Y-12601000D01*
X31056488Y-12596073D01*
X30907188Y-12566376D01*
X30743216Y-12498456D01*
X30595646Y-12399853D01*
X30470147Y-12274354D01*
X30371544Y-12126784D01*
X30303624Y-11962812D01*
X30269000Y-11788741D01*
X30269000Y-11611259D01*
X30303624Y-11437188D01*
X30371544Y-11273216D01*
X30470147Y-11125646D01*
X30595646Y-11000147D01*
X30743216Y-10901544D01*
X30907188Y-10833624D01*
X31056488Y-10803927D01*
X31081258Y-10799000D01*
X31258742Y-10799000D01*
X31283512Y-10803927D01*
G37*
G36*
X28743512Y-10803927D02*
G01*
X28892812Y-10833624D01*
X29056784Y-10901544D01*
X29204354Y-11000147D01*
X29329853Y-11125646D01*
X29428456Y-11273216D01*
X29496376Y-11437188D01*
X29531000Y-11611259D01*
X29531000Y-11788741D01*
X29496376Y-11962812D01*
X29428456Y-12126784D01*
X29329853Y-12274354D01*
X29204354Y-12399853D01*
X29056784Y-12498456D01*
X28892812Y-12566376D01*
X28743512Y-12596073D01*
X28718742Y-12601000D01*
X28541258Y-12601000D01*
X28516488Y-12596073D01*
X28367188Y-12566376D01*
X28203216Y-12498456D01*
X28055646Y-12399853D01*
X27930147Y-12274354D01*
X27831544Y-12126784D01*
X27763624Y-11962812D01*
X27729000Y-11788741D01*
X27729000Y-11611259D01*
X27763624Y-11437188D01*
X27831544Y-11273216D01*
X27930147Y-11125646D01*
X28055646Y-11000147D01*
X28203216Y-10901544D01*
X28367188Y-10833624D01*
X28516488Y-10803927D01*
X28541258Y-10799000D01*
X28718742Y-10799000D01*
X28743512Y-10803927D01*
G37*
G36*
X33823512Y-10803927D02*
G01*
X33972812Y-10833624D01*
X34136784Y-10901544D01*
X34284354Y-11000147D01*
X34409853Y-11125646D01*
X34508456Y-11273216D01*
X34576376Y-11437188D01*
X34611000Y-11611259D01*
X34611000Y-11788741D01*
X34576376Y-11962812D01*
X34508456Y-12126784D01*
X34409853Y-12274354D01*
X34284354Y-12399853D01*
X34136784Y-12498456D01*
X33972812Y-12566376D01*
X33823512Y-12596073D01*
X33798742Y-12601000D01*
X33621258Y-12601000D01*
X33596488Y-12596073D01*
X33447188Y-12566376D01*
X33283216Y-12498456D01*
X33135646Y-12399853D01*
X33010147Y-12274354D01*
X32911544Y-12126784D01*
X32843624Y-11962812D01*
X32809000Y-11788741D01*
X32809000Y-11611259D01*
X32843624Y-11437188D01*
X32911544Y-11273216D01*
X33010147Y-11125646D01*
X33135646Y-11000147D01*
X33283216Y-10901544D01*
X33447188Y-10833624D01*
X33596488Y-10803927D01*
X33621258Y-10799000D01*
X33798742Y-10799000D01*
X33823512Y-10803927D01*
G37*
G36*
X36363512Y-10803927D02*
G01*
X36512812Y-10833624D01*
X36676784Y-10901544D01*
X36824354Y-11000147D01*
X36949853Y-11125646D01*
X37048456Y-11273216D01*
X37116376Y-11437188D01*
X37151000Y-11611259D01*
X37151000Y-11788741D01*
X37116376Y-11962812D01*
X37048456Y-12126784D01*
X36949853Y-12274354D01*
X36824354Y-12399853D01*
X36676784Y-12498456D01*
X36512812Y-12566376D01*
X36363512Y-12596073D01*
X36338742Y-12601000D01*
X36161258Y-12601000D01*
X36136488Y-12596073D01*
X35987188Y-12566376D01*
X35823216Y-12498456D01*
X35675646Y-12399853D01*
X35550147Y-12274354D01*
X35451544Y-12126784D01*
X35383624Y-11962812D01*
X35349000Y-11788741D01*
X35349000Y-11611259D01*
X35383624Y-11437188D01*
X35451544Y-11273216D01*
X35550147Y-11125646D01*
X35675646Y-11000147D01*
X35823216Y-10901544D01*
X35987188Y-10833624D01*
X36136488Y-10803927D01*
X36161258Y-10799000D01*
X36338742Y-10799000D01*
X36363512Y-10803927D01*
G37*
G36*
X38903512Y-10803927D02*
G01*
X39052812Y-10833624D01*
X39216784Y-10901544D01*
X39364354Y-11000147D01*
X39489853Y-11125646D01*
X39588456Y-11273216D01*
X39656376Y-11437188D01*
X39691000Y-11611259D01*
X39691000Y-11788741D01*
X39656376Y-11962812D01*
X39588456Y-12126784D01*
X39489853Y-12274354D01*
X39364354Y-12399853D01*
X39216784Y-12498456D01*
X39052812Y-12566376D01*
X38903512Y-12596073D01*
X38878742Y-12601000D01*
X38701258Y-12601000D01*
X38676488Y-12596073D01*
X38527188Y-12566376D01*
X38363216Y-12498456D01*
X38215646Y-12399853D01*
X38090147Y-12274354D01*
X37991544Y-12126784D01*
X37923624Y-11962812D01*
X37889000Y-11788741D01*
X37889000Y-11611259D01*
X37923624Y-11437188D01*
X37991544Y-11273216D01*
X38090147Y-11125646D01*
X38215646Y-11000147D01*
X38363216Y-10901544D01*
X38527188Y-10833624D01*
X38676488Y-10803927D01*
X38701258Y-10799000D01*
X38878742Y-10799000D01*
X38903512Y-10803927D01*
G37*
G36*
X41443512Y-10803927D02*
G01*
X41592812Y-10833624D01*
X41756784Y-10901544D01*
X41904354Y-11000147D01*
X42029853Y-11125646D01*
X42128456Y-11273216D01*
X42196376Y-11437188D01*
X42231000Y-11611259D01*
X42231000Y-11788741D01*
X42196376Y-11962812D01*
X42128456Y-12126784D01*
X42029853Y-12274354D01*
X41904354Y-12399853D01*
X41756784Y-12498456D01*
X41592812Y-12566376D01*
X41443512Y-12596073D01*
X41418742Y-12601000D01*
X41241258Y-12601000D01*
X41216488Y-12596073D01*
X41067188Y-12566376D01*
X40903216Y-12498456D01*
X40755646Y-12399853D01*
X40630147Y-12274354D01*
X40531544Y-12126784D01*
X40463624Y-11962812D01*
X40429000Y-11788741D01*
X40429000Y-11611259D01*
X40463624Y-11437188D01*
X40531544Y-11273216D01*
X40630147Y-11125646D01*
X40755646Y-11000147D01*
X40903216Y-10901544D01*
X41067188Y-10833624D01*
X41216488Y-10803927D01*
X41241258Y-10799000D01*
X41418742Y-10799000D01*
X41443512Y-10803927D01*
G37*
G36*
X43983512Y-10803927D02*
G01*
X44132812Y-10833624D01*
X44296784Y-10901544D01*
X44444354Y-11000147D01*
X44569853Y-11125646D01*
X44668456Y-11273216D01*
X44736376Y-11437188D01*
X44771000Y-11611259D01*
X44771000Y-11788741D01*
X44736376Y-11962812D01*
X44668456Y-12126784D01*
X44569853Y-12274354D01*
X44444354Y-12399853D01*
X44296784Y-12498456D01*
X44132812Y-12566376D01*
X43983512Y-12596073D01*
X43958742Y-12601000D01*
X43781258Y-12601000D01*
X43756488Y-12596073D01*
X43607188Y-12566376D01*
X43443216Y-12498456D01*
X43295646Y-12399853D01*
X43170147Y-12274354D01*
X43071544Y-12126784D01*
X43003624Y-11962812D01*
X42969000Y-11788741D01*
X42969000Y-11611259D01*
X43003624Y-11437188D01*
X43071544Y-11273216D01*
X43170147Y-11125646D01*
X43295646Y-11000147D01*
X43443216Y-10901544D01*
X43607188Y-10833624D01*
X43756488Y-10803927D01*
X43781258Y-10799000D01*
X43958742Y-10799000D01*
X43983512Y-10803927D01*
G37*
G36*
X26203512Y-10803927D02*
G01*
X26352812Y-10833624D01*
X26516784Y-10901544D01*
X26664354Y-11000147D01*
X26789853Y-11125646D01*
X26888456Y-11273216D01*
X26956376Y-11437188D01*
X26991000Y-11611259D01*
X26991000Y-11788741D01*
X26956376Y-11962812D01*
X26888456Y-12126784D01*
X26789853Y-12274354D01*
X26664354Y-12399853D01*
X26516784Y-12498456D01*
X26352812Y-12566376D01*
X26203512Y-12596073D01*
X26178742Y-12601000D01*
X26001258Y-12601000D01*
X25976488Y-12596073D01*
X25827188Y-12566376D01*
X25663216Y-12498456D01*
X25515646Y-12399853D01*
X25390147Y-12274354D01*
X25291544Y-12126784D01*
X25223624Y-11962812D01*
X25189000Y-11788741D01*
X25189000Y-11611259D01*
X25223624Y-11437188D01*
X25291544Y-11273216D01*
X25390147Y-11125646D01*
X25515646Y-11000147D01*
X25663216Y-10901544D01*
X25827188Y-10833624D01*
X25976488Y-10803927D01*
X26001258Y-10799000D01*
X26178742Y-10799000D01*
X26203512Y-10803927D01*
G37*
G36*
X5634239Y-1811467D02*
G01*
X5948282Y-1873934D01*
X6539926Y-2119001D01*
X7072392Y-2474784D01*
X7525216Y-2927608D01*
X7880999Y-3460074D01*
X8126066Y-4051718D01*
X8251000Y-4679804D01*
X8251000Y-5320196D01*
X8126066Y-5948282D01*
X7880999Y-6539926D01*
X7525216Y-7072392D01*
X7072392Y-7525216D01*
X6539926Y-7880999D01*
X5948282Y-8126066D01*
X5634239Y-8188533D01*
X5320197Y-8251000D01*
X4679803Y-8251000D01*
X4365761Y-8188533D01*
X4051718Y-8126066D01*
X3460074Y-7880999D01*
X2927608Y-7525216D01*
X2474784Y-7072392D01*
X2119001Y-6539926D01*
X1873934Y-5948282D01*
X1749000Y-5320196D01*
X1749000Y-4679804D01*
X1873934Y-4051718D01*
X2119001Y-3460074D01*
X2474784Y-2927608D01*
X2927608Y-2474784D01*
X3460074Y-2119001D01*
X4051718Y-1873934D01*
X4365761Y-1811467D01*
X4679803Y-1749000D01*
X5320197Y-1749000D01*
X5634239Y-1811467D01*
G37*
G36*
X60634239Y-1811467D02*
G01*
X60948282Y-1873934D01*
X61539926Y-2119001D01*
X62072392Y-2474784D01*
X62525216Y-2927608D01*
X62880999Y-3460074D01*
X63126066Y-4051718D01*
X63251000Y-4679804D01*
X63251000Y-5320196D01*
X63126066Y-5948282D01*
X62880999Y-6539926D01*
X62525216Y-7072392D01*
X62072392Y-7525216D01*
X61539926Y-7880999D01*
X60948282Y-8126066D01*
X60634239Y-8188533D01*
X60320197Y-8251000D01*
X59679803Y-8251000D01*
X59365761Y-8188533D01*
X59051718Y-8126066D01*
X58460074Y-7880999D01*
X57927608Y-7525216D01*
X57474784Y-7072392D01*
X57119001Y-6539926D01*
X56873934Y-5948282D01*
X56749000Y-5320196D01*
X56749000Y-4679804D01*
X56873934Y-4051718D01*
X57119001Y-3460074D01*
X57474784Y-2927608D01*
X57927608Y-2474784D01*
X58460074Y-2119001D01*
X59051718Y-1873934D01*
X59365761Y-1811467D01*
X59679803Y-1749000D01*
X60320197Y-1749000D01*
X60634239Y-1811467D01*
G37*
M02*
