G04 #@! TF.GenerationSoftware,KiCad,Pcbnew,5.1.6+dfsg1-1*
G04 #@! TF.CreationDate,2020-12-01T22:33:45+01:00*
G04 #@! TF.ProjectId,sensorbox,73656e73-6f72-4626-9f78-2e6b69636164,rev?*
G04 #@! TF.SameCoordinates,Original*
G04 #@! TF.FileFunction,Legend,Top*
G04 #@! TF.FilePolarity,Positive*
%FSLAX46Y46*%
G04 Gerber Fmt 4.6, Leading zero omitted, Abs format (unit mm)*
G04 Created by KiCad (PCBNEW 5.1.6+dfsg1-1) date 2020-12-01 22:33:45*
%MOMM*%
%LPD*%
G01*
G04 APERTURE LIST*
%ADD10C,0.050000*%
%ADD11C,0.200000*%
%ADD12C,0.120000*%
%ADD13C,0.150000*%
G04 APERTURE END LIST*
D10*
X19559523Y-78452380D02*
X19559523Y-77452380D01*
X19559523Y-77833333D02*
X19654761Y-77785714D01*
X19845238Y-77785714D01*
X19940476Y-77833333D01*
X19988095Y-77880952D01*
X20035714Y-77976190D01*
X20035714Y-78261904D01*
X19988095Y-78357142D01*
X19940476Y-78404761D01*
X19845238Y-78452380D01*
X19654761Y-78452380D01*
X19559523Y-78404761D01*
X20369047Y-77785714D02*
X20607142Y-78452380D01*
X20845238Y-77785714D02*
X20607142Y-78452380D01*
X20511904Y-78690476D01*
X20464285Y-78738095D01*
X20369047Y-78785714D01*
X21988095Y-78452380D02*
X21988095Y-77452380D01*
X22321428Y-78166666D01*
X22654761Y-77452380D01*
X22654761Y-78452380D01*
X23130952Y-78452380D02*
X23130952Y-77785714D01*
X23130952Y-77452380D02*
X23083333Y-77500000D01*
X23130952Y-77547619D01*
X23178571Y-77500000D01*
X23130952Y-77452380D01*
X23130952Y-77547619D01*
X24035714Y-78404761D02*
X23940476Y-78452380D01*
X23750000Y-78452380D01*
X23654761Y-78404761D01*
X23607142Y-78357142D01*
X23559523Y-78261904D01*
X23559523Y-77976190D01*
X23607142Y-77880952D01*
X23654761Y-77833333D01*
X23750000Y-77785714D01*
X23940476Y-77785714D01*
X24035714Y-77833333D01*
X24464285Y-78452380D02*
X24464285Y-77452380D01*
X24892857Y-78452380D02*
X24892857Y-77928571D01*
X24845238Y-77833333D01*
X24750000Y-77785714D01*
X24607142Y-77785714D01*
X24511904Y-77833333D01*
X24464285Y-77880952D01*
X25797619Y-78452380D02*
X25797619Y-77928571D01*
X25750000Y-77833333D01*
X25654761Y-77785714D01*
X25464285Y-77785714D01*
X25369047Y-77833333D01*
X25797619Y-78404761D02*
X25702380Y-78452380D01*
X25464285Y-78452380D01*
X25369047Y-78404761D01*
X25321428Y-78309523D01*
X25321428Y-78214285D01*
X25369047Y-78119047D01*
X25464285Y-78071428D01*
X25702380Y-78071428D01*
X25797619Y-78023809D01*
X26654761Y-78404761D02*
X26559523Y-78452380D01*
X26369047Y-78452380D01*
X26273809Y-78404761D01*
X26226190Y-78309523D01*
X26226190Y-77928571D01*
X26273809Y-77833333D01*
X26369047Y-77785714D01*
X26559523Y-77785714D01*
X26654761Y-77833333D01*
X26702380Y-77928571D01*
X26702380Y-78023809D01*
X26226190Y-78119047D01*
X27273809Y-78452380D02*
X27178571Y-78404761D01*
X27130952Y-78309523D01*
X27130952Y-77452380D01*
X28321428Y-77452380D02*
X28559523Y-78452380D01*
X28750000Y-77738095D01*
X28940476Y-78452380D01*
X29178571Y-77452380D01*
X29988095Y-77785714D02*
X29988095Y-78452380D01*
X29559523Y-77785714D02*
X29559523Y-78309523D01*
X29607142Y-78404761D01*
X29702380Y-78452380D01*
X29845238Y-78452380D01*
X29940476Y-78404761D01*
X29988095Y-78357142D01*
X29607142Y-77452380D02*
X29654761Y-77500000D01*
X29607142Y-77547619D01*
X29559523Y-77500000D01*
X29607142Y-77452380D01*
X29607142Y-77547619D01*
X29988095Y-77452380D02*
X30035714Y-77500000D01*
X29988095Y-77547619D01*
X29940476Y-77500000D01*
X29988095Y-77452380D01*
X29988095Y-77547619D01*
X30464285Y-78452380D02*
X30464285Y-77785714D01*
X30464285Y-77976190D02*
X30511904Y-77880952D01*
X30559523Y-77833333D01*
X30654761Y-77785714D01*
X30750000Y-77785714D01*
X30940476Y-77785714D02*
X31321428Y-77785714D01*
X31083333Y-77452380D02*
X31083333Y-78309523D01*
X31130952Y-78404761D01*
X31226190Y-78452380D01*
X31321428Y-78452380D01*
X31654761Y-78452380D02*
X31654761Y-77785714D01*
X31654761Y-77452380D02*
X31607142Y-77500000D01*
X31654761Y-77547619D01*
X31702380Y-77500000D01*
X31654761Y-77452380D01*
X31654761Y-77547619D01*
X32130952Y-77785714D02*
X32130952Y-78452380D01*
X32130952Y-77880952D02*
X32178571Y-77833333D01*
X32273809Y-77785714D01*
X32416666Y-77785714D01*
X32511904Y-77833333D01*
X32559523Y-77928571D01*
X32559523Y-78452380D01*
X33464285Y-77785714D02*
X33464285Y-78595238D01*
X33416666Y-78690476D01*
X33369047Y-78738095D01*
X33273809Y-78785714D01*
X33130952Y-78785714D01*
X33035714Y-78738095D01*
X33464285Y-78404761D02*
X33369047Y-78452380D01*
X33178571Y-78452380D01*
X33083333Y-78404761D01*
X33035714Y-78357142D01*
X32988095Y-78261904D01*
X32988095Y-77976190D01*
X33035714Y-77880952D01*
X33083333Y-77833333D01*
X33178571Y-77785714D01*
X33369047Y-77785714D01*
X33464285Y-77833333D01*
X34321428Y-78404761D02*
X34226190Y-78452380D01*
X34035714Y-78452380D01*
X33940476Y-78404761D01*
X33892857Y-78309523D01*
X33892857Y-77928571D01*
X33940476Y-77833333D01*
X34035714Y-77785714D01*
X34226190Y-77785714D01*
X34321428Y-77833333D01*
X34369047Y-77928571D01*
X34369047Y-78023809D01*
X33892857Y-78119047D01*
X34797619Y-78452380D02*
X34797619Y-77785714D01*
X34797619Y-77976190D02*
X34845238Y-77880952D01*
X34892857Y-77833333D01*
X34988095Y-77785714D01*
X35083333Y-77785714D01*
D11*
X19464285Y-76511904D02*
X19821428Y-76630952D01*
X20416666Y-76630952D01*
X20654761Y-76511904D01*
X20773809Y-76392857D01*
X20892857Y-76154761D01*
X20892857Y-75916666D01*
X20773809Y-75678571D01*
X20654761Y-75559523D01*
X20416666Y-75440476D01*
X19940476Y-75321428D01*
X19702380Y-75202380D01*
X19583333Y-75083333D01*
X19464285Y-74845238D01*
X19464285Y-74607142D01*
X19583333Y-74369047D01*
X19702380Y-74250000D01*
X19940476Y-74130952D01*
X20535714Y-74130952D01*
X20892857Y-74250000D01*
X22916666Y-76511904D02*
X22678571Y-76630952D01*
X22202380Y-76630952D01*
X21964285Y-76511904D01*
X21845238Y-76273809D01*
X21845238Y-75321428D01*
X21964285Y-75083333D01*
X22202380Y-74964285D01*
X22678571Y-74964285D01*
X22916666Y-75083333D01*
X23035714Y-75321428D01*
X23035714Y-75559523D01*
X21845238Y-75797619D01*
X24107142Y-74964285D02*
X24107142Y-76630952D01*
X24107142Y-75202380D02*
X24226190Y-75083333D01*
X24464285Y-74964285D01*
X24821428Y-74964285D01*
X25059523Y-75083333D01*
X25178571Y-75321428D01*
X25178571Y-76630952D01*
X26250000Y-76511904D02*
X26488095Y-76630952D01*
X26964285Y-76630952D01*
X27202380Y-76511904D01*
X27321428Y-76273809D01*
X27321428Y-76154761D01*
X27202380Y-75916666D01*
X26964285Y-75797619D01*
X26607142Y-75797619D01*
X26369047Y-75678571D01*
X26250000Y-75440476D01*
X26250000Y-75321428D01*
X26369047Y-75083333D01*
X26607142Y-74964285D01*
X26964285Y-74964285D01*
X27202380Y-75083333D01*
X28750000Y-76630952D02*
X28511904Y-76511904D01*
X28392857Y-76392857D01*
X28273809Y-76154761D01*
X28273809Y-75440476D01*
X28392857Y-75202380D01*
X28511904Y-75083333D01*
X28750000Y-74964285D01*
X29107142Y-74964285D01*
X29345238Y-75083333D01*
X29464285Y-75202380D01*
X29583333Y-75440476D01*
X29583333Y-76154761D01*
X29464285Y-76392857D01*
X29345238Y-76511904D01*
X29107142Y-76630952D01*
X28750000Y-76630952D01*
X30654761Y-76630952D02*
X30654761Y-74964285D01*
X30654761Y-75440476D02*
X30773809Y-75202380D01*
X30892857Y-75083333D01*
X31130952Y-74964285D01*
X31369047Y-74964285D01*
X32202380Y-76630952D02*
X32202380Y-74130952D01*
X32202380Y-75083333D02*
X32440476Y-74964285D01*
X32916666Y-74964285D01*
X33154761Y-75083333D01*
X33273809Y-75202380D01*
X33392857Y-75440476D01*
X33392857Y-76154761D01*
X33273809Y-76392857D01*
X33154761Y-76511904D01*
X32916666Y-76630952D01*
X32440476Y-76630952D01*
X32202380Y-76511904D01*
X34821428Y-76630952D02*
X34583333Y-76511904D01*
X34464285Y-76392857D01*
X34345238Y-76154761D01*
X34345238Y-75440476D01*
X34464285Y-75202380D01*
X34583333Y-75083333D01*
X34821428Y-74964285D01*
X35178571Y-74964285D01*
X35416666Y-75083333D01*
X35535714Y-75202380D01*
X35654761Y-75440476D01*
X35654761Y-76154761D01*
X35535714Y-76392857D01*
X35416666Y-76511904D01*
X35178571Y-76630952D01*
X34821428Y-76630952D01*
X36488095Y-76630952D02*
X37797619Y-74964285D01*
X36488095Y-74964285D02*
X37797619Y-76630952D01*
X41130952Y-74130952D02*
X41369047Y-74130952D01*
X41607142Y-74250000D01*
X41726190Y-74369047D01*
X41845238Y-74607142D01*
X41964285Y-75083333D01*
X41964285Y-75678571D01*
X41845238Y-76154761D01*
X41726190Y-76392857D01*
X41607142Y-76511904D01*
X41369047Y-76630952D01*
X41130952Y-76630952D01*
X40892857Y-76511904D01*
X40773809Y-76392857D01*
X40654761Y-76154761D01*
X40535714Y-75678571D01*
X40535714Y-75083333D01*
X40654761Y-74607142D01*
X40773809Y-74369047D01*
X40892857Y-74250000D01*
X41130952Y-74130952D01*
X43035714Y-76392857D02*
X43154761Y-76511904D01*
X43035714Y-76630952D01*
X42916666Y-76511904D01*
X43035714Y-76392857D01*
X43035714Y-76630952D01*
X44107142Y-74369047D02*
X44226190Y-74250000D01*
X44464285Y-74130952D01*
X45059523Y-74130952D01*
X45297619Y-74250000D01*
X45416666Y-74369047D01*
X45535714Y-74607142D01*
X45535714Y-74845238D01*
X45416666Y-75202380D01*
X43988095Y-76630952D01*
X45535714Y-76630952D01*
D12*
X65000000Y-14500000D02*
X65000000Y-72000000D01*
X30300000Y-14500000D02*
X30300000Y-72000000D01*
X65000000Y-14500000D02*
X30300000Y-14500000D01*
X30300000Y-72000000D02*
X65000000Y-72000000D01*
X29000000Y-37319999D02*
X1000000Y-37319999D01*
X1000000Y-37319999D02*
X1000000Y-9319999D01*
X1000000Y-9319999D02*
X29000000Y-9319999D01*
X29000000Y-9319999D02*
X29000000Y-37319999D01*
X29000000Y-9319999D02*
X29000000Y-37319999D01*
X29000000Y-37319999D02*
X1000000Y-37319999D01*
X1000000Y-37319999D02*
X1000000Y-9319999D01*
X1000000Y-9319999D02*
X29000000Y-9319999D01*
X54500000Y-1000000D02*
X54500000Y-13000000D01*
X44500000Y-1000000D02*
X54500000Y-1000000D01*
X44500000Y-13000000D02*
X44500000Y-1000000D01*
X54500000Y-13000000D02*
X44500000Y-13000000D01*
X3000000Y-72000000D02*
X3000000Y-38000000D01*
X3000000Y-38000000D02*
X29000000Y-38000000D01*
X29000000Y-38000000D02*
X29000000Y-72000000D01*
X29000000Y-72000000D02*
X3000000Y-72000000D01*
X16290000Y-3920000D02*
X16290000Y-3764000D01*
X16290000Y-6236000D02*
X16290000Y-6080000D01*
X13688870Y-3920163D02*
G75*
G02*
X15770961Y-3920000I1041130J-1079837D01*
G01*
X13688870Y-6079837D02*
G75*
G03*
X15770961Y-6080000I1041130J1079837D01*
G01*
X13057665Y-3921392D02*
G75*
G02*
X16290000Y-3764484I1672335J-1078608D01*
G01*
X13057665Y-6078608D02*
G75*
G03*
X16290000Y-6235516I1672335J1078608D01*
G01*
X22290000Y-3920000D02*
X22290000Y-3764000D01*
X22290000Y-6236000D02*
X22290000Y-6080000D01*
X19688870Y-3920163D02*
G75*
G02*
X21770961Y-3920000I1041130J-1079837D01*
G01*
X19688870Y-6079837D02*
G75*
G03*
X21770961Y-6080000I1041130J1079837D01*
G01*
X19057665Y-3921392D02*
G75*
G02*
X22290000Y-3764484I1672335J-1078608D01*
G01*
X19057665Y-6078608D02*
G75*
G03*
X22290000Y-6235516I1672335J1078608D01*
G01*
X28290000Y-3920000D02*
X28290000Y-3764000D01*
X28290000Y-6236000D02*
X28290000Y-6080000D01*
X25688870Y-3920163D02*
G75*
G02*
X27770961Y-3920000I1041130J-1079837D01*
G01*
X25688870Y-6079837D02*
G75*
G03*
X27770961Y-6080000I1041130J1079837D01*
G01*
X25057665Y-3921392D02*
G75*
G02*
X28290000Y-3764484I1672335J-1078608D01*
G01*
X25057665Y-6078608D02*
G75*
G03*
X28290000Y-6235516I1672335J1078608D01*
G01*
X32250000Y-5000000D02*
X32250000Y-6500000D01*
X33500000Y-9000000D02*
X38000000Y-9000000D01*
X39250000Y-6500000D02*
X39250000Y-5000000D01*
X38000000Y-2500000D02*
X33500000Y-2500000D01*
D13*
X50238095Y-42952380D02*
X50238095Y-43761904D01*
X50285714Y-43857142D01*
X50333333Y-43904761D01*
X50428571Y-43952380D01*
X50619047Y-43952380D01*
X50714285Y-43904761D01*
X50761904Y-43857142D01*
X50809523Y-43761904D01*
X50809523Y-42952380D01*
X51238095Y-43047619D02*
X51285714Y-43000000D01*
X51380952Y-42952380D01*
X51619047Y-42952380D01*
X51714285Y-43000000D01*
X51761904Y-43047619D01*
X51809523Y-43142857D01*
X51809523Y-43238095D01*
X51761904Y-43380952D01*
X51190476Y-43952380D01*
X51809523Y-43952380D01*
X47666666Y-45952380D02*
X47666666Y-44952380D01*
X48000000Y-45666666D01*
X48333333Y-44952380D01*
X48333333Y-45952380D01*
X48809523Y-45952380D02*
X48809523Y-44952380D01*
X48809523Y-45428571D02*
X49380952Y-45428571D01*
X49380952Y-45952380D02*
X49380952Y-44952380D01*
X49857142Y-45571428D02*
X50619047Y-45571428D01*
X51000000Y-44952380D02*
X51666666Y-44952380D01*
X51000000Y-45952380D01*
X51666666Y-45952380D01*
X52571428Y-45952380D02*
X52000000Y-45952380D01*
X52285714Y-45952380D02*
X52285714Y-44952380D01*
X52190476Y-45095238D01*
X52095238Y-45190476D01*
X52000000Y-45238095D01*
X53428571Y-45285714D02*
X53428571Y-45952380D01*
X53190476Y-44904761D02*
X52952380Y-45619047D01*
X53571428Y-45619047D01*
X53904761Y-45666666D02*
X54380952Y-45666666D01*
X53809523Y-45952380D02*
X54142857Y-44952380D01*
X54476190Y-45952380D01*
X7952380Y-25452380D02*
X8142857Y-25452380D01*
X8238095Y-25500000D01*
X8333333Y-25595238D01*
X8380952Y-25785714D01*
X8380952Y-26119047D01*
X8333333Y-26309523D01*
X8238095Y-26404761D01*
X8142857Y-26452380D01*
X7952380Y-26452380D01*
X7857142Y-26404761D01*
X7761904Y-26309523D01*
X7714285Y-26119047D01*
X7714285Y-25785714D01*
X7761904Y-25595238D01*
X7857142Y-25500000D01*
X7952380Y-25452380D01*
X9285714Y-26452380D02*
X8809523Y-26452380D01*
X8809523Y-25452380D01*
X9619047Y-25928571D02*
X9952380Y-25928571D01*
X10095238Y-26452380D02*
X9619047Y-26452380D01*
X9619047Y-25452380D01*
X10095238Y-25452380D01*
X10523809Y-26452380D02*
X10523809Y-25452380D01*
X10761904Y-25452380D01*
X10904761Y-25500000D01*
X11000000Y-25595238D01*
X11047619Y-25690476D01*
X11095238Y-25880952D01*
X11095238Y-26023809D01*
X11047619Y-26214285D01*
X11000000Y-26309523D01*
X10904761Y-26404761D01*
X10761904Y-26452380D01*
X10523809Y-26452380D01*
X11523809Y-26071428D02*
X12285714Y-26071428D01*
X12761904Y-26452380D02*
X12761904Y-25452380D01*
X13000000Y-25452380D01*
X13142857Y-25500000D01*
X13238095Y-25595238D01*
X13285714Y-25690476D01*
X13333333Y-25880952D01*
X13333333Y-26023809D01*
X13285714Y-26214285D01*
X13238095Y-26309523D01*
X13142857Y-26404761D01*
X13000000Y-26452380D01*
X12761904Y-26452380D01*
X13761904Y-26452380D02*
X13761904Y-25785714D01*
X13761904Y-25452380D02*
X13714285Y-25500000D01*
X13761904Y-25547619D01*
X13809523Y-25500000D01*
X13761904Y-25452380D01*
X13761904Y-25547619D01*
X14190476Y-26404761D02*
X14285714Y-26452380D01*
X14476190Y-26452380D01*
X14571428Y-26404761D01*
X14619047Y-26309523D01*
X14619047Y-26261904D01*
X14571428Y-26166666D01*
X14476190Y-26119047D01*
X14333333Y-26119047D01*
X14238095Y-26071428D01*
X14190476Y-25976190D01*
X14190476Y-25928571D01*
X14238095Y-25833333D01*
X14333333Y-25785714D01*
X14476190Y-25785714D01*
X14571428Y-25833333D01*
X15047619Y-25785714D02*
X15047619Y-26785714D01*
X15047619Y-25833333D02*
X15142857Y-25785714D01*
X15333333Y-25785714D01*
X15428571Y-25833333D01*
X15476190Y-25880952D01*
X15523809Y-25976190D01*
X15523809Y-26261904D01*
X15476190Y-26357142D01*
X15428571Y-26404761D01*
X15333333Y-26452380D01*
X15142857Y-26452380D01*
X15047619Y-26404761D01*
X16095238Y-26452380D02*
X16000000Y-26404761D01*
X15952380Y-26309523D01*
X15952380Y-25452380D01*
X16904761Y-26452380D02*
X16904761Y-25928571D01*
X16857142Y-25833333D01*
X16761904Y-25785714D01*
X16571428Y-25785714D01*
X16476190Y-25833333D01*
X16904761Y-26404761D02*
X16809523Y-26452380D01*
X16571428Y-26452380D01*
X16476190Y-26404761D01*
X16428571Y-26309523D01*
X16428571Y-26214285D01*
X16476190Y-26119047D01*
X16571428Y-26071428D01*
X16809523Y-26071428D01*
X16904761Y-26023809D01*
X17285714Y-25785714D02*
X17523809Y-26452380D01*
X17761904Y-25785714D02*
X17523809Y-26452380D01*
X17428571Y-26690476D01*
X17380952Y-26738095D01*
X17285714Y-26785714D01*
X18142857Y-26071428D02*
X18904761Y-26071428D01*
X19571428Y-25452380D02*
X19666666Y-25452380D01*
X19761904Y-25500000D01*
X19809523Y-25547619D01*
X19857142Y-25642857D01*
X19904761Y-25833333D01*
X19904761Y-26071428D01*
X19857142Y-26261904D01*
X19809523Y-26357142D01*
X19761904Y-26404761D01*
X19666666Y-26452380D01*
X19571428Y-26452380D01*
X19476190Y-26404761D01*
X19428571Y-26357142D01*
X19380952Y-26261904D01*
X19333333Y-26071428D01*
X19333333Y-25833333D01*
X19380952Y-25642857D01*
X19428571Y-25547619D01*
X19476190Y-25500000D01*
X19571428Y-25452380D01*
X20333333Y-26357142D02*
X20380952Y-26404761D01*
X20333333Y-26452380D01*
X20285714Y-26404761D01*
X20333333Y-26357142D01*
X20333333Y-26452380D01*
X21238095Y-25452380D02*
X21047619Y-25452380D01*
X20952380Y-25500000D01*
X20904761Y-25547619D01*
X20809523Y-25690476D01*
X20761904Y-25880952D01*
X20761904Y-26261904D01*
X20809523Y-26357142D01*
X20857142Y-26404761D01*
X20952380Y-26452380D01*
X21142857Y-26452380D01*
X21238095Y-26404761D01*
X21285714Y-26357142D01*
X21333333Y-26261904D01*
X21333333Y-26023809D01*
X21285714Y-25928571D01*
X21238095Y-25880952D01*
X21142857Y-25833333D01*
X20952380Y-25833333D01*
X20857142Y-25880952D01*
X20809523Y-25928571D01*
X20761904Y-26023809D01*
X21809523Y-26452380D02*
X22000000Y-26452380D01*
X22095238Y-26404761D01*
X22142857Y-26357142D01*
X22238095Y-26214285D01*
X22285714Y-26023809D01*
X22285714Y-25642857D01*
X22238095Y-25547619D01*
X22190476Y-25500000D01*
X22095238Y-25452380D01*
X21904761Y-25452380D01*
X21809523Y-25500000D01*
X21761904Y-25547619D01*
X21714285Y-25642857D01*
X21714285Y-25880952D01*
X21761904Y-25976190D01*
X21809523Y-26023809D01*
X21904761Y-26071428D01*
X22095238Y-26071428D01*
X22190476Y-26023809D01*
X22238095Y-25976190D01*
X22285714Y-25880952D01*
X14108096Y-23452380D02*
X14108096Y-24261904D01*
X14155715Y-24357142D01*
X14203334Y-24404761D01*
X14298572Y-24452380D01*
X14489048Y-24452380D01*
X14584286Y-24404761D01*
X14631905Y-24357142D01*
X14679524Y-24261904D01*
X14679524Y-23452380D01*
X15584286Y-23785714D02*
X15584286Y-24452380D01*
X15346191Y-23404761D02*
X15108096Y-24119047D01*
X15727143Y-24119047D01*
X48738095Y-5452380D02*
X48738095Y-6261904D01*
X48785714Y-6357142D01*
X48833333Y-6404761D01*
X48928571Y-6452380D01*
X49119047Y-6452380D01*
X49214285Y-6404761D01*
X49261904Y-6357142D01*
X49309523Y-6261904D01*
X49309523Y-5452380D01*
X49690476Y-5452380D02*
X50309523Y-5452380D01*
X49976190Y-5833333D01*
X50119047Y-5833333D01*
X50214285Y-5880952D01*
X50261904Y-5928571D01*
X50309523Y-6023809D01*
X50309523Y-6261904D01*
X50261904Y-6357142D01*
X50214285Y-6404761D01*
X50119047Y-6452380D01*
X49833333Y-6452380D01*
X49738095Y-6404761D01*
X49690476Y-6357142D01*
X47119047Y-7928571D02*
X47261904Y-7976190D01*
X47309523Y-8023809D01*
X47357142Y-8119047D01*
X47357142Y-8261904D01*
X47309523Y-8357142D01*
X47261904Y-8404761D01*
X47166666Y-8452380D01*
X46785714Y-8452380D01*
X46785714Y-7452380D01*
X47119047Y-7452380D01*
X47214285Y-7500000D01*
X47261904Y-7547619D01*
X47309523Y-7642857D01*
X47309523Y-7738095D01*
X47261904Y-7833333D01*
X47214285Y-7880952D01*
X47119047Y-7928571D01*
X46785714Y-7928571D01*
X47785714Y-8452380D02*
X47785714Y-7452380D01*
X48119047Y-8166666D01*
X48452380Y-7452380D01*
X48452380Y-8452380D01*
X48928571Y-7928571D02*
X49261904Y-7928571D01*
X49404761Y-8452380D02*
X48928571Y-8452380D01*
X48928571Y-7452380D01*
X49404761Y-7452380D01*
X49785714Y-7547619D02*
X49833333Y-7500000D01*
X49928571Y-7452380D01*
X50166666Y-7452380D01*
X50261904Y-7500000D01*
X50309523Y-7547619D01*
X50357142Y-7642857D01*
X50357142Y-7738095D01*
X50309523Y-7880952D01*
X49738095Y-8452380D01*
X50357142Y-8452380D01*
X50928571Y-7880952D02*
X50833333Y-7833333D01*
X50785714Y-7785714D01*
X50738095Y-7690476D01*
X50738095Y-7642857D01*
X50785714Y-7547619D01*
X50833333Y-7500000D01*
X50928571Y-7452380D01*
X51119047Y-7452380D01*
X51214285Y-7500000D01*
X51261904Y-7547619D01*
X51309523Y-7642857D01*
X51309523Y-7690476D01*
X51261904Y-7785714D01*
X51214285Y-7833333D01*
X51119047Y-7880952D01*
X50928571Y-7880952D01*
X50833333Y-7928571D01*
X50785714Y-7976190D01*
X50738095Y-8071428D01*
X50738095Y-8261904D01*
X50785714Y-8357142D01*
X50833333Y-8404761D01*
X50928571Y-8452380D01*
X51119047Y-8452380D01*
X51214285Y-8404761D01*
X51261904Y-8357142D01*
X51309523Y-8261904D01*
X51309523Y-8071428D01*
X51261904Y-7976190D01*
X51214285Y-7928571D01*
X51119047Y-7880952D01*
X51928571Y-7452380D02*
X52023809Y-7452380D01*
X52119047Y-7500000D01*
X52166666Y-7547619D01*
X52214285Y-7642857D01*
X52261904Y-7833333D01*
X52261904Y-8071428D01*
X52214285Y-8261904D01*
X52166666Y-8357142D01*
X52119047Y-8404761D01*
X52023809Y-8452380D01*
X51928571Y-8452380D01*
X51833333Y-8404761D01*
X51785714Y-8357142D01*
X51738095Y-8261904D01*
X51690476Y-8071428D01*
X51690476Y-7833333D01*
X51738095Y-7642857D01*
X51785714Y-7547619D01*
X51833333Y-7500000D01*
X51928571Y-7452380D01*
X15238095Y-52452380D02*
X15238095Y-53261904D01*
X15285714Y-53357142D01*
X15333333Y-53404761D01*
X15428571Y-53452380D01*
X15619047Y-53452380D01*
X15714285Y-53404761D01*
X15761904Y-53357142D01*
X15809523Y-53261904D01*
X15809523Y-52452380D01*
X16809523Y-53452380D02*
X16238095Y-53452380D01*
X16523809Y-53452380D02*
X16523809Y-52452380D01*
X16428571Y-52595238D01*
X16333333Y-52690476D01*
X16238095Y-52738095D01*
X11428571Y-55452380D02*
X11428571Y-54452380D01*
X12000000Y-55452380D01*
X12000000Y-54452380D01*
X12619047Y-55452380D02*
X12523809Y-55404761D01*
X12476190Y-55357142D01*
X12428571Y-55261904D01*
X12428571Y-54976190D01*
X12476190Y-54880952D01*
X12523809Y-54833333D01*
X12619047Y-54785714D01*
X12761904Y-54785714D01*
X12857142Y-54833333D01*
X12904761Y-54880952D01*
X12952380Y-54976190D01*
X12952380Y-55261904D01*
X12904761Y-55357142D01*
X12857142Y-55404761D01*
X12761904Y-55452380D01*
X12619047Y-55452380D01*
X13809523Y-55452380D02*
X13809523Y-54452380D01*
X13809523Y-55404761D02*
X13714285Y-55452380D01*
X13523809Y-55452380D01*
X13428571Y-55404761D01*
X13380952Y-55357142D01*
X13333333Y-55261904D01*
X13333333Y-54976190D01*
X13380952Y-54880952D01*
X13428571Y-54833333D01*
X13523809Y-54785714D01*
X13714285Y-54785714D01*
X13809523Y-54833333D01*
X14666666Y-55404761D02*
X14571428Y-55452380D01*
X14380952Y-55452380D01*
X14285714Y-55404761D01*
X14238095Y-55309523D01*
X14238095Y-54928571D01*
X14285714Y-54833333D01*
X14380952Y-54785714D01*
X14571428Y-54785714D01*
X14666666Y-54833333D01*
X14714285Y-54928571D01*
X14714285Y-55023809D01*
X14238095Y-55119047D01*
X15142857Y-55452380D02*
X15142857Y-54452380D01*
X15476190Y-55166666D01*
X15809523Y-54452380D01*
X15809523Y-55452380D01*
X16857142Y-55357142D02*
X16809523Y-55404761D01*
X16666666Y-55452380D01*
X16571428Y-55452380D01*
X16428571Y-55404761D01*
X16333333Y-55309523D01*
X16285714Y-55214285D01*
X16238095Y-55023809D01*
X16238095Y-54880952D01*
X16285714Y-54690476D01*
X16333333Y-54595238D01*
X16428571Y-54500000D01*
X16571428Y-54452380D01*
X16666666Y-54452380D01*
X16809523Y-54500000D01*
X16857142Y-54547619D01*
X17285714Y-54452380D02*
X17285714Y-55261904D01*
X17333333Y-55357142D01*
X17380952Y-55404761D01*
X17476190Y-55452380D01*
X17666666Y-55452380D01*
X17761904Y-55404761D01*
X17809523Y-55357142D01*
X17857142Y-55261904D01*
X17857142Y-54452380D01*
X18095238Y-55547619D02*
X18857142Y-55547619D01*
X19095238Y-55452380D02*
X19095238Y-54452380D01*
X19333333Y-54452380D01*
X19476190Y-54500000D01*
X19571428Y-54595238D01*
X19619047Y-54690476D01*
X19666666Y-54880952D01*
X19666666Y-55023809D01*
X19619047Y-55214285D01*
X19571428Y-55309523D01*
X19476190Y-55404761D01*
X19333333Y-55452380D01*
X19095238Y-55452380D01*
X20619047Y-55452380D02*
X20047619Y-55452380D01*
X20333333Y-55452380D02*
X20333333Y-54452380D01*
X20238095Y-54595238D01*
X20142857Y-54690476D01*
X20047619Y-54738095D01*
X15761904Y-8452380D02*
X15761904Y-7452380D01*
X16000000Y-7452380D01*
X16142857Y-7500000D01*
X16238095Y-7595238D01*
X16285714Y-7690476D01*
X16333333Y-7880952D01*
X16333333Y-8023809D01*
X16285714Y-8214285D01*
X16238095Y-8309523D01*
X16142857Y-8404761D01*
X16000000Y-8452380D01*
X15761904Y-8452380D01*
X16666666Y-7452380D02*
X17285714Y-7452380D01*
X16952380Y-7833333D01*
X17095238Y-7833333D01*
X17190476Y-7880952D01*
X17238095Y-7928571D01*
X17285714Y-8023809D01*
X17285714Y-8261904D01*
X17238095Y-8357142D01*
X17190476Y-8404761D01*
X17095238Y-8452380D01*
X16809523Y-8452380D01*
X16714285Y-8404761D01*
X16666666Y-8357142D01*
X14087142Y-2492380D02*
X13753809Y-2016190D01*
X13515714Y-2492380D02*
X13515714Y-1492380D01*
X13896666Y-1492380D01*
X13991904Y-1540000D01*
X14039523Y-1587619D01*
X14087142Y-1682857D01*
X14087142Y-1825714D01*
X14039523Y-1920952D01*
X13991904Y-1968571D01*
X13896666Y-2016190D01*
X13515714Y-2016190D01*
X14515714Y-1968571D02*
X14849047Y-1968571D01*
X14991904Y-2492380D02*
X14515714Y-2492380D01*
X14515714Y-1492380D01*
X14991904Y-1492380D01*
X15420476Y-2492380D02*
X15420476Y-1492380D01*
X15658571Y-1492380D01*
X15801428Y-1540000D01*
X15896666Y-1635238D01*
X15944285Y-1730476D01*
X15991904Y-1920952D01*
X15991904Y-2063809D01*
X15944285Y-2254285D01*
X15896666Y-2349523D01*
X15801428Y-2444761D01*
X15658571Y-2492380D01*
X15420476Y-2492380D01*
X21761904Y-8452380D02*
X21761904Y-7452380D01*
X22000000Y-7452380D01*
X22142857Y-7500000D01*
X22238095Y-7595238D01*
X22285714Y-7690476D01*
X22333333Y-7880952D01*
X22333333Y-8023809D01*
X22285714Y-8214285D01*
X22238095Y-8309523D01*
X22142857Y-8404761D01*
X22000000Y-8452380D01*
X21761904Y-8452380D01*
X22714285Y-7547619D02*
X22761904Y-7500000D01*
X22857142Y-7452380D01*
X23095238Y-7452380D01*
X23190476Y-7500000D01*
X23238095Y-7547619D01*
X23285714Y-7642857D01*
X23285714Y-7738095D01*
X23238095Y-7880952D01*
X22666666Y-8452380D01*
X23285714Y-8452380D01*
X18372857Y-2016190D02*
X18372857Y-2492380D01*
X18039523Y-1492380D02*
X18372857Y-2016190D01*
X18706190Y-1492380D01*
X19039523Y-1968571D02*
X19372857Y-1968571D01*
X19515714Y-2492380D02*
X19039523Y-2492380D01*
X19039523Y-1492380D01*
X19515714Y-1492380D01*
X20420476Y-2492380D02*
X19944285Y-2492380D01*
X19944285Y-1492380D01*
X21230000Y-2492380D02*
X20753809Y-2492380D01*
X20753809Y-1492380D01*
X21753809Y-1492380D02*
X21944285Y-1492380D01*
X22039523Y-1540000D01*
X22134761Y-1635238D01*
X22182380Y-1825714D01*
X22182380Y-2159047D01*
X22134761Y-2349523D01*
X22039523Y-2444761D01*
X21944285Y-2492380D01*
X21753809Y-2492380D01*
X21658571Y-2444761D01*
X21563333Y-2349523D01*
X21515714Y-2159047D01*
X21515714Y-1825714D01*
X21563333Y-1635238D01*
X21658571Y-1540000D01*
X21753809Y-1492380D01*
X22515714Y-1492380D02*
X22753809Y-2492380D01*
X22944285Y-1778095D01*
X23134761Y-2492380D01*
X23372857Y-1492380D01*
X27761904Y-8452380D02*
X27761904Y-7452380D01*
X28000000Y-7452380D01*
X28142857Y-7500000D01*
X28238095Y-7595238D01*
X28285714Y-7690476D01*
X28333333Y-7880952D01*
X28333333Y-8023809D01*
X28285714Y-8214285D01*
X28238095Y-8309523D01*
X28142857Y-8404761D01*
X28000000Y-8452380D01*
X27761904Y-8452380D01*
X29285714Y-8452380D02*
X28714285Y-8452380D01*
X29000000Y-8452380D02*
X29000000Y-7452380D01*
X28904761Y-7595238D01*
X28809523Y-7690476D01*
X28714285Y-7738095D01*
X25063333Y-1540000D02*
X24968095Y-1492380D01*
X24825238Y-1492380D01*
X24682380Y-1540000D01*
X24587142Y-1635238D01*
X24539523Y-1730476D01*
X24491904Y-1920952D01*
X24491904Y-2063809D01*
X24539523Y-2254285D01*
X24587142Y-2349523D01*
X24682380Y-2444761D01*
X24825238Y-2492380D01*
X24920476Y-2492380D01*
X25063333Y-2444761D01*
X25110952Y-2397142D01*
X25110952Y-2063809D01*
X24920476Y-2063809D01*
X26110952Y-2492380D02*
X25777619Y-2016190D01*
X25539523Y-2492380D02*
X25539523Y-1492380D01*
X25920476Y-1492380D01*
X26015714Y-1540000D01*
X26063333Y-1587619D01*
X26110952Y-1682857D01*
X26110952Y-1825714D01*
X26063333Y-1920952D01*
X26015714Y-1968571D01*
X25920476Y-2016190D01*
X25539523Y-2016190D01*
X26539523Y-1968571D02*
X26872857Y-1968571D01*
X27015714Y-2492380D02*
X26539523Y-2492380D01*
X26539523Y-1492380D01*
X27015714Y-1492380D01*
X27444285Y-1968571D02*
X27777619Y-1968571D01*
X27920476Y-2492380D02*
X27444285Y-2492380D01*
X27444285Y-1492380D01*
X27920476Y-1492380D01*
X28349047Y-2492380D02*
X28349047Y-1492380D01*
X28920476Y-2492380D01*
X28920476Y-1492380D01*
X34666666Y-10904761D02*
X34809523Y-10952380D01*
X35047619Y-10952380D01*
X35142857Y-10904761D01*
X35190476Y-10857142D01*
X35238095Y-10761904D01*
X35238095Y-10666666D01*
X35190476Y-10571428D01*
X35142857Y-10523809D01*
X35047619Y-10476190D01*
X34857142Y-10428571D01*
X34761904Y-10380952D01*
X34714285Y-10333333D01*
X34666666Y-10238095D01*
X34666666Y-10142857D01*
X34714285Y-10047619D01*
X34761904Y-10000000D01*
X34857142Y-9952380D01*
X35095238Y-9952380D01*
X35238095Y-10000000D01*
X35571428Y-9952380D02*
X35809523Y-10952380D01*
X36000000Y-10238095D01*
X36190476Y-10952380D01*
X36428571Y-9952380D01*
X37333333Y-10952380D02*
X36761904Y-10952380D01*
X37047619Y-10952380D02*
X37047619Y-9952380D01*
X36952380Y-10095238D01*
X36857142Y-10190476D01*
X36761904Y-10238095D01*
X32797619Y-1452380D02*
X32797619Y-452380D01*
X33035714Y-452380D01*
X33178571Y-500000D01*
X33273809Y-595238D01*
X33321428Y-690476D01*
X33369047Y-880952D01*
X33369047Y-1023809D01*
X33321428Y-1214285D01*
X33273809Y-1309523D01*
X33178571Y-1404761D01*
X33035714Y-1452380D01*
X32797619Y-1452380D01*
X33797619Y-1452380D02*
X33797619Y-785714D01*
X33797619Y-452380D02*
X33750000Y-500000D01*
X33797619Y-547619D01*
X33845238Y-500000D01*
X33797619Y-452380D01*
X33797619Y-547619D01*
X34226190Y-1404761D02*
X34321428Y-1452380D01*
X34511904Y-1452380D01*
X34607142Y-1404761D01*
X34654761Y-1309523D01*
X34654761Y-1261904D01*
X34607142Y-1166666D01*
X34511904Y-1119047D01*
X34369047Y-1119047D01*
X34273809Y-1071428D01*
X34226190Y-976190D01*
X34226190Y-928571D01*
X34273809Y-833333D01*
X34369047Y-785714D01*
X34511904Y-785714D01*
X34607142Y-833333D01*
X35083333Y-785714D02*
X35083333Y-1785714D01*
X35083333Y-833333D02*
X35178571Y-785714D01*
X35369047Y-785714D01*
X35464285Y-833333D01*
X35511904Y-880952D01*
X35559523Y-976190D01*
X35559523Y-1261904D01*
X35511904Y-1357142D01*
X35464285Y-1404761D01*
X35369047Y-1452380D01*
X35178571Y-1452380D01*
X35083333Y-1404761D01*
X36130952Y-1452380D02*
X36035714Y-1404761D01*
X35988095Y-1309523D01*
X35988095Y-452380D01*
X36940476Y-1452380D02*
X36940476Y-928571D01*
X36892857Y-833333D01*
X36797619Y-785714D01*
X36607142Y-785714D01*
X36511904Y-833333D01*
X36940476Y-1404761D02*
X36845238Y-1452380D01*
X36607142Y-1452380D01*
X36511904Y-1404761D01*
X36464285Y-1309523D01*
X36464285Y-1214285D01*
X36511904Y-1119047D01*
X36607142Y-1071428D01*
X36845238Y-1071428D01*
X36940476Y-1023809D01*
X37321428Y-785714D02*
X37559523Y-1452380D01*
X37797619Y-785714D02*
X37559523Y-1452380D01*
X37464285Y-1690476D01*
X37416666Y-1738095D01*
X37321428Y-1785714D01*
M02*
